<?xml version="1.0" encoding="UTF-8" standalone="yes"?>
<!-- Created with sK1/UniConvertor (http://sk1project.org/) -->
<svg xmlns="http://www.w3.org/2000/svg" xmlns:xlink="http://www.w3.org/1999/xlink"
  width="595.276pt" height="841.89pt" viewBox="0 0 595.276 841.89"
  fill-rule="evenodd">
<g>
<path style="stroke:#000000; stroke-width:0.850394; stroke-linejoin:round; stroke-linecap:round; fill:none" d="M 7.85131 9.83026C 7.85131 9.83026 7.85131 103.398 7.85131 150.182C 7.85131 196.966 7.85131 196.966 7.85131 196.966C 7.85131 196.966 7.85131 196.966 8.07611 196.974C 8.30091 196.982 8.75051 196.999 9.20107 197.011C 9.65164 197.023 10.1032 197.032 10.5557 197.037C 11.0082 197.041 11.4617 197.041 11.6884 197.041C 11.9151 197.041 11.9151 197.041 13.646 197.041C 15.3768 197.041 18.8385 197.041 22.246 196.805C 25.6536 196.569 29.007 196.096 32.277 195.421C 35.547 194.746 38.7336 193.868 40.3269 193.429C 41.9202 192.99 41.9202 192.99 41.9184 192.898C 41.9166 192.807 41.9131 192.624 41.9103 192.441C 41.9076 192.258 41.9057 192.076 41.9047 191.893C 41.9037 191.71 41.9037 191.526 41.9037 191.435C 41.9037 191.343 41.9037 191.343 41.9037 186.678C 41.9037 182.013 41.9037 172.683 44.0127 163.85C 46.1217 155.016 50.3397 146.68 55.7548 139.762C 61.1698 132.844 67.7819 127.345 71.088 124.595C 74.394 121.846 74.394 121.846 73.0568 119.516C 71.7197 117.186 69.0454 112.526 66.942 107.49C 64.8387 102.454 63.3063 97.0413 62.5401 91.4476C 61.7739 85.854 61.7739 80.0793 61.7739 77.192C 61.7739 74.3047 61.7739 74.3047 61.7739 70.1562C 61.7739 66.0077 61.7739 57.7106 63.3549 49.7861C 64.936 41.8616 68.098 34.3096 72.2645 27.7123C 76.4309 21.1151 81.6018 15.4727 84.1872 12.6514C 86.7726 9.8302 86.7726 9.8302 86.7726 9.8302C 86.7726 9.8302 86.7726 9.8302 67.0423 9.8302C 47.312 9.83026 7.85131 9.83026 7.85131 9.83026"/>
<path style="stroke:#000000; stroke-width:0.850394; stroke-linejoin:round; stroke-linecap:round; fill:none" d="M 7.85131 204.911C 7.85131 204.911 7.85131 333.828 7.85131 398.287C 7.85131 462.746 7.85131 462.746 7.85131 462.746C 7.85131 462.746 7.85131 462.746 15.0428 462.911C 22.2342 463.075 36.6171 463.404 49.8867 468.301C 63.1563 473.197 75.3126 482.661 83.63 493.935C 91.9474 505.208 96.4259 518.291 98.6651 524.833C 100.904 531.375 100.904 531.375 101.235 531.344C 101.566 531.314 102.228 531.253 102.893 531.206C 103.559 531.159 104.228 531.126 104.901 531.11C 105.575 531.094 106.252 531.094 106.59 531.094C 106.929 531.094 106.929 531.094 107.796 531.094C 108.664 531.094 110.398 531.094 112.11 531.196C 113.821 531.299 115.509 531.505 117.162 531.801C 118.815 532.097 120.433 532.483 121.242 532.677C 122.051 532.87 122.051 532.87 122.635 529.149C 123.219 525.428 124.388 517.986 127.346 511.146C 130.305 504.307 135.055 498.069 140.674 493.365C 146.294 488.661 152.784 485.492 156.029 483.907C 159.274 482.322 159.274 482.322 158.948 482.347C 158.623 482.371 157.972 482.421 157.318 482.46C 156.665 482.498 156.009 482.525 155.349 482.539C 154.689 482.552 154.025 482.552 153.693 482.552C 153.361 482.552 153.361 482.552 146.253 482.552C 139.145 482.552 124.93 482.552 112.058 476.724C 99.1859 470.895 87.6573 459.237 81.893 446.22C 76.1287 433.204 76.1287 418.829 76.1287 411.641C 76.1287 404.453 76.1287 404.453 76.1287 404.004C 76.1287 403.555 76.1287 402.656 76.1513 401.763C 76.174 400.87 76.2192 399.981 76.2858 399.1C 76.3524 398.218 76.4403 397.343 76.4843 396.905C 76.5282 396.467 76.5282 396.467 72.7076 394.792C 68.887 393.117 61.2458 389.767 54.7513 384.244C 48.2569 378.721 42.9092 371.026 40.2354 362.7C 37.5616 354.374 37.5616 345.417 37.5616 340.938C 37.5616 336.46 37.5616 336.46 37.5616 331.062C 37.5616 325.664 37.5616 314.867 41.4472 304.986C 45.3327 295.106 53.1039 286.14 62.0855 280.794C 71.0671 275.447 81.2592 273.718 86.3552 272.854C 91.4512 271.99 91.4512 271.99 87.0144 269.768C 82.5776 267.546 73.7039 263.103 66.086 256.481C 58.468 249.858 52.1058 241.057 48.371 231.46C 44.6362 221.863 43.5289 211.471 42.9752 206.275C 42.4215 201.08 42.4215 201.08 40.7968 201.504C 39.1722 201.928 35.9229 202.776 32.5942 203.427C 29.2655 204.077 25.8575 204.529 22.3978 204.755C 18.938 204.981 15.4266 204.981 13.6709 204.981C 11.9151 204.981 11.9151 204.981 11.6884 204.981C 11.4617 204.981 11.0082 204.981 10.443 204.975C 9.87789 204.969 9.20107 204.956 7.85131 204.911"/>
<path style="stroke:#000000; stroke-width:0.850394; stroke-linejoin:round; stroke-linecap:round; fill:none" d="M 7.85131 470.69C 7.85131 470.69 7.85131 534.392 7.85131 566.243C 7.85131 598.094 7.85131 598.094 7.85131 598.094C 7.85131 598.094 7.85131 598.094 9.60316 596.66C 11.355 595.227 14.8587 592.359 18.6478 589.835C 22.4369 587.311 26.5114 585.13 30.7717 583.393C 35.0321 581.656 39.4783 580.363 41.7014 579.716C 43.9245 579.069 43.9245 579.069 45.0246 575.19C 46.1246 571.311 48.3248 563.553 52.5704 556.669C 56.8161 549.786 63.1072 543.776 70.1873 539.909C 77.2674 536.043 85.1365 534.321 89.071 533.46C 93.0056 532.598 93.0056 532.598 90.8817 526.693C 88.7578 520.787 84.5101 508.976 74.0857 496.695C 63.6614 484.413 47.0603 471.66 7.85131 470.69"/>
<path style="stroke:#000000; stroke-width:0.850394; stroke-linejoin:round; stroke-linecap:round; fill:none" d="M 7.85131 608.603C 7.85131 608.603 7.85131 633.706 7.85131 646.258C 7.85131 658.81 7.85131 658.81 7.85131 658.81C 7.85131 658.81 7.85131 658.81 10.9875 658.732C 14.1237 658.654 20.3961 658.499 26.4377 657.401C 32.4793 656.303 38.2901 654.263 43.6043 651.551C 48.9185 648.838 53.7361 645.453 56.1449 643.76C 58.5537 642.068 58.5537 642.068 56.7773 640.104C 55.0009 638.139 51.448 634.211 48.5876 629.632C 45.7271 625.053 43.5589 619.823 42.4748 614.337C 41.3908 608.851 41.3908 603.109 41.3908 600.238C 41.3908 597.367 41.3908 597.367 41.3908 596.836C 41.3908 596.305 41.3908 595.242 41.4289 594.189C 41.467 593.136 41.5433 592.092 41.6532 591.058C 41.7631 590.025 41.9066 589.003 41.9784 588.491C 42.0501 587.98 42.0501 587.98 39.9072 588.711C 37.7643 589.442 33.4784 590.904 28.4306 593.409C 23.3828 595.915 17.5731 599.463 7.85131 608.603"/>
<path style="stroke:#000000; stroke-width:0.850394; stroke-linejoin:round; stroke-linecap:round; fill:none" d="M 7.85131 666.751C 7.85131 666.751 7.85131 707.841 7.85131 728.386C 7.85131 748.931 7.85131 748.931 7.85131 748.931C 7.85131 748.931 7.85131 748.931 10.6696 751.581C 13.4879 754.231 19.1245 759.531 25.7195 763.803C 32.3145 768.075 39.8678 771.319 47.7957 772.941C 55.7236 774.563 64.0261 774.563 68.1774 774.563C 72.3286 774.563 72.3286 774.563 73.0224 774.563C 73.7162 774.563 75.1038 774.563 76.4817 774.517C 77.8596 774.471 79.2277 774.38 80.582 774.246C 81.9363 774.112 83.2767 773.935 83.9469 773.847C 84.6171 773.759 84.6171 773.759 85.2422 765.635C 85.8673 757.512 87.1175 741.265 93.3265 726.424C 99.5356 711.583 110.703 698.148 123.772 689.21C 136.84 680.272 151.809 675.832 159.294 673.611C 166.778 671.391 166.778 671.391 166.631 669.447C 166.485 667.502 166.192 663.613 165.553 659.82C 164.915 656.028 163.931 652.333 162.664 648.797C 161.398 645.261 159.849 641.886 159.074 640.198C 158.299 638.51 158.299 638.51 156.299 641.061C 154.298 643.612 150.296 648.715 145.204 652.903C 140.112 657.091 133.929 660.365 127.368 662.003C 120.807 663.64 113.868 663.64 110.398 663.64C 106.929 663.64 106.929 663.64 104.215 663.64C 101.501 663.64 96.0733 663.64 90.8772 662.638C 85.6811 661.636 80.7168 659.632 76.3241 656.973C 71.9314 654.313 68.1103 650.999 66.1998 649.341C 64.2892 647.684 64.2892 647.684 61.6286 649.616C 58.9681 651.547 53.6469 655.41 46.1257 659.091C 38.6045 662.771 28.8832 666.269 7.85131 666.751"/>
<path style="stroke:#000000; stroke-width:0.850394; stroke-linejoin:round; stroke-linecap:round; fill:none" d="M 7.85131 759.44C 7.85131 759.44 7.85131 796.695 7.85131 815.322C 7.85131 833.949 7.85131 833.949 7.85131 833.949C 7.85131 833.949 7.85131 833.949 7.85131 833.949C 7.85131 833.949 7.85131 833.949 22.5322 833.949C 37.2132 833.949 66.575 833.949 81.2559 833.949C 95.9369 833.949 95.9369 833.949 95.9369 833.949C 95.9369 833.949 95.9369 833.949 94.6915 831.381C 93.4461 828.812 90.9554 823.675 89.0099 818.219C 87.0645 812.764 85.6643 806.99 84.9642 801.049C 84.2641 795.109 84.2641 789.003 84.2641 785.95C 84.2641 782.897 84.2641 782.897 84.2641 782.835C 84.2641 782.774 84.2641 782.651 84.2657 782.529C 84.2674 782.406 84.2706 782.284 84.2729 782.162C 84.2751 782.04 84.2764 781.918 84.2771 781.857C 84.2777 781.796 84.2777 781.796 83.624 781.873C 82.9703 781.95 81.6629 782.105 80.3445 782.222C 79.026 782.34 77.6966 782.421 76.3579 782.462C 75.0191 782.502 73.671 782.502 72.9969 782.502C 72.3228 782.502 72.3228 782.502 68.2525 782.502C 64.1822 782.502 56.0416 782.502 46.3636 780.342C 36.6855 778.181 25.47 773.861 7.85131 759.44"/>
<path style="stroke:#000000; stroke-width:0.850394; stroke-linejoin:round; stroke-linecap:round; fill:none" d="M 104.758 833.949C 104.758 833.949 199.168 833.949 246.373 833.949C 293.578 833.949 293.578 833.949 293.578 833.949C 293.578 833.949 293.578 833.949 294.922 831.414C 296.266 828.879 298.955 823.809 301.062 818.378C 303.169 812.946 304.696 807.153 305.459 801.179C 306.222 795.206 306.222 789.051 306.222 785.974C 306.222 782.897 306.222 782.897 306.222 781.998C 306.222 781.098 306.222 779.3 306.156 777.517C 306.09 775.735 305.958 773.968 305.766 772.22C 305.574 770.473 305.323 768.745 305.197 767.881C 305.071 767.017 305.071 767.017 304.115 767.229C 303.159 767.441 301.246 767.866 299.296 768.191C 297.347 768.516 295.361 768.741 293.348 768.853C 291.336 768.966 289.297 768.966 288.278 768.966C 287.259 768.966 287.259 768.966 279.641 768.966C 272.023 768.966 256.788 768.966 242.99 762.716C 229.192 756.467 216.831 743.967 210.651 730.013C 204.471 716.059 204.471 700.649 204.471 692.945C 204.471 685.24 204.471 685.24 204.471 684.651C 204.471 684.063 204.471 682.886 204.506 681.717C 204.542 680.549 204.613 679.388 204.719 678.238C 204.825 677.089 204.965 675.95 205.035 675.38C 205.105 674.811 205.105 674.811 204.777 674.793C 204.45 674.775 203.794 674.738 203.137 674.71C 202.48 674.682 201.821 674.663 201.159 674.653C 200.498 674.643 199.834 674.643 199.502 674.643C 199.169 674.643 199.169 674.643 197.778 674.643C 196.387 674.643 193.604 674.643 190.859 674.805C 188.113 674.966 185.404 675.288 182.751 675.754C 180.097 676.22 177.497 676.829 176.198 677.134C 174.898 677.439 174.898 677.439 174.899 677.513C 174.899 677.586 174.901 677.734 174.903 677.881C 174.905 678.028 174.908 678.176 174.909 678.323C 174.911 678.471 174.911 678.619 174.911 678.693C 174.911 678.766 174.911 678.766 174.911 687.17C 174.911 695.574 174.911 712.381 168.977 727.789C 163.043 743.198 151.176 757.207 137.382 765.769C 123.588 774.33 107.867 777.444 100.006 779.001C 92.1455 780.558 92.1455 780.558 92.1428 780.687C 92.14 780.817 92.1345 781.076 92.1295 781.335C 92.1245 781.595 92.12 781.855 92.1177 782.115C 92.1154 782.376 92.1154 782.636 92.1154 782.767C 92.1154 782.897 92.1154 782.897 92.1154 785.974C 92.1154 789.051 92.1154 795.206 93.2596 802.628C 94.4038 810.05 96.6922 818.739 104.758 833.949"/>
<path style="stroke:#000000; stroke-width:0.850394; stroke-linejoin:round; stroke-linecap:round; fill:none" d="M 385.944 833.949C 385.944 833.949 408.643 833.949 419.992 833.949C 431.342 833.949 431.342 833.949 431.342 833.949C 431.342 833.949 431.342 833.949 431.342 833.949C 431.342 833.949 431.342 833.949 431.342 821.035C 431.342 808.121 431.342 782.293 431.342 769.379C 431.342 756.465 431.342 756.465 431.342 756.465C 431.342 756.465 431.342 756.465 429.697 756.998C 428.052 757.532 424.763 758.599 421.365 759.421C 417.967 760.243 414.46 760.82 410.888 761.108C 407.315 761.397 403.675 761.397 401.855 761.397C 400.036 761.397 400.036 761.397 398.697 761.397C 397.359 761.397 394.682 761.397 392.041 761.24C 389.4 761.084 386.795 760.772 384.242 760.321C 381.69 759.87 379.19 759.281 377.94 758.986C 376.69 758.691 376.69 758.691 376.282 760.109C 375.874 761.526 375.057 764.361 374.43 767.277C 373.803 770.193 373.364 773.19 373.145 776.239C 372.926 779.288 372.926 782.388 372.926 783.939C 372.926 785.489 372.926 785.489 372.926 788.436C 372.926 791.384 372.926 797.278 374.113 804.366C 375.299 811.453 377.673 819.733 385.944 833.949"/>
<path style="stroke:#000000; stroke-width:0.850394; stroke-linejoin:round; stroke-linecap:round; fill:none" d="M 431.342 748.092C 431.342 748.092 431.342 722.556 431.342 709.787C 431.342 697.019 431.342 697.019 431.342 697.019C 431.342 697.019 431.342 697.019 427.363 698.69C 423.383 700.361 415.424 703.703 408.287 708.645C 401.151 713.586 394.836 720.127 390.127 727.474C 385.418 734.82 382.316 742.973 380.765 747.05C 379.213 751.126 379.213 751.126 380.33 751.38C 381.447 751.633 383.682 752.14 385.96 752.529C 388.239 752.917 390.563 753.187 392.917 753.322C 395.271 753.457 397.657 753.457 398.849 753.457C 400.042 753.457 400.042 753.457 401.87 753.457C 403.699 753.457 407.356 753.457 411.817 752.984C 416.278 752.511 421.544 751.565 431.342 748.092"/>
<path style="stroke:#000000; stroke-width:0.850394; stroke-linejoin:round; stroke-linecap:round; fill:none" d="M 431.342 688.479C 431.342 688.479 431.342 664.962 431.342 653.204C 431.342 641.445 431.342 641.445 431.342 641.445C 431.342 641.445 431.342 641.445 428.706 641.115C 426.07 640.785 420.798 640.125 415.746 638.747C 410.693 637.37 405.86 635.277 401.444 632.665C 397.027 630.053 393.026 626.924 391.026 625.359C 389.025 623.795 389.025 623.795 387.763 625.437C 386.5 627.079 383.975 630.364 381.185 633.431C 378.396 636.499 375.343 639.349 372.091 641.916C 368.838 644.484 365.386 646.767 363.66 647.909C 361.934 649.051 361.934 649.051 362.802 650.877C 363.669 652.702 365.404 656.353 366.758 660.225C 368.112 664.096 369.084 668.188 369.571 672.394C 370.057 676.6 370.057 680.92 370.057 683.08C 370.057 685.24 370.057 685.24 370.057 688.674C 370.057 692.108 370.057 698.975 368.828 705.553C 367.6 712.131 365.143 718.418 361.879 723.993C 358.615 729.568 354.544 734.431 352.508 736.862C 350.473 739.293 350.473 739.293 351.565 739.974C 352.657 740.654 354.842 742.014 357.115 743.244C 359.387 744.473 361.748 745.572 364.176 746.518C 366.603 747.465 369.098 748.259 370.345 748.656C 371.592 749.053 371.592 749.053 373.317 744.408C 375.042 739.764 378.493 730.475 385.687 720.288C 392.881 710.1 403.818 699.015 431.342 688.479"/>
<path style="stroke:#000000; stroke-width:0.850394; stroke-linejoin:round; stroke-linecap:round; fill:none" d="M 431.342 633.437C 431.342 633.437 431.342 600.371 431.342 583.837C 431.342 567.304 431.342 567.304 431.342 567.304C 431.342 567.304 431.342 567.304 430.32 566.943C 429.298 566.581 427.255 565.857 425.163 565.237C 423.072 564.616 420.932 564.1 418.757 563.698C 416.581 563.297 414.369 563.011 413.263 562.868C 412.157 562.726 412.157 562.726 411.925 566.081C 411.692 569.436 411.226 576.146 409.887 582.612C 408.548 589.079 406.337 595.302 403.481 601.052C 400.626 606.802 397.126 612.08 395.377 614.718C 393.627 617.357 393.627 617.357 395.412 618.762C 397.197 620.167 400.767 622.977 405.78 625.809C 410.793 628.64 417.249 631.493 431.342 633.437"/>
<path style="stroke:#000000; stroke-width:0.850394; stroke-linejoin:round; stroke-linecap:round; fill:none" d="M 431.342 558.94C 431.342 558.94 431.342 517.024 431.342 496.066C 431.342 475.107 431.342 475.107 431.342 475.107C 431.342 475.107 431.342 475.107 428.964 475.436C 426.585 475.764 421.828 476.42 417.273 477.718C 412.718 479.016 408.366 480.957 404.391 483.361C 400.417 485.766 396.821 488.634 395.023 490.068C 393.225 491.502 393.225 491.502 395.245 494.507C 397.266 497.512 401.307 503.521 404.509 510.153C 407.711 516.786 410.074 524.042 411.256 531.575C 412.438 539.109 412.438 546.922 412.438 550.828C 412.438 554.734 412.438 554.734 412.438 554.734C 412.438 554.734 412.438 554.734 412.438 554.739C 412.438 554.744 412.438 554.755 412.438 554.76C 412.438 554.766 412.438 554.766 412.438 554.766C 412.438 554.766 412.438 554.766 413.523 554.898C 414.608 555.03 416.778 555.295 419.443 555.78C 422.108 556.265 425.267 556.971 431.342 558.94"/>
<path style="stroke:#000000; stroke-width:0.850394; stroke-linejoin:round; stroke-linecap:round; fill:none" d="M 431.342 467.097C 431.342 467.097 431.342 441.065 431.342 428.049C 431.342 415.033 431.342 415.033 431.342 415.033C 431.342 415.033 431.342 415.033 429.529 416.977C 427.715 418.92 424.088 422.807 419.78 426.037C 415.472 429.267 410.482 431.839 405.197 433.363C 399.912 434.886 394.332 435.36 391.542 435.597C 388.752 435.833 388.752 435.833 388.59 438.057C 388.427 440.281 388.103 444.728 387.247 449.025C 386.39 453.323 385.003 457.471 383.212 461.342C 381.422 465.212 379.229 468.805 378.132 470.601C 377.035 472.397 377.035 472.397 377.729 473.052C 378.422 473.707 379.809 475.016 381.145 476.378C 382.482 477.74 383.769 479.155 385 480.616C 386.231 482.078 387.406 483.586 387.994 484.34C 388.581 485.094 388.581 485.094 390.596 483.497C 392.61 481.901 396.64 478.707 402.32 475.507C 408 472.308 415.33 469.101 431.342 467.097"/>
<path style="stroke:#000000; stroke-width:0.850394; stroke-linejoin:round; stroke-linecap:round; fill:none" d="M 431.342 201.085C 431.342 201.085 431.342 194.421 431.342 191.089C 431.342 187.756 431.342 187.756 431.342 187.756C 431.342 187.756 431.342 187.756 429.282 182.945C 427.222 178.134 423.103 168.512 416.307 160.334C 409.511 152.156 400.038 145.421 389.788 142.054C 379.538 138.687 368.511 138.687 362.997 138.687C 357.483 138.687 357.483 138.687 356.189 138.687C 354.894 138.687 352.304 138.687 349.757 138.873C 347.21 139.059 344.706 139.43 342.269 139.963C 339.832 140.495 337.463 141.189 336.279 141.535C 335.094 141.882 335.094 141.882 338.429 147.466C 341.763 153.05 348.433 164.217 360.611 175.567C 372.79 186.917 390.479 198.45 431.342 201.085"/>
<path style="stroke:#000000; stroke-width:0.850394; stroke-linejoin:round; stroke-linecap:round; fill:none" d="M 431.342 171.109C 431.342 171.109 431.342 90.4698 431.342 50.15C 431.342 9.8302 431.342 9.8302 431.342 9.8302C 431.342 9.8302 431.342 9.8302 431.342 9.8302C 431.342 9.8302 431.342 9.8302 415.85 9.8302C 400.357 9.8302 369.372 9.8302 353.879 9.8302C 338.387 9.8302 338.387 9.8302 338.387 9.8302C 338.387 9.8302 338.387 9.8302 336.207 13.0967C 334.028 16.3632 329.668 22.8961 326.216 30.0983C 322.763 37.3004 320.217 45.1717 318.944 53.3436C 317.671 61.5156 317.671 69.9881 317.671 74.2244C 317.671 78.4606 317.671 78.4606 317.671 81.8438C 317.671 85.2269 317.671 91.9932 318.483 98.5677C 319.295 105.142 320.919 111.525 323.168 117.529C 325.417 123.532 328.291 129.156 329.728 131.968C 331.165 134.78 331.165 134.78 332.55 134.343C 333.936 133.907 336.707 133.033 339.566 132.361C 342.425 131.688 345.372 131.217 348.373 130.982C 351.374 130.746 354.429 130.746 355.956 130.746C 357.483 130.746 357.483 130.746 362.633 130.746C 367.782 130.746 378.081 130.746 390.027 134.76C 401.972 138.774 415.564 146.802 431.342 171.109"/>
<path style="stroke:#000000; stroke-width:0.850394; stroke-linejoin:round; stroke-linecap:round; fill:none" d="M 329.042 9.83026C 329.042 9.83026 276.744 9.83026 250.595 9.8302C 224.446 9.8302 224.446 9.8302 224.446 9.8302C 224.446 9.8302 224.446 9.8302 227.032 12.6514C 229.618 15.4727 234.789 21.1151 238.957 27.712C 243.125 34.309 246.289 41.8604 247.871 49.7849C 249.453 57.7094 249.453 66.007 249.453 70.1559C 249.453 74.3047 249.453 74.3047 249.453 79.0072C 249.453 83.7097 249.453 93.1147 247.421 102.04C 245.389 110.966 241.325 119.412 236.07 126.532C 230.815 133.652 224.368 139.445 221.145 142.342C 217.922 145.239 217.922 145.239 219.611 144.684C 221.3 144.129 224.679 143.02 228.171 142.164C 231.663 141.309 235.268 140.708 238.943 140.407C 242.618 140.107 246.362 140.107 248.234 140.107C 250.105 140.107 250.105 140.107 253.085 140.107C 256.064 140.107 262.023 140.107 267.806 140.866C 273.589 141.626 279.197 143.145 284.451 145.242C 289.705 147.34 294.606 150.015 297.056 151.353C 299.507 152.691 299.507 152.691 300.699 151.641C 301.891 150.59 304.275 148.49 306.828 146.581C 309.382 144.672 312.104 142.955 314.949 141.475C 317.793 139.996 320.759 138.753 322.242 138.132C 323.725 137.511 323.725 137.511 322.243 134.554C 320.76 131.598 317.796 125.685 315.479 119.384C 313.161 113.084 311.491 106.396 310.655 99.5106C 309.82 92.6254 309.82 85.543 309.82 82.0018C 309.82 78.4606 309.82 78.4606 309.82 74.2656C 309.82 70.0706 309.82 61.6804 311.579 51.6085C 313.338 41.5366 316.856 29.7829 329.042 9.83026"/>
<path style="stroke:#000000; stroke-width:0.850394; stroke-linejoin:round; stroke-linecap:round; fill:none" d="M 213.291 9.83026C 213.291 9.83026 161.935 9.83026 136.257 9.8302C 110.58 9.8302 110.58 9.8302 110.58 9.8302C 110.58 9.8302 110.58 9.8302 112.996 13.2067C 115.413 16.5833 120.246 23.3363 124.088 30.8627C 127.929 38.389 130.78 46.6886 132.205 55.3242C 133.63 63.9598 133.63 72.9314 133.63 77.4172C 133.63 81.903 133.63 81.903 133.63 83.0096C 133.63 84.1163 133.63 86.3298 133.543 88.5222C 133.455 90.7145 133.28 92.8859 133.025 95.0308C 132.771 97.1757 132.437 99.2941 132.27 100.353C 132.103 101.412 132.103 101.412 137.358 101.486C 142.613 101.559 153.123 101.706 162.972 104.619C 172.822 107.533 182.01 113.212 189.179 120.283C 196.348 127.354 201.499 135.816 204.074 140.047C 206.649 144.278 206.649 144.278 210.182 141.639C 213.715 138.999 220.781 133.72 226.606 126.84C 232.432 119.96 237.016 111.478 239.308 102.455C 241.601 93.4324 241.601 83.869 241.601 79.0873C 241.601 74.3057 241.601 74.3057 241.601 70.0438C 241.601 65.782 241.601 57.2584 238.869 47.2483C 236.138 37.2382 230.675 25.7414 213.291 9.83026"/>
<path style="stroke:#000000; stroke-width:0.850394; stroke-linejoin:round; stroke-linecap:round; fill:none" d="M 100.703 9.83026C 100.703 9.83026 99.3166 9.83026 98.6235 9.8302C 97.9305 9.8302 97.9305 9.8302 97.9305 9.8302C 97.9305 9.8302 97.9305 9.8302 95.0336 12.4821C 92.1368 15.1339 86.3431 20.4376 81.6257 26.9219C 76.9083 33.4062 73.2673 41.071 71.4467 49.165C 69.6262 57.2591 69.6262 65.7823 69.6262 70.044C 69.6262 74.3057 69.6262 74.3057 69.6262 76.8948C 69.6262 79.4839 69.6262 84.6622 70.299 89.6816C 70.9718 94.701 72.3173 99.5616 74.1673 104.095C 76.0172 108.629 78.3715 112.836 79.5487 114.94C 80.7259 117.043 80.7259 117.043 82.8143 115.599C 84.9028 114.156 89.0798 111.268 93.6404 108.906C 98.201 106.544 103.145 104.709 108.286 103.588C 113.427 102.467 118.765 102.062 121.434 101.859C 124.102 101.657 124.102 101.657 124.286 100.587C 124.469 99.5168 124.835 97.3767 125.114 95.2073C 125.394 93.0378 125.586 90.8389 125.683 88.6166C 125.779 86.3943 125.779 84.1487 125.779 83.0258C 125.779 81.903 125.779 81.903 125.779 77.3566C 125.779 72.8102 125.779 63.7174 123.431 52.905C 121.083 42.0927 116.388 29.5609 100.703 9.83026"/>
<path style="stroke:#000000; stroke-width:0.850394; stroke-linejoin:round; stroke-linecap:round; fill:none" d="M 106.929 539.033C 111.879 539.033 114.281 539.349 116.246 539.704C 118.211 540.06 119.739 540.455 120.503 540.653C 121.267 540.85 121.267 540.85 121.261 541.003C 121.255 541.156 121.243 541.462 121.233 541.769C 121.224 542.076 121.217 542.385 121.213 542.693C 121.21 543.002 121.21 543.311 121.21 543.466C 121.21 543.62 121.21 543.62 121.21 548.415C 121.21 553.209 121.21 562.798 124.155 571.693C 127.099 580.589 132.989 588.79 140.093 594.549C 147.197 600.308 155.516 603.624 159.676 605.282C 163.835 606.94 163.835 606.94 163.681 607.881C 163.528 608.822 163.22 610.705 162.78 612.541C 162.339 614.378 161.765 616.169 161.077 617.893C 160.389 619.618 159.587 621.277 159.186 622.107C 158.785 622.936 158.785 622.936 156.71 619.657C 154.635 616.378 150.485 609.82 145.271 604.016C 140.057 598.212 133.78 593.163 126.93 589.368C 120.08 585.573 112.658 583.032 108.947 581.762C 105.236 580.492 105.236 580.492 105.367 579.636C 105.498 578.781 105.761 577.071 105.96 575.339C 106.159 573.607 106.295 571.854 106.363 570.085C 106.431 568.316 106.431 566.531 106.431 565.638C 106.431 564.745 106.431 564.745 106.431 563.273C 106.431 561.8 106.431 558.854 106.246 555.952C 106.061 553.049 105.691 550.191 105.158 547.399C 104.624 544.607 103.927 541.881 103.579 540.518C 103.231 539.155 103.231 539.155 103.435 539.142C 103.639 539.129 104.046 539.103 104.558 539.079C 105.07 539.055 105.685 539.033 106.929 539.033"/>
<path style="stroke:#000000; stroke-width:0.850394; stroke-linejoin:round; stroke-linecap:round; fill:none" d="M 129.063 543.487C 149.935 552.267 157.275 562.676 160.946 571.928C 164.616 581.179 164.616 589.273 164.616 593.32C 164.616 597.367 164.616 597.367 164.616 597.438C 164.616 597.51 164.616 597.654 164.615 597.797C 164.613 597.94 164.611 598.083 164.608 598.227C 164.606 598.37 164.602 598.512 164.601 598.584C 164.599 598.655 164.599 598.655 161.112 597.105C 157.625 595.555 150.651 592.454 144.728 587.38C 138.805 582.307 133.934 575.26 131.498 567.638C 129.062 560.016 129.062 551.82 129.062 547.722C 129.062 543.623 129.062 543.623 129.062 543.623C 129.062 543.623 129.062 543.623 129.063 543.589C 129.063 543.555 129.063 543.487 129.063 543.487"/>
<path style="stroke:#000000; stroke-width:0.850394; stroke-linejoin:round; stroke-linecap:round; fill:none" d="M 154.272 630.696C 143.849 645.808 135.188 650.753 127.591 653.226C 119.995 655.699 113.462 655.699 110.195 655.699C 106.929 655.699 106.929 655.699 104.636 655.699C 102.343 655.699 97.7572 655.699 93.359 654.886C 88.9608 654.074 84.7503 652.448 80.9923 650.28C 77.2344 648.112 73.9292 645.402 72.2766 644.047C 70.624 642.691 70.624 642.691 73.3238 640.383C 76.0237 638.075 81.4234 633.458 86.0945 627.998C 90.7657 622.537 94.7083 616.233 97.5224 609.487C 100.337 602.741 102.022 595.554 102.865 591.96C 103.708 588.366 103.708 588.366 107.277 589.634C 110.847 590.901 117.987 593.436 126.031 598.495C 134.075 603.554 143.024 611.138 154.272 630.696"/>
<path style="stroke:#000000; stroke-width:0.850394; stroke-linejoin:round; stroke-linecap:round; fill:none" d="M 64.838 637.244C 55.1686 626.813 52.2053 619.801 50.7237 613.724C 49.2421 607.648 49.2421 602.507 49.2421 599.937C 49.2421 597.367 49.2421 597.367 49.2421 596.692C 49.2421 596.017 49.2421 594.668 49.3103 593.335C 49.3785 592.002 49.5149 590.685 49.7125 589.391C 49.9102 588.096 50.1691 586.825 50.2985 586.189C 50.428 585.553 50.428 585.553 51.5996 585.273C 52.7713 584.992 55.1146 584.43 57.5082 584.001C 59.9018 583.572 62.3457 583.275 64.8241 583.126C 67.3026 582.978 69.8156 582.978 71.0721 582.978C 72.3286 582.978 72.3286 582.978 73.7018 582.978C 75.075 582.978 77.8214 582.978 80.5274 583.155C 83.2334 583.333 85.899 583.688 88.5023 584.198C 91.1057 584.709 93.6469 585.376 94.9174 585.71C 96.188 586.043 96.188 586.043 95.4094 589.445C 94.6307 592.846 93.0735 599.649 89.484 607.517C 85.8946 615.384 80.273 624.316 64.838 637.244"/>
<path style="stroke:#000000; stroke-width:0.850394; stroke-linejoin:round; stroke-linecap:round; fill:none" d="M 163.399 631.005C 167.224 624.452 168.596 620.815 169.517 617.706C 170.438 614.596 170.908 612.013 171.143 610.722C 171.378 609.43 171.378 609.43 172.289 609.672C 173.199 609.913 175.021 610.396 176.887 610.768C 178.753 611.139 180.664 611.398 182.605 611.527C 184.546 611.656 186.517 611.656 187.502 611.656C 188.488 611.656 188.488 611.656 189.372 611.656C 190.256 611.656 192.024 611.656 193.769 611.552C 195.513 611.448 197.233 611.24 198.918 610.939C 200.604 610.639 202.254 610.248 203.079 610.052C 203.904 609.856 203.904 609.856 204.723 611.327C 205.541 612.798 207.178 615.74 209.005 618.559C 210.832 621.379 212.85 624.074 215.024 626.614C 217.198 629.153 219.528 631.536 220.693 632.727C 221.858 633.919 221.858 633.919 220.632 635.514C 219.406 637.108 216.955 640.298 214.837 643.763C 212.719 647.228 210.936 650.969 209.594 654.877C 208.252 658.786 207.352 662.863 206.902 664.902C 206.453 666.94 206.453 666.94 206.051 666.915C 205.649 666.89 204.846 666.839 204.04 666.799C 203.234 666.76 202.426 666.732 201.613 666.718C 200.801 666.704 199.985 666.704 199.577 666.704C 199.169 666.704 199.169 666.704 197.757 666.704C 196.345 666.704 193.521 666.704 190.733 666.859C 187.945 667.014 185.193 667.325 182.493 667.774C 179.792 668.223 177.142 668.81 175.817 669.104C 174.492 669.398 174.492 669.398 174.289 667.107C 174.085 664.817 173.679 660.236 172.508 654.701C 171.336 649.167 169.4 642.68 163.399 631.005"/>
<path style="stroke:#000000; stroke-width:0.850394; stroke-linejoin:round; stroke-linecap:round; fill:none" d="M 172.339 601.466C 172.421 600.111 172.445 599.427 172.456 598.856C 172.468 598.285 172.468 597.826 172.468 597.596C 172.468 597.367 172.468 597.367 172.468 592.614C 172.468 587.86 172.468 578.354 169.497 569.548C 166.527 560.742 160.586 552.637 153.449 547.026C 146.313 541.416 137.982 538.301 133.816 536.744C 129.65 535.186 129.65 535.186 130.326 530.321C 131.002 525.456 132.355 515.725 137.164 507.116C 141.973 498.506 150.24 491.018 159.37 487.273C 168.501 483.529 178.496 483.529 183.493 483.529C 188.491 483.529 188.491 483.529 189.834 483.529C 191.178 483.529 193.866 483.529 196.491 483.8C 199.115 484.071 201.678 484.613 204.127 485.374C 206.577 486.136 208.913 487.117 210.082 487.607C 211.25 488.098 211.25 488.098 208.989 491.208C 206.728 494.318 202.205 500.538 198.607 507.489C 195.009 514.439 192.337 522.121 191 530.117C 189.664 538.112 189.664 546.423 189.664 550.578C 189.664 554.734 189.664 554.734 189.664 557.583C 189.664 560.432 189.664 566.131 190.293 571.681C 190.922 577.23 192.179 582.631 193.932 587.751C 195.685 592.871 197.933 597.71 199.058 600.13C 200.182 602.549 200.182 602.549 199.552 602.677C 198.922 602.805 197.662 603.06 196.381 603.255C 195.099 603.449 193.796 603.583 192.478 603.65C 191.159 603.717 189.825 603.717 189.158 603.717C 188.491 603.717 188.491 603.717 187.558 603.717C 186.625 603.717 184.759 603.717 182.471 603.521C 180.183 603.324 177.473 602.931 172.339 601.466"/>
<path style="stroke:#000000; stroke-width:0.850394; stroke-linejoin:round; stroke-linecap:round; fill:none" d="M 212.931 675.531C 257.77 681.353 275.85 698.297 286.509 714.096C 297.168 729.895 300.406 744.551 302.024 751.878C 303.643 759.206 303.643 759.206 302.764 759.404C 301.885 759.602 300.128 759.999 298.336 760.302C 296.544 760.605 294.718 760.816 292.867 760.921C 291.016 761.026 289.14 761.026 288.202 761.026C 287.264 761.026 287.264 761.026 280.367 761.026C 273.469 761.026 259.675 761.026 247.185 755.37C 234.694 749.714 223.508 738.402 217.915 725.772C 212.322 713.142 212.322 699.193 212.322 692.219C 212.322 685.245 212.322 685.245 212.322 684.696C 212.322 684.148 212.322 683.051 212.373 681.692C 212.425 680.332 212.528 678.711 212.931 675.531"/>
<path style="stroke:#000000; stroke-width:0.850394; stroke-linejoin:round; stroke-linecap:round; fill:none" d="M 92.6235 772.349C 96.8134 728.556 111.813 710.473 126.019 699.301C 140.225 688.128 153.637 683.866 160.343 681.735C 167.049 679.604 167.049 679.604 166.984 687.184C 166.92 694.764 166.792 709.924 158.793 726.985C 150.794 744.046 134.925 763.008 92.6235 772.349"/>
<path style="stroke:#000000; stroke-width:0.850394; stroke-linejoin:round; stroke-linecap:round; fill:none" d="M 387.631 612.137C 375.849 600.789 371.689 593.293 369.094 586.738C 366.499 580.183 365.467 574.568 364.951 571.761C 364.436 568.954 364.436 568.954 366.268 568.201C 368.1 567.448 371.764 565.943 375.6 564.776C 379.435 563.609 383.442 562.779 387.544 562.365C 391.646 561.95 395.844 561.95 397.943 561.95C 400.042 561.95 400.042 561.95 400.281 561.95C 400.521 561.95 401 561.95 401.478 561.956C 401.956 561.962 402.433 561.974 402.909 561.991C 403.384 562.008 403.858 562.03 404.095 562.041C 404.332 562.052 404.332 562.052 404.123 565.12C 403.913 568.189 403.494 574.327 401.791 581.671C 400.088 589.015 397.102 597.565 387.631 612.137"/>
<path style="stroke:#000000; stroke-width:0.850394; stroke-linejoin:round; stroke-linecap:round; fill:none" d="M 382.627 490.271C 365.776 506.294 360.513 517.669 357.881 527.561C 355.249 537.453 355.249 545.863 355.249 550.068C 355.249 554.273 355.249 554.273 355.249 554.829C 355.249 555.385 355.249 556.497 355.281 557.601C 355.312 558.705 355.375 559.801 355.466 560.889C 355.557 561.977 355.677 563.057 355.736 563.597C 355.796 564.136 355.796 564.136 352.72 565.628C 349.643 567.119 343.49 570.101 337.846 573.987C 332.203 577.874 327.069 582.664 322.78 588.017C 318.491 593.37 315.048 599.287 313.326 602.245C 311.604 605.203 311.604 605.203 310.321 604.805C 309.038 604.406 306.471 603.609 303.826 602.995C 301.181 602.382 298.456 601.953 295.682 601.738C 292.907 601.523 290.083 601.523 288.671 601.523C 287.259 601.523 287.259 601.523 283.3 601.523C 279.341 601.523 271.423 601.523 263.894 603.212C 256.365 604.9 249.224 608.277 243.137 612.668C 237.05 617.059 232.016 622.464 229.499 625.167C 226.982 627.869 226.982 627.869 225.999 626.851C 225.017 625.834 223.051 623.798 221.207 621.643C 219.363 619.487 217.641 617.21 216.066 614.837C 214.49 612.463 213.06 609.992 212.345 608.756C 211.63 607.521 211.63 607.521 215.923 605.93C 220.215 604.339 228.799 601.157 236.156 595.398C 243.512 589.638 249.641 581.301 252.706 572.242C 255.77 563.183 255.77 553.402 255.77 548.511C 255.77 543.62 255.77 543.62 255.77 539.515C 255.77 535.41 255.77 527.2 253.611 519.498C 251.451 511.796 247.133 504.602 241.741 499.015C 236.349 493.428 229.884 489.448 226.651 487.458C 223.419 485.468 223.419 485.468 224.205 484.567C 224.992 483.666 226.566 481.864 228.23 480.145C 229.894 478.426 231.649 476.789 233.48 475.25C 235.31 473.71 237.218 472.269 238.171 471.548C 239.125 470.827 239.125 470.827 241.453 474.841C 243.78 478.854 248.436 486.882 255.074 493.592C 261.713 500.302 270.334 505.696 279.577 508.393C 288.82 511.089 298.684 511.089 303.616 511.089C 308.549 511.089 308.549 511.089 312.899 511.089C 317.249 511.089 325.949 511.089 334.166 508.992C 342.382 506.894 350.114 502.698 356.429 497.352C 362.743 492.006 367.641 485.509 370.09 482.261C 372.538 479.012 372.538 479.012 373.142 479.596C 373.747 480.179 374.955 481.346 376.402 482.87C 377.849 484.394 379.535 486.276 382.627 490.271"/>
<path style="stroke:#000000; stroke-width:0.850394; stroke-linejoin:round; stroke-linecap:round; fill:none" d="M 357.093 572.345C 360.84 590.458 365.474 598.49 369.945 604.528C 374.417 610.567 378.725 614.612 380.88 616.634C 383.034 618.656 383.034 618.656 381.875 620.173C 380.717 621.69 378.4 624.724 375.842 627.561C 373.284 630.397 370.484 633.035 367.502 635.416C 364.519 637.797 361.353 639.92 359.769 640.982C 358.186 642.044 358.186 642.044 356.677 639.516C 355.167 636.987 352.148 631.931 348.358 627.398C 344.568 622.865 340.008 618.855 335.007 615.701C 330.006 612.547 324.564 610.249 321.843 609.1C 319.122 607.951 319.122 607.951 320.642 605.428C 322.163 602.905 325.204 597.858 330.015 592.24C 334.826 586.621 341.406 580.432 357.093 572.345"/>
<path style="stroke:#000000; stroke-width:0.850394; stroke-linejoin:round; stroke-linecap:round; fill:none" d="M 331.721 297.136C 299.925 286.273 288.477 271.065 282.753 257.493C 277.029 243.92 277.029 231.982 277.029 226.012C 277.029 220.043 277.029 220.043 277.029 216.298C 277.029 212.553 277.029 205.064 278.531 197.928C 280.033 190.792 283.036 184.011 286.966 178.166C 290.896 172.321 295.753 167.413 298.181 164.959C 300.609 162.505 300.609 162.505 305.189 165.363C 309.77 168.222 318.93 173.94 326.565 181.92C 334.199 189.9 340.307 200.143 343.362 211.105C 346.416 222.068 346.416 233.751 346.416 239.592C 346.416 245.434 346.416 245.434 346.416 248.6C 346.416 251.766 346.416 258.098 345.068 265.694C 343.721 273.291 341.026 282.152 331.721 297.136"/>
<path style="stroke:#000000; stroke-width:0.850394; stroke-linejoin:round; stroke-linecap:round; fill:none" d="M 353.263 309.235C 346.991 308.935 343.941 308.455 341.439 307.956C 338.937 307.457 336.983 306.939 336.005 306.68C 335.028 306.421 335.028 306.421 331.881 310.893C 328.735 315.366 322.441 324.31 314.127 331.7C 305.813 339.09 295.479 344.925 284.472 347.843C 273.465 350.761 261.785 350.761 255.945 350.761C 250.105 350.761 250.105 350.761 242.447 350.761C 234.789 350.761 219.473 350.761 205.314 345.742C 191.155 340.724 178.152 330.687 169.345 318.708C 160.539 306.729 155.929 292.807 153.624 285.846C 151.319 278.885 151.319 278.885 150.524 279.074C 149.73 279.264 148.142 279.643 146.528 279.957C 144.915 280.272 143.277 280.521 141.621 280.7C 139.964 280.88 138.289 280.989 137.451 281.043C 136.613 281.098 136.613 281.098 139.245 282.773C 141.877 284.449 147.142 287.801 151.638 292.272C 156.135 296.744 159.865 302.334 162.174 308.383C 164.483 314.431 165.37 320.938 165.814 324.191C 166.258 327.444 166.258 327.444 172.343 328.479C 178.428 329.514 190.597 331.585 201.32 337.973C 212.043 344.361 221.32 355.068 225.958 366.867C 230.596 378.667 230.596 391.56 230.596 398.007C 230.596 404.453 230.596 404.453 230.596 404.805C 230.596 405.156 230.596 405.859 230.582 406.558C 230.567 407.257 230.538 407.953 230.497 408.646C 230.455 409.338 230.401 410.027 230.374 410.371C 230.347 410.715 230.347 410.715 231.76 404.762C 233.174 398.809 236.001 386.902 242.714 376.522C 249.428 366.142 260.028 357.289 271.648 352.862C 283.268 348.435 295.909 348.435 302.229 348.435C 308.549 348.435 308.549 348.435 309.187 348.435C 309.824 348.435 311.1 348.435 312.365 348.481C 313.63 348.527 314.885 348.619 316.126 348.752C 317.367 348.885 318.594 349.06 319.208 349.147C 319.822 349.234 319.822 349.234 320.713 346.325C 321.603 343.415 323.384 337.595 327.328 331.083C 331.272 324.57 337.378 317.365 353.263 309.235"/>
<path style="stroke:#000000; stroke-width:0.850394; stroke-linejoin:round; stroke-linecap:round; fill:none" d="M 327.112 303.916C 293.306 291.391 281.241 274.977 275.208 260.349C 269.176 245.722 269.176 232.883 269.176 226.463C 269.176 220.043 269.176 220.043 269.176 216.067C 269.176 212.09 269.176 204.137 270.719 196.547C 272.262 188.958 275.348 181.732 279.405 175.449C 283.461 169.166 288.489 163.826 291.002 161.156C 293.516 158.485 293.516 158.485 291.342 157.373C 289.168 156.26 284.82 154.035 280.188 152.296C 275.556 150.556 270.641 149.302 265.58 148.674C 260.519 148.047 255.313 148.047 252.71 148.047C 250.106 148.047 250.106 148.047 247.885 148.047C 245.664 148.047 241.222 148.047 236.885 148.504C 232.548 148.96 228.316 149.873 224.276 151.154C 220.236 152.436 216.389 154.086 214.465 154.911C 212.541 155.736 212.541 155.736 213.318 157.557C 214.096 159.377 215.65 163.017 216.859 166.844C 218.068 170.67 218.932 174.683 219.363 178.797C 219.795 182.911 219.795 187.127 219.795 189.235C 219.795 191.343 219.795 191.343 219.795 197.97C 219.795 204.597 219.795 217.85 215.539 230.1C 211.284 242.35 202.773 253.596 192.62 261.198C 182.467 268.8 170.673 272.759 164.776 274.739C 158.878 276.719 158.878 276.719 161.027 283.124C 163.175 289.53 167.471 302.341 175.617 313.358C 183.762 324.375 195.757 333.597 208.813 338.209C 221.869 342.82 235.988 342.82 243.047 342.82C 250.106 342.82 250.106 342.82 255.353 342.82C 260.599 342.82 271.092 342.82 283.326 339C 295.561 335.179 309.538 327.538 327.112 303.916"/>
<path style="stroke:#000000; stroke-width:0.850394; stroke-linejoin:round; stroke-linecap:round; fill:none" d="M 130.849 109.342C 130.849 109.342 130.849 109.342 130.806 109.342C 130.763 109.342 130.677 109.342 130.08 111.798C 129.484 114.254 128.377 119.166 126.834 123.91C 125.291 128.654 123.312 133.23 120.984 137.552C 118.656 141.873 115.979 145.939 114.64 147.972C 113.301 150.005 113.301 150.005 115.384 151.198C 117.466 152.391 121.63 154.778 126.118 156.653C 130.607 158.529 135.419 159.893 140.389 160.575C 145.358 161.257 150.486 161.257 153.05 161.257C 155.613 161.257 155.613 161.257 158.329 161.257C 161.044 161.257 166.476 161.257 171.73 160.492C 176.984 159.728 182.061 158.198 186.765 156.107C 191.468 154.015 195.797 151.361 197.961 150.034C 200.126 148.706 200.126 148.706 197.752 144.772C 195.379 140.838 190.633 132.97 183.976 126.409C 177.32 119.848 168.753 114.595 159.58 111.969C 150.407 109.342 140.628 109.342 135.739 109.342C 130.849 109.342 130.849 109.342 130.849 109.342"/>
<path style="stroke:#000000; stroke-width:0.850394; stroke-linejoin:round; stroke-linecap:round; fill:none" d="M 343.931 734.829C 322.924 719.172 315.729 707.063 311.679 696.394C 307.629 685.725 306.723 676.496 306.27 671.882C 305.817 667.267 305.817 667.267 308.794 667.14C 311.771 667.013 317.726 666.758 323.498 665.794C 329.271 664.829 334.862 663.155 340.112 660.935C 345.361 658.715 350.269 655.949 352.723 654.566C 355.177 653.183 355.177 653.183 355.928 654.806C 356.679 656.429 358.181 659.674 359.352 663.108C 360.523 666.542 361.364 670.164 361.784 673.884C 362.205 677.605 362.205 681.425 362.205 683.335C 362.205 685.245 362.205 685.245 362.205 688.404C 362.205 691.564 362.205 697.884 360.482 705.377C 358.76 712.87 355.315 721.537 343.931 734.829"/>
<path style="stroke:#000000; stroke-width:0.850394; stroke-linejoin:round; stroke-linecap:round; fill:none" d="M 305.37 659.338C 305.361 658.793 305.356 658.522 305.353 658.295C 305.35 658.068 305.35 657.886 305.35 657.795C 305.35 657.703 305.35 657.703 305.35 655.142C 305.35 652.581 305.35 647.459 305.947 642.478C 306.545 637.497 307.74 632.658 309.398 628.093C 311.056 623.528 313.177 619.238 314.237 617.093C 315.297 614.947 315.297 614.947 317.822 615.978C 320.346 617.009 325.395 619.071 330.035 621.943C 334.675 624.815 338.906 628.497 342.413 632.671C 345.919 636.845 348.701 641.51 350.092 643.843C 351.483 646.175 351.483 646.175 349.192 647.47C 346.901 648.766 342.319 651.356 336.11 653.825C 329.901 656.295 322.065 658.644 305.37 659.338"/>
<path style="stroke:#000000; stroke-width:0.850394; stroke-linejoin:round; stroke-linecap:round; fill:none" d="M 297.518 659.369C 297.509 658.812 297.503 658.534 297.5 658.302C 297.497 658.07 297.497 657.884 297.497 657.791C 297.497 657.698 297.497 657.698 297.497 654.987C 297.497 652.277 297.497 646.857 298.115 641.582C 298.733 636.307 299.969 631.178 301.687 626.33C 303.405 621.482 305.606 616.916 306.706 614.632C 307.807 612.349 307.807 612.349 306.719 612.036C 305.631 611.723 303.455 611.097 301.219 610.616C 298.982 610.135 296.685 609.799 294.349 609.631C 292.013 609.463 289.638 609.463 288.451 609.463C 287.264 609.463 287.264 609.463 283.677 609.463C 280.091 609.463 272.917 609.463 266.097 610.993C 259.276 612.523 252.809 615.582 247.297 619.561C 241.785 623.54 237.228 628.438 234.949 630.887C 232.671 633.336 232.671 633.336 235.574 635.921C 238.477 638.505 244.282 643.674 252.837 648.68C 261.392 653.685 272.696 658.527 297.518 659.369"/>
<path style="stroke:#000000; stroke-width:0.850394; stroke-linejoin:round; stroke-linecap:round; fill:none" d="M 218.392 491.685C 236.047 502.105 241.983 511.784 244.951 520.317C 247.919 528.85 247.919 536.237 247.919 539.93C 247.919 543.623 247.919 543.623 247.919 548.009C 247.919 552.395 247.919 561.167 245.129 569.281C 242.338 577.394 236.758 584.85 230.085 589.933C 223.412 595.016 215.647 597.726 211.764 599.081C 207.882 600.437 207.882 600.437 206.775 598.135C 205.669 595.833 203.456 591.229 201.728 586.343C 200 581.457 198.758 576.289 198.136 570.974C 197.515 565.659 197.515 560.197 197.515 557.467C 197.515 554.736 197.515 554.736 197.515 550.79C 197.515 546.845 197.515 538.955 199.458 529.549C 201.401 520.144 205.287 509.224 218.392 491.685"/>
<path style="stroke:#000000; stroke-width:0.850394; stroke-linejoin:round; stroke-linecap:round; fill:none" d="M 188.488 475.589C 198.407 475.589 203.115 476.675 206.882 477.867C 210.649 479.06 213.475 480.36 214.888 481.01C 216.301 481.659 216.301 481.659 217.245 480.541C 218.19 479.423 220.078 477.187 222.093 475.063C 224.109 472.94 226.251 470.93 228.499 469.057C 230.747 467.183 233.1 465.446 234.276 464.578C 235.453 463.709 235.453 463.709 234.669 461.987C 233.886 460.265 232.318 456.821 231.097 453.183C 229.876 449.545 229.001 445.712 228.563 441.776C 228.125 437.84 228.125 433.8 228.125 431.78C 228.125 429.76 228.125 429.76 228.125 429.378C 228.125 428.996 228.125 428.232 228.142 427.472C 228.158 426.711 228.191 425.954 228.237 425.201C 228.284 424.448 228.345 423.7 228.376 423.326C 228.407 422.953 228.407 422.953 227.463 426.879C 226.519 430.805 224.631 438.658 220.982 445.815C 217.334 452.972 211.924 459.433 205.647 464.293C 199.369 469.154 192.225 472.414 188.653 474.044C 185.081 475.674 185.081 475.674 185.269 475.664C 185.458 475.655 185.834 475.636 186.306 475.619C 186.778 475.603 187.345 475.589 188.488 475.589"/>
<path style="stroke:#000000; stroke-width:0.850394; stroke-linejoin:round; stroke-linecap:round; fill:none" d="M 301.05 450.041C 325.943 450.041 337.363 454.486 346.05 459.176C 354.737 463.867 360.69 468.803 363.667 471.271C 366.644 473.739 366.644 473.739 364.437 476.715C 362.231 479.69 357.819 485.641 352.097 490.543C 346.375 495.445 339.343 499.297 331.867 501.223C 324.392 503.149 316.471 503.149 312.511 503.149C 308.551 503.149 308.551 503.149 304.065 503.149C 299.579 503.149 290.607 503.149 282.205 500.678C 273.803 498.207 265.969 493.265 259.964 487.125C 253.959 480.985 249.782 473.648 247.694 469.979C 245.605 466.311 245.605 466.311 248.277 464.594C 250.949 462.877 256.292 459.444 263.719 456.235C 271.146 453.025 280.656 450.041 301.05 450.041"/>
<path style="stroke:#000000; stroke-width:0.850394; stroke-linejoin:round; stroke-linecap:round; fill:none" d="M 301.048 442.101C 327.554 442.101 339.725 446.786 348.997 451.735C 358.27 456.684 364.644 461.897 367.831 464.503C 371.019 467.11 371.019 467.11 371.922 465.568C 372.826 464.027 374.632 460.945 376.115 457.645C 377.597 454.345 378.755 450.828 379.491 447.19C 380.227 443.551 380.542 439.791 380.699 437.911C 380.857 436.031 380.857 436.031 374.935 435.829C 369.012 435.626 357.168 435.221 346.503 430.098C 335.839 424.975 326.355 415.135 321.613 404.177C 316.871 393.218 316.871 381.141 316.871 375.102C 316.871 369.064 316.871 369.064 316.871 368.377C 316.871 367.69 316.871 366.315 316.933 364.955C 316.994 363.595 317.117 362.249 317.297 360.923C 317.476 359.597 317.711 358.292 317.829 357.639C 317.947 356.986 317.947 356.986 317.434 356.919C 316.922 356.851 315.897 356.717 314.862 356.615C 313.826 356.514 312.781 356.445 311.728 356.41C 310.674 356.376 309.612 356.376 309.081 356.376C 308.551 356.376 308.551 356.376 301.872 356.376C 295.193 356.376 281.835 356.376 269.74 361.853C 257.645 367.33 246.812 378.285 241.395 390.516C 235.979 402.747 235.979 416.255 235.979 423.009C 235.979 429.762 235.979 429.762 235.979 431.507C 235.979 433.251 235.979 436.74 236.34 440.143C 236.702 443.546 237.426 446.864 238.439 450.024C 239.452 453.185 240.753 456.188 241.404 457.69C 242.055 459.191 242.055 459.191 244.907 457.387C 247.758 455.582 253.461 451.972 261.367 448.602C 269.274 445.232 279.384 442.101 301.048 442.101"/>
<path style="stroke:#000000; stroke-width:0.850394; stroke-linejoin:round; stroke-linecap:round; fill:none" d="M 153.363 334.295C 155.256 334.295 156.193 334.333 156.97 334.378C 157.748 334.422 158.366 334.473 158.675 334.498C 158.984 334.524 158.984 334.524 158.987 334.631C 158.991 334.738 158.998 334.953 159.004 335.168C 159.01 335.383 159.015 335.597 159.018 335.813C 159.021 336.029 159.021 336.245 159.021 336.353C 159.021 336.461 159.021 336.461 159.021 341.747C 159.021 347.034 159.021 357.606 154.781 367.179C 150.542 376.753 142.063 385.327 132.596 389.614C 123.128 393.901 112.673 393.901 107.445 393.901C 102.217 393.901 102.217 393.901 101.23 393.901C 100.242 393.901 98.267 393.901 96.3275 393.747C 94.388 393.594 92.4842 393.287 90.6374 392.85C 88.7905 392.413 87.0005 391.845 86.1055 391.561C 85.2105 391.278 85.2105 391.278 86.2269 385.87C 87.2432 380.463 89.276 369.648 97.3412 358.106C 105.407 346.564 119.504 334.295 153.363 334.295"/>
<path style="stroke:#000000; stroke-width:0.850394; stroke-linejoin:round; stroke-linecap:round; fill:none" d="M 153.361 326.354C 154.976 326.354 155.777 326.382 156.442 326.412C 157.107 326.443 157.637 326.476 157.902 326.492C 158.167 326.509 158.167 326.509 157.391 322.013C 156.614 317.517 155.06 308.525 150.403 300.611C 145.747 292.696 137.987 285.859 129.439 282.44C 120.891 279.022 111.554 279.022 106.886 279.022C 102.217 279.022 102.217 279.022 96.9897 279.022C 91.7622 279.022 81.307 279.022 71.8399 283.309C 62.3728 287.596 53.8938 296.17 49.6543 305.743C 45.4148 315.316 45.4148 325.889 45.4148 331.175C 45.4148 336.461 45.4148 336.461 45.4148 340.273C 45.4148 344.085 45.4148 351.709 47.6198 358.812C 49.8248 365.916 54.2348 372.499 59.6295 377.331C 65.0242 382.163 71.4036 385.243 74.5933 386.783C 77.783 388.323 77.783 388.323 79.0083 382.425C 80.2336 376.527 82.6842 364.731 91.6717 352.188C 100.659 339.644 116.183 326.354 153.361 326.354"/>
<path style="stroke:#000000; stroke-width:0.850394; stroke-linejoin:round; stroke-linecap:round; fill:none" d="M 156.668 269.096C 154.797 261.519 154.298 257.557 154.049 254.216C 153.799 250.875 153.799 248.154 153.799 246.794C 153.799 245.434 153.799 245.434 153.799 239.188C 153.799 232.942 153.799 220.449 157.29 208.781C 160.782 197.112 167.764 186.267 176.371 178.13C 184.979 169.994 195.211 164.566 200.327 161.853C 205.443 159.139 205.443 159.139 206.14 160.787C 206.837 162.435 208.231 165.731 209.314 169.193C 210.398 172.655 211.17 176.284 211.556 180.004C 211.943 183.723 211.943 187.534 211.943 189.439C 211.943 191.344 211.943 191.344 211.943 197.37C 211.943 203.395 211.943 215.446 206.155 229.144C 200.367 242.842 188.791 258.188 156.668 269.096"/>
<path style="stroke:#000000; stroke-width:0.850394; stroke-linejoin:round; stroke-linecap:round; fill:none" d="M 0 1.88977C 0 1.88977 3.92566 1.88977 5.88848 1.88977C 7.85131 1.88977 7.85131 1.88977 7.85131 1.88977C 7.85131 1.88977 7.85131 1.88977 7.85131 1.88977C 7.85131 1.88977 7.85131 1.88977 78.4331 1.88977C 149.015 1.88977 290.178 1.88977 360.76 1.88977C 431.342 1.88977 431.342 1.88977 431.342 1.88977C 431.342 1.88977 431.342 1.88977 431.342 1.88977C 431.342 1.88977 431.342 1.88977 432.651 1.88977C 433.959 1.88977 436.577 1.88977 437.886 1.88977C 439.194 1.88977 439.194 1.88977 439.194 1.88977C 439.194 1.88977 439.194 1.88977 439.194 1.88977C 439.194 1.88977 439.194 1.88977 439.194 3.2132C 439.194 4.53662 439.194 7.18341 439.194 8.50684C 439.194 9.8302 439.194 9.8302 439.194 9.8302C 439.194 9.8302 439.194 9.8302 439.194 9.8302C 439.194 9.8302 439.194 9.8302 439.194 147.183C 439.194 284.537 439.194 559.243 439.194 696.596C 439.194 833.949 439.194 833.949 439.194 833.949C 439.194 833.949 439.194 833.949 439.194 833.949C 439.194 833.949 439.194 833.949 439.194 835.273C 439.194 836.596 439.194 839.243 439.194 840.566C 439.194 841.89 439.194 841.89 439.194 841.89C 439.194 841.89 439.194 841.89 439.194 841.89C 439.194 841.89 439.194 841.89 437.886 841.89C 436.577 841.89 433.959 841.89 432.651 841.89C 431.342 841.89 431.342 841.89 431.342 841.89C 431.342 841.89 431.342 841.89 431.342 841.89C 431.342 841.89 431.342 841.89 360.76 841.89C 290.178 841.89 149.015 841.89 78.4331 841.89C 7.85131 841.89 7.85131 841.89 7.85131 841.89C 7.85131 841.89 7.85131 841.89 7.85131 841.89C 7.85131 841.89 7.85131 841.89 6.54276 841.89C 5.23421 841.89 2.6171 841.89 1.30855 841.89C 0 841.89 0 841.89 0 841.89C 0 841.89 0 841.89 0 841.89C 0 841.89 0 841.89 0 840.566C 0 839.243 0 836.596 0 835.273C 0 833.949 0 833.949 0 833.949C 0 833.949 0 833.949 0 833.949C 0 833.949 0 833.949 0 696.596C 0 559.243 0 284.537 0 147.183C 0 9.8302 0 9.8302 0 9.8302C 0 9.8302 0 9.8302 0 9.8302C 0 9.8302 0 9.8302 0 7.84509C 0 5.85999 0 1.88977 0 1.88977"/>
<path style="stroke:#000000; stroke-width:0.850394; stroke-linejoin:round; stroke-linecap:round; fill:none" d="M 122.409 109.781L 121.728 112.416L 120.987 115.026L 120.188 117.61L 119.33 120.168L 118.415 122.699L 117.443 125.201L 116.416 127.675L 115.334 130.119L 114.198 132.532L 113.008 134.914L 111.766 137.264L 110.472 139.581L 109.127 141.865L 107.732 144.114L 106.222 145.473L 104.519 144.231L 102.848 142.948L 101.209 141.625L 99.6029 140.263L 98.0303 138.862L 96.4921 137.424L 94.989 135.949L 93.5216 134.437L 92.0907 132.89L 90.697 131.308L 89.3412 129.692L 88.0241 128.042L 86.7464 126.359L 85.5087 124.644L 85.4598 123.392L 86.5792 122.639L 87.7114 121.905L 88.8564 121.189L 90.0139 120.492L 91.1837 119.814L 92.3656 119.155L 93.5594 118.515L 94.7649 117.896L 95.9818 117.295L 97.21 116.715L 98.4493 116.156L 99.6994 115.616L 100.96 115.097L 102.231 114.6L 103.513 114.123L 104.804 113.667L 106.105 113.233L 107.416 112.821L 108.737 112.431L 110.066 112.063L 111.404 111.717L 112.751 111.394L 114.107 111.093L 115.471 110.816L 116.843 110.561L 118.224 110.331L 119.611 110.123L 121.007 109.94L 122.409 109.781z"/>
<path style="stroke:#000000; stroke-width:0.850394; stroke-linejoin:round; stroke-linecap:round; fill:none" d="M 102.065 152.224L 99.2955 155.707L 96.3969 159.078L 93.373 162.331L 90.2278 165.464L 86.9649 168.473L 83.5881 171.354L 80.1012 174.103L 76.5081 176.716L 72.8124 179.19L 69.0179 181.52L 65.1285 183.704L 61.1479 185.736L 57.0798 187.613L 52.9282 189.332L 49.7836 189.254L 50.0564 184.259L 50.62 179.348L 51.4656 174.529L 52.5845 169.811L 53.9682 165.204L 55.6078 160.715L 57.4948 156.354L 59.6205 152.129L 61.9762 148.05L 64.5533 144.124L 67.343 140.36L 70.3367 136.768L 73.5257 133.356L 76.9015 130.133L 78.9814 129.062L 79.6391 129.989L 80.3075 130.909L 80.9865 131.819L 81.6761 132.721L 82.3761 133.615L 83.0865 134.5L 83.8071 135.376L 84.5379 136.243L 85.2787 137.101L 86.0296 137.95L 86.7903 138.789L 87.5607 139.62L 88.3409 140.441L 89.1307 141.252L 89.93 142.054L 90.7386 142.846L 91.5566 143.629L 92.3839 144.401L 93.2202 145.164L 94.0656 145.917L 94.9199 146.659L 95.7831 147.392L 96.655 148.114L 97.5356 148.825L 98.4247 149.527L 99.3223 150.217L 100.228 150.897L 101.143 151.566L 102.065 152.224z"/>
<path style="stroke:#000000; stroke-width:0.850394; stroke-linejoin:round; stroke-linecap:round; fill:none" d="M 108.718 156.5L 107.321 158.315L 105.891 160.103L 104.43 161.864L 102.937 163.596L 101.412 165.299L 99.8566 166.974L 98.271 168.618L 96.6555 170.233L 95.0105 171.817L 93.3366 173.371L 91.6341 174.893L 89.9036 176.383L 88.1455 177.84L 86.3602 179.265L 84.5482 180.657L 82.7099 182.015L 80.8458 183.339L 78.9563 184.628L 77.042 185.882L 75.1031 187.101L 73.1403 188.284L 71.1539 189.43L 69.1444 190.54L 67.1122 191.612L 65.0579 192.646L 62.9817 193.643L 60.8843 194.6L 58.766 195.519L 56.6274 196.398L 54.4687 197.236L 52.2906 198.035L 50.0934 198.792L 50.2906 200.744L 50.5327 202.683L 50.8191 204.607L 51.1493 206.516L 51.5228 208.41L 51.9391 210.288L 52.3976 212.15L 52.8977 213.994L 53.439 215.821L 54.0209 217.63L 54.6428 219.42L 55.3043 221.191L 56.0048 222.942L 56.7437 224.673L 57.5205 226.383L 58.3347 228.072L 59.1858 229.738L 60.0731 231.383L 60.9962 233.004L 61.9546 234.602L 62.9476 236.175L 63.9748 237.724L 65.0356 239.248L 66.1295 240.746L 67.256 242.218L 68.4144 243.663L 69.6044 245.081L 70.8252 246.471L 72.0765 247.832L 73.3576 249.165L 74.668 250.468L 76.0073 251.74L 77.3747 252.983L 78.7699 254.194L 80.1923 255.373L 81.6413 256.52L 83.1164 257.634L 84.6171 258.715L 86.1428 259.763L 87.693 260.775L 89.2672 261.753L 90.8647 262.695L 92.4852 263.602L 94.128 264.471L 95.7926 265.304L 97.4785 266.099L 99.1851 266.855L 100.912 267.573L 102.658 268.252L 104.424 268.89L 106.208 269.489L 108.01 270.046L 109.83 270.562L 111.667 271.036L 113.52 271.468L 115.389 271.856L 117.273 272.2L 119.173 272.501L 121.086 272.757L 123.013 272.967L 124.954 273.132L 126.907 273.25L 127.888 273.291L 128.872 273.321L 129.859 273.339L 130.849 273.345L 132.024 273.337L 133.196 273.311L 134.363 273.269L 135.526 273.211L 136.684 273.136L 137.838 273.044L 138.988 272.936L 140.133 272.813L 141.273 272.673L 142.408 272.517L 143.538 272.345L 144.663 272.158L 145.783 271.955L 146.897 271.737L 148.006 271.503L 149.109 271.255L 148.734 269.701L 148.381 268.138L 148.052 266.567L 147.745 264.987L 147.462 263.399L 147.203 261.802L 146.967 260.198L 146.755 258.586L 146.567 256.967L 146.404 255.34L 146.265 253.706L 146.151 252.065L 146.062 250.417L 145.998 248.762L 145.96 247.101L 145.947 245.434L 145.957 243.929L 145.988 242.43L 146.04 240.936L 146.112 239.448L 146.205 237.965L 146.318 236.487L 146.45 235.016L 146.603 233.55L 146.775 232.09L 146.967 230.636L 147.179 229.189L 147.41 227.748L 147.66 226.314L 147.929 224.887L 148.217 223.466L 148.524 222.052L 148.85 220.646L 149.194 219.247L 149.556 217.855L 149.937 216.471L 150.336 215.095L 150.753 213.726L 151.187 212.366L 151.64 211.013L 152.109 209.669L 152.597 208.333L 153.101 207.006L 153.623 205.688L 154.162 204.378L 154.717 203.077L 155.29 201.786L 155.878 200.503L 156.484 199.23L 157.105 197.967L 157.743 196.713L 158.397 195.469L 159.067 194.235L 159.752 193.011L 160.453 191.798L 161.17 190.595L 161.902 189.402L 162.649 188.22L 163.411 187.048L 164.188 185.888L 164.98 184.738L 165.787 183.6L 166.608 182.474L 167.443 181.358L 168.293 180.254L 169.157 179.163L 170.035 178.082L 170.926 177.014L 171.831 175.959L 172.75 174.915L 173.682 173.884L 174.628 172.866L 175.586 171.86L 176.558 170.867L 177.542 169.887L 178.539 168.921L 179.549 167.967L 180.571 167.028L 181.606 166.101L 182.652 165.189L 181.041 165.663L 179.418 166.109L 177.783 166.526L 176.137 166.914L 174.48 167.272L 172.813 167.601L 171.135 167.9L 169.447 168.169L 167.749 168.407L 166.042 168.615L 164.325 168.791L 162.6 168.936L 160.865 169.05L 159.122 169.131L 157.371 169.18L 155.612 169.196L 154.014 169.183L 152.422 169.142L 150.837 169.075L 149.259 168.982L 147.688 168.862L 146.124 168.716L 144.567 168.545L 143.019 168.348L 141.478 168.125L 139.946 167.877L 138.421 167.605L 136.906 167.307L 135.399 166.986L 133.901 166.639L 132.412 166.269L 130.933 165.875L 129.464 165.457L 128.004 165.016L 126.554 164.552L 125.115 164.064L 123.686 163.554L 122.267 163.021L 120.86 162.466L 119.464 161.889L 118.079 161.29L 116.705 160.669L 115.343 160.026L 113.994 159.363L 112.656 158.678L 111.331 157.972L 110.018 157.246L 108.718 156.5"/>
<path style="stroke:#000000; stroke-width:0.850394; stroke-linejoin:round; stroke-linecap:round; fill:none" d="M 431.342 252.336L 431.342 252.328L 431.342 252.304L 431.342 252.265L 431.342 252.211L 431.342 252.143L 431.342 252.059L 431.342 251.961L 431.342 251.849L 431.342 251.723L 431.342 251.584L 431.342 251.431L 431.342 251.265L 431.342 251.086L 431.342 250.895L 431.342 250.691L 431.342 250.475L 431.342 250.247L 431.342 250.007L 431.342 249.756L 431.342 249.494L 431.342 249.221L 431.342 248.938L 431.342 248.644L 431.342 248.339L 431.342 248.025L 431.342 247.701L 431.342 247.026L 431.342 246.314L 431.342 245.569L 431.342 244.793L 431.342 243.986L 431.342 243.152L 431.342 242.292L 431.342 241.408L 431.342 240.503L 431.342 239.577L 431.342 238.634L 431.342 237.675L 431.342 236.702L 431.342 235.717L 431.342 234.722L 431.342 232.711L 431.342 230.684L 431.342 228.656L 431.342 226.645L 431.342 225.65L 431.342 224.665L 431.342 223.692L 431.342 222.733L 431.342 221.79L 431.342 220.865L 431.342 219.959L 431.342 219.075L 431.342 218.215L 431.342 217.381L 431.342 216.575L 431.342 215.798L 431.342 215.053L 431.342 214.342L 431.342 213.666L 431.342 213.342L 431.342 213.028L 431.342 212.724L 431.342 212.43L 431.342 212.146L 431.342 211.873L 431.342 211.611L 431.342 211.36L 431.342 211.12L 431.342 210.892L 431.342 210.676L 431.342 210.473L 431.342 210.281L 431.342 210.102L 431.342 209.936L 431.342 209.783L 431.342 209.644L 431.342 209.518L 431.342 209.406L 431.342 209.308L 431.342 209.225L 431.342 209.156L 431.342 209.102L 431.342 209.063L 431.342 209.04L 431.342 209.032L 429.27 208.889L 427.206 208.714L 425.152 208.507L 423.108 208.267L 421.073 207.995L 419.048 207.691L 417.034 207.356L 415.03 206.99L 413.037 206.593L 411.055 206.165L 409.085 205.706L 407.126 205.217L 405.179 204.699L 403.244 204.15L 401.321 203.572L 399.411 202.965L 397.514 202.329L 395.63 201.665L 393.759 200.972L 391.902 200.25L 390.059 199.501L 388.23 198.724L 386.415 197.92L 384.615 197.089L 382.829 196.231L 381.059 195.346L 379.305 194.435L 377.566 193.497L 375.842 192.534L 374.135 191.545L 372.445 190.531L 370.771 189.492L 369.114 188.428L 367.474 187.339L 365.851 186.226L 364.246 185.089L 362.659 183.928L 361.091 182.744L 359.54 181.536L 358.009 180.306L 356.496 179.052L 355.003 177.776L 353.529 176.478L 352.074 175.158L 350.64 173.815L 349.226 172.452L 347.832 171.067L 346.459 169.661L 345.107 168.235L 343.776 166.788L 342.467 165.321L 341.179 163.833L 339.913 162.327L 338.67 160.8L 337.449 159.255L 336.251 157.69L 335.076 156.107L 333.924 154.505L 332.795 152.886L 331.69 151.248L 330.61 149.593L 329.553 147.92L 328.521 146.23L 327.514 144.523L 326.097 145.115L 324.694 145.733L 323.305 146.377L 321.93 147.047L 320.57 147.742L 319.225 148.462L 317.895 149.207L 316.58 149.977L 315.281 150.771L 313.999 151.588L 312.732 152.43L 311.483 153.294L 310.251 154.182L 309.036 155.093L 307.838 156.026L 306.659 156.981L 307.994 157.87L 309.316 158.78L 310.622 159.71L 311.914 160.659L 313.191 161.628L 314.452 162.616L 315.698 163.623L 316.929 164.649L 318.143 165.693L 319.342 166.756L 320.524 167.837L 321.689 168.936L 322.838 170.052L 323.97 171.186L 325.085 172.337L 326.182 173.505L 327.262 174.69L 328.324 175.892L 329.368 177.11L 330.394 178.345L 331.401 179.595L 332.39 180.861L 333.36 182.143L 334.31 183.44L 335.242 184.752L 336.154 186.079L 337.046 187.42L 337.918 188.777L 338.771 190.147L 339.603 191.532L 340.414 192.93L 341.204 194.342L 341.974 195.767L 342.722 197.206L 343.449 198.657L 344.155 200.122L 344.838 201.599L 345.5 203.088L 346.139 204.589L 346.756 206.102L 347.35 207.627L 347.921 209.164L 348.469 210.711L 348.994 212.27L 349.495 213.84L 349.973 215.42L 350.426 217.01L 350.856 218.611L 351.261 220.222L 351.641 221.842L 351.997 223.472L 352.327 225.112L 352.633 226.76L 352.913 228.418L 353.167 230.084L 353.395 231.758L 353.598 233.441L 353.774 235.132L 353.923 236.83L 354.046 238.537L 354.142 240.25L 354.211 241.971L 354.252 243.699L 354.266 245.434L 354.25 247.278L 354.203 249.115L 354.126 250.944L 354.017 252.764L 353.878 254.576L 353.709 256.38L 353.51 258.174L 353.282 259.959L 353.024 261.735L 352.737 263.501L 352.421 265.257L 352.076 267.003L 351.703 268.738L 351.303 270.463L 350.874 272.176L 350.417 273.879L 349.934 275.569L 349.423 277.248L 348.885 278.915L 348.321 280.57L 347.731 282.212L 347.114 283.841L 346.472 285.457L 345.804 287.06L 345.111 288.649L 344.393 290.224L 343.651 291.786L 342.883 293.333L 342.092 294.865L 341.276 296.382L 340.437 297.885L 339.575 299.372L 340.657 299.613L 341.745 299.839L 342.839 300.051L 343.937 300.247L 345.041 300.429L 346.149 300.595L 347.263 300.746L 348.381 300.882L 349.503 301.002L 350.631 301.107L 351.763 301.196L 352.899 301.269L 354.039 301.326L 355.183 301.366L 356.331 301.391L 357.483 301.399L 359.03 301.385L 360.571 301.34L 362.103 301.267L 363.628 301.165L 365.146 301.035L 366.655 300.876L 368.155 300.689L 369.647 300.475L 371.131 300.233L 372.605 299.964L 374.069 299.668L 375.524 299.345L 376.969 298.996L 378.403 298.62L 379.828 298.219L 381.241 297.792L 382.643 297.34L 384.035 296.862L 385.414 296.36L 386.782 295.833L 388.138 295.282L 389.481 294.707L 390.812 294.108L 392.13 293.486L 393.435 292.84L 394.727 292.171L 396.005 291.48L 397.269 290.766L 398.519 290.03L 399.755 289.272L 400.976 288.492L 402.182 287.691L 403.373 286.869L 404.549 286.026L 405.708 285.162L 406.852 284.278L 407.98 283.374L 409.091 282.45L 410.185 281.506L 411.263 280.544L 412.323 279.562L 413.366 278.561L 414.39 277.542L 415.397 276.505L 416.386 275.449L 417.356 274.376L 418.307 273.286L 419.239 272.178L 420.151 271.054L 421.044 269.913L 421.918 268.755L 422.771 267.581L 423.603 266.392L 424.415 265.187L 425.206 263.966L 425.976 262.731L 426.725 261.48L 427.452 260.215L 428.156 258.936L 428.839 257.643L 429.499 256.336L 430.137 255.016L 430.751 253.682L 431.342 252.336"/>
<path style="stroke:#000000; stroke-width:0.850394; stroke-linejoin:round; stroke-linecap:round; fill:none" d="M 431.342 323.093L 431.342 323.054L 431.342 322.938L 431.342 322.748L 431.342 322.486L 431.342 322.154L 431.342 321.756L 431.342 321.293L 431.342 320.768L 431.342 320.184L 431.342 319.543L 431.342 318.847L 431.342 318.099L 431.342 317.302L 431.342 316.458L 431.342 315.569L 431.342 314.638L 431.342 313.668L 431.342 312.66L 431.342 311.617L 431.342 310.543L 431.342 308.307L 431.342 305.971L 431.342 303.557L 431.342 301.083L 431.342 296.037L 431.342 290.99L 431.342 288.516L 431.342 286.102L 431.342 283.767L 431.342 281.531L 431.342 280.456L 431.342 279.413L 431.342 278.406L 431.342 277.435L 431.342 276.504L 431.342 275.615L 431.342 274.771L 431.342 273.974L 431.342 273.226L 431.342 272.53L 431.342 271.889L 431.342 271.305L 431.342 270.78L 431.342 270.317L 431.342 269.919L 431.342 269.587L 431.342 269.325L 431.342 269.135L 431.342 269.019L 431.342 268.98L 430.423 270.366L 429.48 271.734L 428.512 273.083L 427.52 274.413L 426.505 275.723L 425.466 277.014L 424.404 278.285L 423.319 279.535L 422.211 280.765L 421.081 281.973L 419.93 283.16L 418.757 284.325L 417.563 285.468L 416.348 286.589L 415.112 287.687L 413.856 288.762L 412.581 289.814L 411.285 290.842L 409.971 291.845L 408.638 292.825L 407.285 293.78L 405.915 294.709L 404.527 295.614L 403.121 296.492L 401.698 297.345L 400.258 298.171L 398.801 298.971L 397.328 299.743L 395.838 300.489L 394.333 301.206L 392.813 301.896L 391.278 302.557L 392.746 302.756L 394.205 302.987L 395.652 303.25L 397.089 303.545L 398.514 303.871L 399.927 304.227L 401.328 304.614L 402.717 305.031L 404.092 305.477L 405.455 305.953L 406.804 306.458L 408.139 306.992L 409.459 307.553L 410.765 308.143L 412.056 308.76L 413.331 309.404L 414.59 310.074L 415.834 310.771L 417.061 311.494L 418.271 312.243L 419.463 313.017L 420.639 313.816L 421.796 314.639L 422.935 315.487L 424.055 316.358L 425.156 317.253L 426.238 318.171L 427.3 319.112L 428.341 320.074L 429.363 321.059L 430.363 322.066L 431.342 323.093"/>
<path style="stroke:#000000; stroke-width:0.850394; stroke-linejoin:round; stroke-linecap:round; fill:none" d="M 166.865 335.627L 168.352 335.941L 169.828 336.287L 171.291 336.665L 172.742 337.073L 174.179 337.513L 175.604 337.983L 177.014 338.483L 178.411 339.012L 179.793 339.571L 181.16 340.159L 182.513 340.775L 183.849 341.42L 185.17 342.092L 186.475 342.792L 187.762 343.518L 189.033 344.272L 190.287 345.052L 191.522 345.857L 192.74 346.688L 193.939 347.545L 195.119 348.426L 196.28 349.331L 197.421 350.261L 198.543 351.214L 199.644 352.191L 200.724 353.191L 201.783 354.213L 202.82 355.257L 203.836 356.323L 204.83 357.41L 205.801 358.519L 206.749 359.648L 207.674 360.797L 208.575 361.967L 209.451 363.156L 210.304 364.364L 211.132 365.591L 211.934 366.836L 212.711 368.1L 213.462 369.381L 214.187 370.679L 214.885 371.994L 215.556 373.326L 216.2 374.674L 216.815 376.038L 217.403 377.417L 217.962 378.811L 218.492 380.22L 218.993 381.644L 219.465 383.081L 219.906 384.531L 220.317 385.995L 220.697 387.472L 221.047 388.961L 221.364 390.462L 221.65 391.975L 221.904 393.499L 222.124 395.034L 222.312 396.58L 222.467 398.136L 222.588 399.702L 222.675 401.277L 222.727 402.861L 222.745 404.453L 222.722 406.264L 222.654 408.063L 222.542 409.851L 222.386 411.626L 222.187 413.388L 221.945 415.137L 221.661 416.871L 221.335 418.591L 220.968 420.296L 220.56 421.985L 220.112 423.658L 219.625 425.314L 219.099 426.953L 218.534 428.574L 217.931 430.177L 217.291 431.76L 216.615 433.324L 215.902 434.868L 215.153 436.391L 214.369 437.893L 213.551 439.373L 212.699 440.831L 211.813 442.266L 210.894 443.677L 209.942 445.065L 208.959 446.428L 207.945 447.766L 206.899 449.079L 205.824 450.365L 204.718 451.625L 203.584 452.857L 202.421 454.061L 201.23 455.237L 200.011 456.385L 198.765 457.502L 197.493 458.59L 196.196 459.647L 194.872 460.673L 193.524 461.667L 192.152 462.629L 190.756 463.558L 189.337 464.454L 187.895 465.316L 186.432 466.144L 184.946 466.936L 183.44 467.693L 181.913 468.414L 180.367 469.099L 178.801 469.746L 177.216 470.355L 175.613 470.926L 173.992 471.458L 172.355 471.951L 170.7 472.404L 169.03 472.816L 167.344 473.187L 165.643 473.517L 163.928 473.804L 162.198 474.049L 160.456 474.251L 158.7 474.408L 156.933 474.522L 155.153 474.59L 153.363 474.613L 151.572 474.59L 149.793 474.522L 148.025 474.408L 146.27 474.251L 144.527 474.049L 142.798 473.804L 141.083 473.517L 139.382 473.187L 137.696 472.816L 136.025 472.404L 134.371 471.951L 132.733 471.458L 131.113 470.926L 129.51 470.355L 127.925 469.746L 126.359 469.099L 124.812 468.414L 123.286 467.693L 121.779 466.936L 120.294 466.144L 118.83 465.316L 117.389 464.454L 115.97 463.558L 114.574 462.629L 113.201 461.667L 111.853 460.673L 110.53 459.647L 109.232 458.59L 107.96 457.502L 106.715 456.385L 105.496 455.237L 104.305 454.061L 103.142 452.857L 102.007 451.625L 100.902 450.365L 99.8265 449.079L 98.7812 447.766L 97.7666 446.428L 96.7834 445.065L 95.832 443.677L 94.9131 442.266L 94.0271 440.831L 93.1747 439.373L 92.3563 437.893L 91.5725 436.391L 90.8239 434.868L 90.111 433.324L 89.4343 431.76L 88.7944 430.177L 88.1918 428.574L 87.6271 426.953L 87.1008 425.314L 86.6135 423.658L 86.1657 421.985L 85.758 420.296L 85.3909 418.591L 85.0649 416.871L 84.7806 415.137L 84.5385 413.388L 84.3393 411.626L 84.1833 409.851L 84.0713 408.063L 84.0037 406.264L 83.981 404.453L 83.9934 403.145L 84.03 401.842L 84.0898 400.545L 84.172 399.254L 85.2497 399.56L 86.3349 399.848L 87.4274 400.117L 88.527 400.368L 89.6335 400.599L 90.7468 400.812L 91.8666 401.005L 92.993 401.178L 94.1256 401.332L 95.2643 401.466L 96.409 401.58L 97.5594 401.673L 98.7154 401.746L 99.8768 401.799L 101.044 401.831L 102.215 401.841L 103.884 401.82L 105.542 401.756L 107.189 401.65L 108.825 401.504L 110.449 401.316L 112.06 401.088L 113.659 400.82L 115.244 400.512L 116.815 400.167L 118.372 399.782L 119.913 399.36L 121.44 398.901L 122.95 398.405L 124.444 397.873L 125.92 397.305L 127.38 396.702L 128.821 396.064L 130.244 395.392L 131.647 394.687L 133.031 393.948L 134.396 393.177L 135.739 392.374L 137.062 391.539L 138.362 390.673L 139.641 389.776L 140.897 388.85L 142.131 387.894L 143.34 386.909L 144.525 385.895L 145.686 384.853L 146.822 383.784L 147.932 382.688L 149.016 381.566L 150.073 380.417L 151.103 379.244L 152.105 378.045L 153.08 376.822L 154.025 375.575L 154.941 374.305L 155.828 373.011L 156.684 371.696L 157.51 370.359L 158.304 369L 159.067 367.621L 159.797 366.221L 160.495 364.802L 161.159 363.363L 161.79 361.906L 162.386 360.43L 162.948 358.937L 163.474 357.426L 163.965 355.899L 164.419 354.356L 164.836 352.797L 165.216 351.223L 165.558 349.634L 165.862 348.031L 166.127 346.415L 166.353 344.786L 166.538 343.144L 166.684 341.489L 166.788 339.824L 166.851 338.147L 166.872 336.46L 166.865 335.627"/>
<path style="stroke:#000000; stroke-width:0.850394; stroke-linejoin:round; stroke-linecap:round; fill:none" d="M 431.342 402.429L 431.342 402.422L 431.342 402.401L 431.342 402.368L 431.342 402.321L 431.342 402.26L 431.342 402.187L 431.342 402.101L 431.342 402.003L 431.342 401.892L 431.342 401.768L 431.342 401.633L 431.342 401.486L 431.342 401.326L 431.342 401.155L 431.342 400.973L 431.342 400.779L 431.342 400.574L 431.342 400.359L 431.342 399.895L 431.342 399.388L 431.342 398.841L 431.342 398.255L 431.342 397.63L 431.342 396.968L 431.342 396.271L 431.342 395.539L 431.342 394.774L 431.342 393.978L 431.342 393.151L 431.342 392.295L 431.342 391.41L 431.342 390.5L 431.342 389.563L 431.342 388.603L 431.342 387.62L 431.342 386.616L 431.342 385.591L 431.342 384.547L 431.342 383.486L 431.342 382.409L 431.342 381.316L 431.342 380.21L 431.342 379.091L 431.342 376.822L 431.342 374.518L 431.342 372.189L 431.342 367.502L 431.342 365.164L 431.342 362.843L 431.342 360.549L 431.342 358.293L 431.342 357.183L 431.342 356.085L 431.342 355.003L 431.342 353.936L 431.342 352.886L 431.342 351.855L 431.342 350.844L 431.342 349.854L 431.342 348.886L 431.342 347.941L 431.342 347.022L 431.342 346.129L 431.342 345.263L 431.342 344.426L 431.342 343.619L 431.342 342.844L 431.342 342.101L 431.342 341.392L 431.342 340.718L 431.342 340.081L 431.342 339.481L 431.342 338.921L 431.342 338.401L 431.342 337.923L 431.342 337.7L 431.342 337.488L 431.342 337.286L 431.342 337.096L 431.342 336.918L 431.342 336.751L 431.342 336.596L 431.342 336.452L 431.342 336.321L 431.342 336.202L 431.342 336.095L 431.342 336L 431.342 335.919L 431.342 335.85L 431.342 335.794L 431.342 335.751L 431.342 335.722L 431.342 335.706L 431.342 335.703L 431.342 335.703L 431.338 335.697L 431.327 335.68L 431.28 335.612L 431.094 335.34L 430.335 334.263L 429.552 333.205L 428.747 332.165L 427.919 331.144L 427.07 330.142L 426.199 329.159L 425.307 328.197L 424.394 327.255L 423.46 326.333L 422.507 325.433L 421.534 324.554L 420.541 323.697L 419.53 322.862L 418.5 322.05L 417.451 321.26L 416.385 320.494L 415.302 319.752L 414.201 319.034L 413.083 318.34L 411.95 317.671L 410.8 317.028L 409.634 316.41L 408.453 315.817L 407.258 315.252L 406.048 314.712L 404.823 314.2L 403.585 313.716L 402.333 313.259L 401.069 312.831L 399.792 312.431L 398.502 312.06L 397.2 311.718L 395.887 311.406L 394.563 311.124L 393.228 310.872L 391.882 310.652L 390.526 310.462L 389.161 310.304L 387.786 310.179L 386.402 310.085L 385.01 310.024L 383.609 309.996L 383.258 309.994L 383.17 309.994L 383.064 309.994L 382.837 309.995L 381.928 310.007L 381.022 310.032L 380.12 310.072L 379.222 310.125L 378.327 310.192L 377.436 310.272L 376.549 310.366L 375.666 310.474L 374.787 310.594L 373.912 310.728L 373.042 310.874L 372.176 311.034L 371.314 311.206L 370.457 311.391L 369.605 311.589L 368.757 311.799L 367.915 312.022L 367.077 312.257L 366.244 312.504L 365.417 312.763L 364.595 313.035L 363.778 313.318L 362.967 313.613L 362.161 313.92L 361.361 314.238L 360.567 314.568L 359.779 314.909L 358.997 315.262L 358.221 315.626L 357.451 316.001L 356.687 316.387L 355.93 316.783L 355.179 317.191L 354.435 317.609L 353.698 318.038L 352.967 318.478L 352.243 318.927L 351.527 319.387L 350.817 319.858L 350.115 320.338L 349.42 320.828L 348.732 321.328L 348.052 321.838L 347.379 322.358L 346.714 322.887L 346.057 323.426L 345.408 323.974L 344.767 324.531L 344.134 325.097L 343.509 325.673L 342.893 326.257L 342.285 326.851L 341.685 327.453L 341.094 328.064L 340.512 328.683L 339.938 329.311L 339.374 329.947L 338.818 330.591L 338.272 331.244L 337.735 331.904L 337.207 332.573L 336.688 333.249L 336.179 333.933L 335.68 334.625L 335.19 335.324L 334.711 336.031L 334.241 336.745L 333.781 337.466L 333.331 338.195L 332.892 338.93L 332.462 339.672L 332.044 340.421L 331.635 341.177L 331.238 341.94L 330.851 342.709L 330.475 343.484L 330.11 344.266L 329.755 345.054L 329.412 345.848L 329.081 346.648L 328.76 347.454L 328.451 348.266L 328.154 349.084L 327.868 349.907L 327.594 350.735L 328.807 351.044L 330.014 351.371L 331.213 351.716L 332.404 352.08L 333.588 352.461L 334.763 352.861L 335.93 353.278L 337.089 353.713L 338.24 354.165L 339.381 354.634L 340.514 355.121L 341.638 355.624L 342.753 356.145L 343.859 356.681L 344.956 357.235L 346.042 357.804L 347.119 358.39L 348.186 358.992L 349.243 359.609L 350.29 360.243L 351.327 360.891L 352.353 361.555L 353.368 362.235L 354.373 362.929L 355.366 363.638L 356.349 364.362L 357.32 365.1L 358.279 365.853L 359.227 366.62L 360.164 367.402L 361.088 368.197L 362 369.005L 362.9 369.828L 363.788 370.664L 364.663 371.513L 365.525 372.375L 366.375 373.251L 367.211 374.139L 368.034 375.039L 368.844 375.953L 369.641 376.878L 370.424 377.816L 371.193 378.766L 371.948 379.727L 372.688 380.701L 373.415 381.686L 374.127 382.682L 374.825 383.689L 375.508 384.708L 376.175 385.737L 376.828 386.777L 377.466 387.828L 378.088 388.889L 378.695 389.961L 379.286 391.042L 379.861 392.134L 380.42 393.235L 380.963 394.346L 381.49 395.467L 382 396.597L 382.493 397.736L 382.97 398.883L 383.43 400.04L 383.873 401.206L 384.298 402.38L 384.706 403.562L 385.097 404.753L 385.469 405.951L 385.824 407.158L 386.161 408.372L 386.479 409.594L 386.78 410.823L 387.061 412.06L 387.324 413.303L 387.568 414.554L 387.793 415.811L 387.999 417.075L 388.186 418.346L 388.353 419.622L 388.501 420.905L 388.629 422.194L 388.737 423.489L 388.825 424.789L 388.892 426.095L 388.939 427.406L 388.948 427.735L 388.95 427.817L 388.95 427.838L 388.954 427.844L 388.964 427.843L 389.002 427.839L 389.157 427.823L 389.774 427.756L 391.002 427.602L 392.222 427.423L 393.434 427.218L 394.637 426.988L 395.832 426.734L 397.017 426.455L 398.193 426.152L 399.359 425.825L 400.516 425.474L 401.662 425.1L 402.798 424.703L 403.923 424.283L 405.037 423.84L 406.14 423.375L 407.231 422.888L 408.311 422.38L 409.378 421.85L 410.433 421.298L 411.475 420.726L 412.505 420.133L 413.521 419.52L 414.524 418.887L 415.513 418.234L 416.489 417.562L 417.45 416.87L 418.396 416.159L 419.328 415.429L 420.244 414.682L 421.145 413.915L 422.031 413.131L 422.901 412.33L 423.754 411.511L 424.592 410.675L 425.412 409.822L 426.215 408.953L 427.002 408.067L 427.77 407.166L 428.521 406.249L 429.254 405.316L 429.969 404.368L 430.665 403.406L 431.342 402.429"/>
<path style="stroke:#000000; stroke-width:0.850394; stroke-linejoin:round; stroke-linecap:round; fill:none" d="M 381.104 428.096L 378.187 427.921L 375.311 427.604L 372.477 427.148L 369.691 426.557L 366.955 425.833L 364.273 424.981L 361.648 424.003L 359.084 422.904L 356.584 421.687L 354.152 420.354L 351.791 418.911L 349.504 417.36L 347.295 415.704L 345.168 413.948L 343.125 412.094L 341.171 410.147L 339.309 408.109L 337.541 405.984L 335.873 403.776L 334.306 401.488L 332.845 399.123L 331.493 396.686L 330.253 394.179L 329.129 391.606L 328.125 388.971L 327.243 386.276L 326.488 383.526L 325.862 380.724L 325.369 377.873L 325.013 374.978L 324.796 372.04L 324.723 369.065L 324.784 366.358L 324.963 363.682L 325.259 361.039L 325.668 358.434L 328.579 359.211L 331.441 360.106L 334.251 361.116L 337.006 362.238L 339.705 363.47L 342.343 364.808L 344.919 366.25L 347.43 367.793L 349.873 369.434L 352.245 371.172L 354.544 373.002L 356.767 374.923L 358.911 376.931L 360.974 379.024L 362.953 381.199L 364.844 383.453L 366.647 385.784L 368.357 388.189L 369.972 390.666L 371.489 393.21L 372.907 395.821L 374.221 398.494L 375.429 401.228L 376.529 404.019L 377.518 406.866L 378.394 409.764L 379.152 412.712L 379.792 415.706L 380.31 418.744L 380.703 421.824L 380.968 424.942L 381.104 428.096"/>
<path style="stroke:#000000; stroke-width:0.850394; stroke-linejoin:round; stroke-linecap:round; fill:none" d="M 363.367 560.841L 363.338 560.476L 363.311 560.111L 363.286 559.745L 363.262 559.38L 363.24 559.013L 363.219 558.647L 363.2 558.279L 363.183 557.912L 363.167 557.544L 363.153 557.175L 363.14 556.806L 363.13 556.437L 363.12 556.067L 363.113 555.697L 363.107 555.327L 363.103 554.955L 363.101 554.584L 363.103 553.642L 363.219 549.871L 363.505 546.147L 363.957 542.472L 364.572 538.851L 365.346 535.287L 366.276 531.785L 367.356 528.348L 368.583 524.98L 369.954 521.685L 371.465 518.467L 373.111 515.33L 374.889 512.277L 376.795 509.313L 378.826 506.441L 380.976 503.666L 383.243 500.991L 385.623 498.42L 387.873 497.691L 389.624 500.507L 391.288 503.382L 392.864 506.315L 394.349 509.303L 395.741 512.344L 397.039 515.438L 398.241 518.581L 399.345 521.772L 400.348 525.009L 401.25 528.29L 402.049 531.614L 402.741 534.978L 403.327 538.38L 403.803 541.819L 404.168 545.293L 404.42 548.799L 404.557 552.336L 404.455 554.111L 404.201 554.1L 403.947 554.09L 403.693 554.08L 403.439 554.071L 403.185 554.063L 402.93 554.055L 402.676 554.048L 402.421 554.041L 402.166 554.035L 401.911 554.03L 401.656 554.025L 401.4 554.021L 401.145 554.017L 400.889 554.014L 400.633 554.012L 400.377 554.011L 400.121 554.01L 399.312 554.013L 398.229 554.026L 397.148 554.051L 396.07 554.086L 394.995 554.134L 393.922 554.192L 392.853 554.261L 391.787 554.341L 390.723 554.432L 389.663 554.534L 388.606 554.647L 387.552 554.771L 386.501 554.906L 385.454 555.051L 384.41 555.207L 383.37 555.374L 382.333 555.551L 381.299 555.738L 380.269 555.936L 379.243 556.144L 378.221 556.363L 377.202 556.592L 376.187 556.831L 375.176 557.08L 374.169 557.339L 373.166 557.608L 372.167 557.888L 371.172 558.177L 370.181 558.476L 369.195 558.785L 368.212 559.103L 367.235 559.432L 366.261 559.769L 365.292 560.117L 364.327 560.474L 363.367 560.841z"/>
<path style="stroke:#000000; stroke-width:0.850394; stroke-linejoin:round; stroke-linecap:round; fill:none" d="M 311.218 757.064L 310.837 755.421L 310.432 753.787L 310.005 752.162L 309.555 750.547L 309.083 748.941L 308.589 747.345L 308.072 745.759L 307.534 744.183L 306.974 742.617L 306.393 741.062L 305.791 739.518L 305.167 737.984L 304.523 736.462L 303.857 734.95L 303.171 733.451L 302.465 731.962L 301.739 730.486L 300.993 729.022L 299.441 726.129L 297.811 723.287L 296.104 720.497L 294.323 717.759L 292.468 715.077L 290.541 712.45L 288.544 709.88L 286.477 707.369L 284.343 704.919L 282.142 702.531L 279.877 700.206L 277.548 697.945L 275.157 695.751L 272.706 693.625L 270.196 691.567L 267.628 689.581L 265.004 687.666L 262.326 685.825L 259.594 684.059L 256.81 682.369L 255.4 681.554L 253.977 680.758L 252.541 679.982L 251.094 679.226L 249.635 678.49L 248.164 677.775L 246.681 677.08L 245.187 676.406L 243.683 675.753L 242.167 675.12L 240.64 674.51L 239.103 673.921L 237.555 673.353L 235.997 672.808L 234.43 672.284L 232.852 671.783L 231.264 671.304L 229.668 670.848L 228.061 670.414L 226.446 670.004L 224.822 669.616L 223.188 669.252L 221.547 668.912L 219.897 668.595L 218.238 668.302L 216.572 668.033L 214.898 667.788L 214.478 667.731L 214.373 667.717L 214.339 667.708L 214.341 667.697L 214.352 667.651L 214.395 667.468L 214.573 666.736L 214.95 665.28L 215.354 663.837L 215.786 662.405L 216.245 660.985L 216.731 659.577L 217.243 658.183L 217.781 656.801L 218.345 655.433L 218.935 654.079L 219.55 652.738L 220.189 651.412L 220.854 650.1L 221.543 648.804L 222.255 647.522L 222.992 646.256L 223.752 645.006L 224.535 643.773L 225.34 642.555L 226.168 641.354L 227.019 640.171L 227.452 639.586L 227.561 639.44L 227.589 639.404L 227.596 639.395L 227.612 639.404L 227.653 639.441L 227.819 639.588L 228.487 640.173L 229.836 641.328L 231.204 642.461L 232.59 643.572L 233.993 644.662L 235.413 645.729L 236.851 646.775L 238.306 647.797L 239.778 648.797L 241.265 649.773L 242.77 650.726L 244.29 651.655L 245.825 652.561L 247.377 653.442L 248.943 654.299L 250.524 655.131L 252.12 655.938L 253.731 656.72L 255.355 657.476L 256.994 658.207L 258.646 658.912L 260.311 659.59L 261.99 660.242L 263.682 660.867L 265.386 661.466L 267.103 662.037L 268.831 662.58L 270.572 663.096L 272.325 663.584L 274.088 664.043L 275.863 664.474L 277.649 664.876L 279.446 665.249L 281.252 665.593L 283.069 665.907L 284.896 666.191L 286.733 666.446L 288.579 666.67L 290.434 666.863L 292.297 667.025L 294.17 667.157L 296.051 667.257L 297.94 667.325L 298.152 669.423L 298.405 671.507L 298.699 673.579L 299.033 675.638L 299.407 677.682L 299.82 679.713L 300.273 681.729L 300.763 683.729L 301.292 685.714L 301.859 687.684L 302.462 689.637L 303.103 691.573L 303.78 693.492L 304.493 695.394L 305.242 697.277L 306.025 699.142L 306.844 700.989L 307.697 702.816L 308.584 704.623L 309.504 706.41L 310.458 708.177L 311.444 709.922L 312.462 711.647L 313.513 713.349L 314.595 715.029L 315.707 716.687L 316.851 718.322L 318.024 719.933L 319.227 721.52L 320.46 723.082L 321.722 724.62L 323.012 726.133L 324.33 727.621L 325.676 729.082L 327.049 730.517L 328.449 731.924L 329.875 733.305L 331.328 734.658L 332.806 735.983L 334.309 737.279L 335.837 738.546L 337.389 739.784L 338.174 740.392L 338.372 740.542L 338.421 740.58L 338.436 740.594L 338.432 740.598L 338.415 740.614L 338.347 740.678L 338.074 740.934L 336.971 741.943L 335.849 742.931L 334.707 743.896L 333.546 744.838L 332.366 745.757L 331.168 746.653L 329.952 747.526L 328.718 748.374L 327.467 749.198L 326.199 749.997L 324.914 750.771L 323.613 751.52L 322.295 752.243L 320.962 752.94L 319.613 753.611L 318.25 754.255L 316.872 754.873L 315.479 755.462L 314.072 756.024L 312.652 756.558L 311.218 757.064"/>
<path style="stroke:#000000; stroke-width:0.850394; stroke-linejoin:round; stroke-linecap:round; fill:none" d="M 302.399 833.949L 302.402 833.949L 302.413 833.949L 302.43 833.949L 302.453 833.949L 302.483 833.949L 302.52 833.949L 302.563 833.949L 302.613 833.949L 302.669 833.949L 302.731 833.949L 302.8 833.949L 302.875 833.949L 302.956 833.949L 303.044 833.949L 303.137 833.949L 303.236 833.949L 303.342 833.949L 303.453 833.949L 303.57 833.949L 303.693 833.949L 303.822 833.949L 303.956 833.949L 304.096 833.949L 304.242 833.949L 304.393 833.949L 304.55 833.949L 304.88 833.949L 305.231 833.949L 305.603 833.949L 305.995 833.949L 306.407 833.949L 306.839 833.949L 307.291 833.949L 307.761 833.949L 308.249 833.949L 308.755 833.949L 309.279 833.949L 309.82 833.949L 310.378 833.949L 310.951 833.949L 311.541 833.949L 312.146 833.949L 312.765 833.949L 313.4 833.949L 314.048 833.949L 314.71 833.949L 315.385 833.949L 316.073 833.949L 316.774 833.949L 317.486 833.949L 318.21 833.949L 318.945 833.949L 319.69 833.949L 320.446 833.949L 321.212 833.949L 321.987 833.949L 322.771 833.949L 323.564 833.949L 324.364 833.949L 325.173 833.949L 325.988 833.949L 326.811 833.949L 327.639 833.949L 328.474 833.949L 329.314 833.949L 331.01 833.949L 332.723 833.949L 334.449 833.949L 336.185 833.949L 339.676 833.949L 343.166 833.949L 344.902 833.949L 346.629 833.949L 348.341 833.949L 350.037 833.949L 350.877 833.949L 351.712 833.949L 352.541 833.949L 353.363 833.949L 354.179 833.949L 354.987 833.949L 355.788 833.949L 356.58 833.949L 357.364 833.949L 358.139 833.949L 358.905 833.949L 359.661 833.949L 360.406 833.949L 361.141 833.949L 361.865 833.949L 362.578 833.949L 363.278 833.949L 363.966 833.949L 364.641 833.949L 365.303 833.949L 365.952 833.949L 366.586 833.949L 367.206 833.949L 367.81 833.949L 368.4 833.949L 368.974 833.949L 369.531 833.949L 370.072 833.949L 370.596 833.949L 371.102 833.949L 371.59 833.949L 372.06 833.949L 372.512 833.949L 372.944 833.949L 373.356 833.949L 373.749 833.949L 374.121 833.949L 374.472 833.949L 374.801 833.949L 374.958 833.949L 375.109 833.949L 375.255 833.949L 375.395 833.949L 375.529 833.949L 375.658 833.949L 375.781 833.949L 375.898 833.949L 376.009 833.949L 376.115 833.949L 376.214 833.949L 376.308 833.949L 376.395 833.949L 376.476 833.949L 376.551 833.949L 376.62 833.949L 376.682 833.949L 376.738 833.949L 376.788 833.949L 376.831 833.949L 376.868 833.949L 376.898 833.949L 376.922 833.949L 376.939 833.949L 376.949 833.949L 376.952 833.949L 376.599 833.27L 376.251 832.587L 375.908 831.902L 375.569 831.213L 375.236 830.522L 374.907 829.828L 374.584 829.131L 374.265 828.431L 373.951 827.729L 373.643 827.024L 373.339 826.316L 373.041 825.605L 372.747 824.892L 372.459 824.176L 372.176 823.457L 371.898 822.735L 371.625 822.012L 371.357 821.285L 371.095 820.556L 370.838 819.824L 370.586 819.09L 370.339 818.354L 370.098 817.615L 369.862 816.873L 369.632 816.129L 369.407 815.383L 369.187 814.635L 368.973 813.884L 368.764 813.13L 368.56 812.375L 368.363 811.617L 368.17 810.857L 367.984 810.094L 367.802 809.33L 367.627 808.563L 367.457 807.794L 367.293 807.023L 367.134 806.25L 366.981 805.475L 366.834 804.698L 366.692 803.918L 366.557 803.137L 366.427 802.354L 366.302 801.568L 366.184 800.781L 366.072 799.992L 365.965 799.201L 365.864 798.408L 365.77 797.613L 365.681 796.816L 365.598 796.018L 365.521 795.217L 365.45 794.415L 365.386 793.612L 365.327 792.806L 365.274 791.999L 365.228 791.19L 365.187 790.379L 365.153 789.567L 365.125 788.754L 365.103 787.938L 365.087 787.121L 365.078 786.303L 365.075 785.483L 365.079 784.544L 365.091 783.607L 365.112 782.672L 365.14 781.739L 365.177 780.808L 365.222 779.879L 365.275 778.953L 365.336 778.028L 365.405 777.106L 365.482 776.186L 365.567 775.268L 365.659 774.353L 365.76 773.44L 365.868 772.529L 365.984 771.621L 366.108 770.716L 366.239 769.812L 366.379 768.912L 366.525 768.014L 366.68 767.118L 366.842 766.225L 367.011 765.335L 367.188 764.448L 367.373 763.563L 367.565 762.681L 367.764 761.802L 367.971 760.926L 368.185 760.053L 368.406 759.182L 368.635 758.315L 368.87 757.451L 369.113 756.589L 368.311 756.329L 367.512 756.062L 366.715 755.789L 365.922 755.51L 365.131 755.224L 364.344 754.932L 363.559 754.633L 362.778 754.328L 361.999 754.017L 361.224 753.7L 360.452 753.377L 359.683 753.047L 358.917 752.711L 358.155 752.37L 357.395 752.022L 356.639 751.668L 355.887 751.308L 355.138 750.942L 354.392 750.57L 353.65 750.192L 352.911 749.808L 352.175 749.419L 351.443 749.023L 350.715 748.622L 349.99 748.215L 349.269 747.802L 348.551 747.384L 347.837 746.96L 347.127 746.53L 346.421 746.095L 345.718 745.654L 345.019 745.207L 344.168 746.035L 343.304 746.85L 342.429 747.652L 341.543 748.443L 340.646 749.22L 339.738 749.985L 338.819 750.737L 337.889 751.476L 336.948 752.201L 335.997 752.913L 335.036 753.612L 334.065 754.297L 333.083 754.969L 332.092 755.626L 331.09 756.27L 330.079 756.899L 329.059 757.514L 328.029 758.115L 326.99 758.701L 325.942 759.272L 324.885 759.828L 323.819 760.37L 322.744 760.896L 321.661 761.407L 320.57 761.903L 319.47 762.383L 318.362 762.847L 317.246 763.296L 316.122 763.728L 314.99 764.145L 313.851 764.545L 312.705 764.929L 312.868 766.029L 313.022 767.131L 313.165 768.238L 313.298 769.347L 313.421 770.46L 313.534 771.576L 313.636 772.695L 313.727 773.817L 313.808 774.942L 313.878 776.07L 313.938 777.201L 313.987 778.335L 314.025 779.471L 314.053 780.61L 314.069 781.752L 314.075 782.897L 314.072 783.755L 314.062 784.611L 314.047 785.466L 314.026 786.32L 313.998 787.172L 313.965 788.022L 313.925 788.871L 313.88 789.718L 313.828 790.563L 313.77 791.407L 313.707 792.249L 313.638 793.09L 313.562 793.929L 313.481 794.766L 313.394 795.601L 313.301 796.435L 313.203 797.266L 313.098 798.096L 312.988 798.924L 312.872 799.751L 312.75 800.575L 312.623 801.398L 312.49 802.218L 312.351 803.037L 312.207 803.853L 312.056 804.668L 311.901 805.481L 311.74 806.291L 311.573 807.1L 311.4 807.906L 311.223 808.711L 311.039 809.513L 310.851 810.313L 310.656 811.111L 310.457 811.907L 310.251 812.701L 310.041 813.492L 309.825 814.282L 309.604 815.069L 309.377 815.853L 309.146 816.636L 308.908 817.416L 308.666 818.194L 308.419 818.969L 308.166 819.742L 307.908 820.513L 307.644 821.281L 307.376 822.047L 307.103 822.81L 306.824 823.571L 306.54 824.329L 306.252 825.085L 305.958 825.838L 305.659 826.589L 305.355 827.337L 305.046 828.082L 304.733 828.825L 304.414 829.565L 304.09 830.303L 303.762 831.037L 303.428 831.769L 303.09 832.499L 302.747 833.225L 302.399 833.949"/>
<path style="stroke:#000000; stroke-width:0.850394; stroke-linejoin:round; stroke-linecap:round; fill:none" d="M 52.9006 576.898L 54.1443 573.816L 55.5538 570.825L 57.1235 567.93L 58.8474 565.138L 60.7197 562.454L 62.7347 559.884L 64.8866 557.434L 67.1695 555.11L 69.5776 552.918L 72.1051 550.864L 74.7463 548.953L 77.4953 547.192L 80.3462 545.587L 83.2934 544.142L 86.3309 542.865L 89.4531 541.76L 92.654 540.835L 95.4356 540.424L 95.7744 541.745L 96.0947 543.074L 96.3964 544.41L 96.6793 545.753L 96.9433 547.104L 97.1881 548.461L 97.4137 549.824L 97.6199 551.195L 97.8066 552.571L 97.9735 553.954L 98.1205 555.343L 98.2475 556.738L 98.3543 558.139L 98.4407 559.545L 98.5067 560.957L 98.552 562.375L 98.5764 563.797L 98.5808 565.005L 98.5756 565.773L 98.5644 566.54L 98.547 567.306L 98.5235 568.07L 98.494 568.832L 98.4585 569.592L 98.4169 570.351L 98.3695 571.109L 98.3161 571.865L 98.2568 572.619L 98.1917 573.371L 98.1208 574.122L 98.0441 574.871L 97.9616 575.619L 97.8733 576.364L 97.7794 577.108L 97.6798 577.85L 96.9463 578.048L 95.5775 577.717L 94.2017 577.405L 92.819 577.111L 91.4295 576.836L 90.0333 576.58L 88.6307 576.343L 87.2217 576.125L 85.8065 575.927L 84.3852 575.748L 82.9579 575.589L 81.5248 575.45L 80.0861 575.331L 78.6418 575.231L 77.1922 575.152L 75.7373 575.094L 74.2772 575.056L 72.8122 575.039L 71.9506 575.038L 71.3928 575.042L 70.8357 575.048L 70.2794 575.058L 69.7238 575.07L 69.169 575.086L 68.6149 575.104L 68.0615 575.126L 67.5089 575.15L 66.9571 575.177L 66.4061 575.208L 65.8558 575.241L 65.3063 575.277L 64.7576 575.316L 64.2097 575.358L 63.6626 575.403L 63.1164 575.451L 62.5709 575.502L 62.0263 575.555L 61.4825 575.612L 60.9395 575.671L 60.3974 575.733L 59.8562 575.798L 59.3158 575.866L 58.7763 575.937L 58.2376 576.01L 57.6998 576.086L 57.1629 576.165L 56.627 576.247L 56.0919 576.332L 55.5577 576.419L 55.0244 576.51L 54.4921 576.603L 53.9606 576.698L 53.4301 576.797L 52.9006 576.898z"/>
</g>
</svg>