<?xml version="1.0" encoding="UTF-8" standalone="yes"?>
<!-- Created with sK1/UniConvertor (http://sk1project.org/) -->
<svg xmlns="http://www.w3.org/2000/svg" xmlns:xlink="http://www.w3.org/1999/xlink"
  width="595.276pt" height="841.89pt" viewBox="0 0 595.276 841.89"
  fill-rule="evenodd">
<g>
<path style="stroke:#000000; stroke-width:0.850394; stroke-linejoin:round; stroke-linecap:round; fill:none" d="M 0 1.88977C 0 1.88977 215.348 1.88977 323.021 1.88977C 430.695 1.88977 430.695 1.88977 430.695 1.88977C 430.695 1.88977 430.695 1.88977 430.695 48.5564C 430.695 95.2231 430.695 188.556 430.695 281.89C 430.695 375.223 430.695 468.556 430.695 561.89C 430.695 655.223 430.695 748.556 430.695 795.223C 430.695 841.89 430.695 841.89 430.695 841.89C 430.695 841.89 430.695 841.89 358.913 841.89C 287.13 841.89 143.565 841.89 71.7826 841.89C 0 841.89 0 841.89 0 841.89C 0 841.89 0 841.89 0 795.223C 0 748.556 0 655.223 0 538.556C 0 421.89 0 281.89 0 1.88977"/>
<path style="stroke:#000000; stroke-width:0.850394; stroke-linejoin:round; stroke-linecap:round; fill:none" d="M 347.527 68.7592C 347.527 59.1208 351.661 55.1908 355.418 53.2258C 359.176 51.2607 362.556 51.2607 364.247 51.2607C 365.937 51.2607 365.937 51.2607 367.626 51.2607C 369.315 51.2607 372.693 51.2607 375.76 52.5708C 378.827 53.8808 381.583 56.5009 382.961 59.4172C 384.339 62.3336 384.339 65.5464 384.339 67.1528C 384.339 68.7593 384.339 68.7593 384.339 70.3663C 384.339 71.9733 384.339 75.1874 382.961 78.1042C 381.583 81.0212 378.827 83.6409 375.76 84.9507C 372.693 86.2606 369.315 86.2606 367.626 86.2606C 365.937 86.2606 365.937 86.2606 364.247 86.2606C 362.556 86.2606 359.176 86.2606 355.418 84.2958C 351.661 82.3311 347.527 78.4015 347.527 68.7592"/>
<path style="stroke:#000000; stroke-width:0.850394; stroke-linejoin:round; stroke-linecap:round; fill:none" d="M 38.5933 68.7592C 38.5933 59.1208 42.7274 55.1908 46.4848 53.2258C 50.2421 51.2607 53.6227 51.2607 55.3129 51.2607C 57.0032 51.2607 57.0032 51.2607 58.6922 51.2607C 60.3812 51.2607 63.7591 51.2607 66.8261 52.5708C 69.8932 53.8808 72.6493 56.5009 74.0273 59.4172C 75.4053 62.3336 75.4053 65.5464 75.4053 67.1528C 75.4053 68.7593 75.4053 68.7593 75.4053 70.3663C 75.4053 71.9733 75.4053 75.1874 74.0273 78.1042C 72.6493 81.0212 69.8932 83.6409 66.8261 84.9507C 63.7591 86.2606 60.3812 86.2606 58.6922 86.2606C 57.0032 86.2606 57.0032 86.2606 55.3129 86.2606C 53.6227 86.2606 50.2421 86.2606 46.4848 84.2958C 42.7274 82.3311 38.5933 78.4015 38.5933 68.7592"/>
<path style="stroke:#000000; stroke-width:0.850394; stroke-linejoin:round; stroke-linecap:round; fill:none" d="M 193.061 68.7592C 193.061 59.1208 197.194 55.1908 200.951 53.2258C 204.708 51.2607 208.089 51.2607 209.779 51.2607C 211.47 51.2607 211.47 51.2607 213.158 51.2607C 214.847 51.2607 218.225 51.2607 221.292 52.5708C 224.359 53.8808 227.116 56.5009 228.494 59.4172C 229.872 62.3336 229.872 65.5464 229.872 67.1528C 229.872 68.7593 229.872 68.7593 229.872 70.3663C 229.872 71.9733 229.872 75.1874 228.494 78.1042C 227.116 81.0212 224.359 83.6409 221.292 84.9507C 218.225 86.2606 214.847 86.2606 213.158 86.2606C 211.47 86.2606 211.47 86.2606 209.779 86.2606C 208.089 86.2606 204.708 86.2606 200.951 84.2958C 197.194 82.3311 193.061 78.4015 193.061 68.7592"/>
<path style="stroke:#000000; stroke-width:0.850394; stroke-linejoin:round; stroke-linecap:round; fill:none" d="M 328.979 141.338C 328.979 131.707 333.107 127.78 336.859 125.815C 340.611 123.849 343.987 123.845 345.676 123.843C 347.364 123.841 347.364 123.841 347.364 123.831C 347.364 123.822 347.364 123.802 347.364 123.783C 347.363 123.764 347.363 123.745 347.362 123.726C 347.362 123.707 347.362 123.688 347.362 123.678C 347.362 123.669 347.362 123.669 347.362 122.063C 347.362 120.456 347.362 117.243 348.74 114.327C 350.118 111.411 352.874 108.791 355.942 107.481C 359.01 106.172 362.391 106.172 364.082 106.172C 365.772 106.172 365.772 106.172 367.461 106.172C 369.15 106.172 372.528 106.172 375.595 107.481C 378.662 108.791 381.417 111.411 382.795 114.327C 384.173 117.243 384.173 120.456 384.173 122.063C 384.173 123.669 384.173 123.669 384.173 123.679C 384.173 123.689 384.173 123.708 384.173 123.728C 384.173 123.747 384.172 123.766 384.172 123.786C 384.172 123.805 384.172 123.825 384.171 123.835C 384.171 123.844 384.171 123.844 384.189 123.844C 384.206 123.844 384.241 123.843 384.276 123.842C 384.31 123.842 384.345 123.841 384.38 123.84C 384.415 123.84 384.449 123.84 384.467 123.84C 384.484 123.84 384.484 123.84 386.173 123.84C 387.862 123.84 391.24 123.84 394.307 125.15C 397.374 126.46 400.13 129.08 401.508 131.996C 402.887 134.912 402.887 138.125 402.887 139.732C 402.887 141.338 402.887 141.338 402.887 142.945C 402.887 144.552 402.887 147.766 401.508 150.683C 400.13 153.6 397.374 156.22 394.307 157.53C 391.24 158.84 387.862 158.84 386.173 158.84C 384.484 158.84 384.484 158.84 384.467 158.84C 384.449 158.84 384.415 158.84 384.38 158.84C 384.345 158.839 384.31 158.838 384.276 158.838C 384.241 158.837 384.207 158.837 384.189 158.837C 384.172 158.836 384.172 158.836 384.163 160.436C 384.153 162.035 384.134 165.234 382.75 168.134C 381.367 171.034 378.618 173.636 375.561 174.937C 372.504 176.238 369.138 176.238 367.455 176.238C 365.772 176.238 365.772 176.238 364.088 176.238C 362.403 176.238 359.035 176.238 355.977 174.937C 352.918 173.637 350.17 171.035 348.786 168.136C 347.402 165.236 347.383 162.038 347.373 160.438C 347.363 158.839 347.363 158.839 345.675 158.837C 343.986 158.835 340.61 158.831 336.858 156.865C 333.106 154.9 328.979 150.973 328.979 141.338"/>
<path style="stroke:#000000; stroke-width:0.850394; stroke-linejoin:round; stroke-linecap:round; fill:none" d="M 328.979 286.225C 328.979 276.594 333.107 272.667 336.859 270.701C 340.611 268.735 343.987 268.731 345.676 268.729C 347.364 268.727 347.364 268.727 347.364 268.717C 347.364 268.708 347.364 268.689 347.364 268.67C 347.363 268.651 347.363 268.632 347.362 268.613C 347.362 268.594 347.362 268.575 347.362 268.566C 347.362 268.556 347.362 268.556 347.362 266.95C 347.362 265.343 347.362 262.13 348.74 259.214C 350.118 256.298 352.874 253.678 355.942 252.368C 359.01 251.058 362.391 251.058 364.082 251.058C 365.772 251.058 365.772 251.058 367.461 251.058C 369.15 251.058 372.528 251.058 375.595 252.368C 378.662 253.678 381.417 256.298 382.795 259.214C 384.173 262.13 384.173 265.343 384.173 266.95C 384.173 268.556 384.173 268.556 384.173 268.566C 384.173 268.575 384.173 268.595 384.173 268.614C 384.173 268.634 384.172 268.653 384.172 268.672C 384.172 268.692 384.172 268.711 384.171 268.721C 384.171 268.731 384.171 268.731 384.189 268.73C 384.206 268.73 384.241 268.729 384.276 268.729C 384.31 268.728 384.345 268.727 384.38 268.727C 384.415 268.727 384.449 268.727 384.467 268.727C 384.484 268.727 384.484 268.727 386.173 268.727C 387.862 268.727 391.24 268.727 394.307 270.037C 397.374 271.347 400.13 273.967 401.508 276.883C 402.887 279.8 402.887 283.012 402.887 284.619C 402.887 286.225 402.887 286.225 402.887 287.832C 402.887 289.439 402.887 292.653 401.508 295.57C 400.13 298.487 397.374 301.107 394.307 302.417C 391.24 303.726 387.862 303.726 386.173 303.726C 384.484 303.726 384.484 303.726 384.467 303.726C 384.449 303.726 384.415 303.726 384.38 303.726C 384.345 303.726 384.31 303.725 384.276 303.724C 384.241 303.724 384.207 303.723 384.189 303.723C 384.172 303.723 384.172 303.723 384.163 305.322C 384.153 306.921 384.134 310.12 382.75 313.021C 381.367 315.921 378.618 318.523 375.561 319.824C 372.504 321.125 369.138 321.125 367.455 321.125C 365.772 321.125 365.772 321.125 364.088 321.125C 362.403 321.125 359.035 321.125 355.977 319.824C 352.918 318.524 350.17 315.922 348.786 313.023C 347.402 310.123 347.383 306.925 347.373 305.326C 347.363 303.726 347.363 303.726 345.675 303.724C 343.986 303.722 340.61 303.717 336.858 301.752C 333.106 299.786 328.979 295.859 328.979 286.225"/>
<path style="stroke:#000000; stroke-width:0.850394; stroke-linejoin:round; stroke-linecap:round; fill:none" d="M 174.512 286.225C 174.512 276.594 178.64 272.667 182.392 270.701C 186.144 268.735 189.521 268.731 191.209 268.729C 192.898 268.727 192.898 268.727 192.898 268.717C 192.898 268.708 192.898 268.689 192.897 268.67C 192.897 268.651 192.896 268.632 192.896 268.613C 192.896 268.594 192.896 268.575 192.896 268.566C 192.896 268.556 192.896 268.556 192.896 266.95C 192.896 265.343 192.896 262.13 194.274 259.214C 195.651 256.298 198.407 253.678 201.475 252.368C 204.544 251.058 207.924 251.058 209.614 251.058C 211.305 251.058 211.305 251.058 212.994 251.058C 214.683 251.058 218.061 251.058 221.128 252.368C 224.195 253.678 226.951 256.298 228.329 259.214C 229.707 262.13 229.707 265.343 229.707 266.95C 229.707 268.556 229.707 268.556 229.707 268.566C 229.707 268.575 229.707 268.595 229.706 268.614C 229.706 268.634 229.706 268.653 229.705 268.672C 229.705 268.692 229.705 268.711 229.705 268.721C 229.705 268.731 229.705 268.731 229.722 268.73C 229.739 268.73 229.774 268.729 229.809 268.729C 229.844 268.728 229.878 268.727 229.913 268.727C 229.948 268.727 229.983 268.727 230.001 268.727C 230.018 268.727 230.018 268.727 231.707 268.727C 233.396 268.727 236.774 268.727 239.841 270.037C 242.908 271.347 245.663 273.967 247.041 276.883C 248.419 279.8 248.419 283.012 248.419 284.619C 248.419 286.225 248.419 286.225 248.419 287.832C 248.419 289.439 248.419 292.653 247.041 295.57C 245.663 298.487 242.908 301.107 239.841 302.417C 236.774 303.726 233.396 303.726 231.707 303.726C 230.018 303.726 230.018 303.726 230.001 303.726C 229.983 303.726 229.948 303.726 229.914 303.726C 229.879 303.726 229.844 303.725 229.81 303.724C 229.775 303.724 229.74 303.723 229.723 303.723C 229.706 303.723 229.706 303.723 229.696 305.322C 229.687 306.921 229.668 310.12 228.284 313.021C 226.9 315.921 224.152 318.523 221.095 319.824C 218.037 321.125 214.671 321.125 212.988 321.125C 211.305 321.125 211.305 321.125 209.621 321.125C 207.936 321.125 204.568 321.125 201.51 319.824C 198.452 318.524 195.704 315.922 194.32 313.023C 192.936 310.123 192.916 306.925 192.907 305.326C 192.897 303.726 192.897 303.726 191.208 303.724C 189.52 303.722 186.143 303.717 182.391 301.752C 178.639 299.786 174.512 295.859 174.512 286.225"/>
<path style="stroke:#000000; stroke-width:0.850394; stroke-linejoin:round; stroke-linecap:round; fill:none" d="M 174.512 141.338C 174.512 131.707 178.64 127.78 182.392 125.815C 186.144 123.849 189.521 123.845 191.209 123.843C 192.898 123.841 192.898 123.841 192.898 123.831C 192.898 123.822 192.898 123.802 192.897 123.783C 192.897 123.764 192.896 123.745 192.896 123.726C 192.896 123.707 192.896 123.688 192.896 123.678C 192.896 123.669 192.896 123.669 192.896 122.063C 192.896 120.456 192.896 117.243 194.274 114.327C 195.651 111.411 198.407 108.791 201.475 107.481C 204.544 106.172 207.924 106.172 209.614 106.172C 211.305 106.172 211.305 106.172 212.994 106.172C 214.683 106.172 218.061 106.172 221.128 107.481C 224.195 108.791 226.951 111.411 228.329 114.327C 229.707 117.243 229.707 120.456 229.707 122.063C 229.707 123.669 229.707 123.669 229.707 123.679C 229.707 123.689 229.707 123.708 229.706 123.728C 229.706 123.747 229.706 123.766 229.705 123.786C 229.705 123.805 229.705 123.825 229.705 123.835C 229.705 123.844 229.705 123.844 229.722 123.844C 229.739 123.844 229.774 123.843 229.809 123.842C 229.844 123.842 229.878 123.841 229.913 123.84C 229.948 123.84 229.983 123.84 230.001 123.84C 230.018 123.84 230.018 123.84 231.707 123.84C 233.396 123.84 236.774 123.84 239.841 125.15C 242.908 126.46 245.663 129.08 247.041 131.996C 248.419 134.912 248.419 138.125 248.419 139.732C 248.419 141.338 248.419 141.338 248.419 142.945C 248.419 144.552 248.419 147.766 247.041 150.683C 245.663 153.6 242.908 156.22 239.841 157.53C 236.774 158.84 233.396 158.84 231.707 158.84C 230.018 158.84 230.018 158.84 230.001 158.84C 229.983 158.84 229.948 158.84 229.914 158.84C 229.879 158.839 229.844 158.838 229.81 158.838C 229.775 158.837 229.74 158.837 229.723 158.837C 229.706 158.836 229.706 158.836 229.696 160.436C 229.687 162.035 229.668 165.234 228.284 168.134C 226.9 171.034 224.152 173.636 221.095 174.937C 218.037 176.238 214.671 176.238 212.988 176.238C 211.305 176.238 211.305 176.238 209.621 176.238C 207.936 176.238 204.568 176.238 201.51 174.937C 198.452 173.637 195.704 171.035 194.32 168.136C 192.936 165.236 192.916 162.038 192.907 160.438C 192.897 158.839 192.897 158.839 191.208 158.837C 189.52 158.835 186.143 158.831 182.391 156.865C 178.639 154.9 174.512 150.973 174.512 141.338"/>
<path style="stroke:#000000; stroke-width:0.850394; stroke-linejoin:round; stroke-linecap:round; fill:none" d="M 20.0457 286.225C 20.0457 276.594 24.1731 272.667 27.9252 270.701C 31.6774 268.735 35.0544 268.731 36.7429 268.729C 38.4314 268.727 38.4314 268.727 38.4312 268.717C 38.4311 268.708 38.4307 268.689 38.4302 268.67C 38.4298 268.651 38.4291 268.632 38.4288 268.613C 38.4285 268.594 38.4285 268.575 38.4285 268.566C 38.4285 268.556 38.4285 268.556 38.4285 266.95C 38.4285 265.343 38.4285 262.13 39.8065 259.214C 41.1846 256.298 43.9406 253.678 47.009 252.368C 50.0773 251.058 53.4578 251.058 55.1481 251.058C 56.8384 251.058 56.8384 251.058 58.5273 251.058C 60.2163 251.058 63.5943 251.058 66.6613 252.368C 69.7283 253.678 72.4844 256.298 73.8625 259.214C 75.2405 262.13 75.2405 265.343 75.2405 266.95C 75.2405 268.556 75.2405 268.556 75.2405 268.566C 75.2405 268.575 75.2405 268.595 75.2402 268.614C 75.2399 268.634 75.2392 268.653 75.2389 268.672C 75.2386 268.692 75.2386 268.711 75.2386 268.721C 75.2386 268.731 75.2386 268.731 75.2559 268.73C 75.2732 268.73 75.3077 268.729 75.3423 268.729C 75.3769 268.728 75.4115 268.727 75.4462 268.727C 75.481 268.727 75.5159 268.727 75.5333 268.727C 75.5508 268.727 75.5508 268.727 77.2398 268.727C 78.9288 268.727 82.3067 268.727 85.3737 270.037C 88.4408 271.347 91.1969 273.967 92.5749 276.883C 93.9529 279.8 93.9529 283.012 93.9529 284.619C 93.9529 286.225 93.9529 286.225 93.9529 287.832C 93.9529 289.439 93.9529 292.653 92.5749 295.57C 91.1969 298.487 88.4408 301.107 85.3737 302.417C 82.3067 303.726 78.9288 303.726 77.2398 303.726C 75.5508 303.726 75.5508 303.726 75.5335 303.726C 75.5162 303.726 75.4816 303.726 75.447 303.726C 75.4125 303.726 75.3779 303.725 75.3433 303.724C 75.3087 303.724 75.2741 303.723 75.2568 303.723C 75.2395 303.723 75.2395 303.723 75.2298 305.322C 75.2201 306.921 75.2008 310.12 73.817 313.021C 72.4333 315.921 69.6853 318.523 66.6282 319.824C 63.571 321.125 60.2047 321.125 58.5215 321.125C 56.8384 321.125 56.8384 321.125 55.1542 321.125C 53.4701 321.125 50.1018 321.125 47.0437 319.824C 43.9856 318.524 41.2376 315.922 39.8537 313.023C 38.4698 310.123 38.4501 306.925 38.4403 305.326C 38.4304 303.726 38.4304 303.726 36.7419 303.724C 35.0534 303.722 31.6764 303.717 27.9245 301.752C 24.1726 299.786 20.0457 295.859 20.0457 286.225"/>
<path style="stroke:#000000; stroke-width:0.850394; stroke-linejoin:round; stroke-linecap:round; fill:none" d="M 347.527 213.646C 347.527 204.007 351.661 200.077 355.418 198.113C 359.176 196.148 362.556 196.148 364.247 196.148C 365.937 196.148 365.937 196.148 367.626 196.148C 369.315 196.148 372.693 196.148 375.76 197.458C 378.827 198.768 381.583 201.387 382.961 204.304C 384.339 207.22 384.339 210.433 384.339 212.04C 384.339 213.646 384.339 213.646 384.339 215.253C 384.339 216.86 384.339 220.074 382.961 222.991C 381.583 225.908 378.827 228.528 375.76 229.838C 372.693 231.148 369.315 231.148 367.626 231.148C 365.937 231.148 365.937 231.148 364.247 231.148C 362.556 231.148 359.176 231.148 355.418 229.183C 351.661 227.218 347.527 223.288 347.527 213.646"/>
<path style="stroke:#000000; stroke-width:0.850394; stroke-linejoin:round; stroke-linecap:round; fill:none" d="M 347.527 358.532C 347.527 348.894 351.661 344.964 355.418 342.999C 359.176 341.034 362.556 341.034 364.247 341.034C 365.937 341.034 365.937 341.034 367.626 341.034C 369.315 341.034 372.693 341.034 375.76 342.344C 378.827 343.654 381.583 346.274 382.961 349.19C 384.339 352.107 384.339 355.32 384.339 356.926C 384.339 358.532 384.339 358.532 384.339 360.139C 384.339 361.746 384.339 364.961 382.961 367.877C 381.583 370.794 378.827 373.414 375.76 374.724C 372.693 376.034 369.315 376.034 367.626 376.034C 365.937 376.034 365.937 376.034 364.247 376.034C 362.556 376.034 359.176 376.034 355.418 374.069C 351.661 372.104 347.527 368.175 347.527 358.532"/>
<path style="stroke:#000000; stroke-width:0.850394; stroke-linejoin:round; stroke-linecap:round; fill:none" d="M 38.5933 213.646C 38.5933 204.007 42.7274 200.077 46.4848 198.113C 50.2421 196.148 53.6227 196.148 55.3129 196.148C 57.0032 196.148 57.0032 196.148 58.6922 196.148C 60.3812 196.148 63.7591 196.148 66.8261 197.458C 69.8932 198.768 72.6493 201.387 74.0273 204.304C 75.4053 207.22 75.4053 210.433 75.4053 212.04C 75.4053 213.646 75.4053 213.646 75.4053 215.253C 75.4053 216.86 75.4053 220.074 74.0273 222.991C 72.6493 225.908 69.8932 228.528 66.8261 229.838C 63.7591 231.148 60.3812 231.148 58.6922 231.148C 57.0032 231.148 57.0032 231.148 55.3129 231.148C 53.6227 231.148 50.2421 231.148 46.4848 229.183C 42.7274 227.218 38.5933 223.288 38.5933 213.646"/>
<path style="stroke:#000000; stroke-width:0.850394; stroke-linejoin:round; stroke-linecap:round; fill:none" d="M 38.5933 358.532C 38.5933 348.894 42.7274 344.964 46.4848 342.999C 50.2421 341.034 53.6227 341.034 55.3129 341.034C 57.0032 341.034 57.0032 341.034 58.6922 341.034C 60.3812 341.034 63.7591 341.034 66.8261 342.344C 69.8932 343.654 72.6493 346.274 74.0273 349.19C 75.4053 352.107 75.4053 355.32 75.4053 356.926C 75.4053 358.532 75.4053 358.532 75.4053 360.139C 75.4053 361.746 75.4053 364.961 74.0273 367.877C 72.6493 370.794 69.8932 373.414 66.8261 374.724C 63.7591 376.034 60.3812 376.034 58.6922 376.034C 57.0032 376.034 57.0032 376.034 55.3129 376.034C 53.6227 376.034 50.2421 376.034 46.4848 374.069C 42.7274 372.104 38.5933 368.175 38.5933 358.532"/>
<path style="stroke:#000000; stroke-width:0.850394; stroke-linejoin:round; stroke-linecap:round; fill:none" d="M 251.746 68.895C 251.746 59.2643 255.873 55.3373 259.625 53.3715C 263.377 51.4056 266.754 51.4011 268.442 51.3988C 270.131 51.3965 270.131 51.3965 270.131 51.3872C 270.131 51.3778 270.131 51.3591 270.13 51.3402C 270.13 51.3213 270.13 51.3022 270.129 51.2831C 270.129 51.264 270.129 51.245 270.129 51.2355C 270.129 51.2259 270.129 51.2259 270.129 49.6195C 270.129 48.0131 270.129 44.8003 271.507 41.8839C 272.885 38.9675 275.64 36.3475 278.709 35.0375C 281.777 33.7275 285.157 33.7275 286.848 33.7275C 288.538 33.7275 288.538 33.7275 290.227 33.7275C 291.916 33.7275 295.294 33.7275 298.361 35.0375C 301.428 36.3475 304.184 38.9675 305.562 41.8839C 306.94 44.8003 306.94 48.0131 306.94 49.6195C 306.94 51.2259 306.94 51.2259 306.94 51.2356C 306.94 51.2452 306.94 51.2646 306.94 51.2841C 306.939 51.3035 306.939 51.3229 306.938 51.3423C 306.938 51.3617 306.938 51.3811 306.938 51.3908C 306.938 51.4005 306.938 51.4005 306.955 51.4001C 306.973 51.3998 307.007 51.3992 307.042 51.3985C 307.077 51.3978 307.112 51.3972 307.147 51.3969C 307.181 51.3965 307.216 51.3965 307.234 51.3965C 307.251 51.3965 307.251 51.3965 308.94 51.3965C 310.629 51.3965 314.007 51.3965 317.074 52.7065C 320.141 54.0166 322.897 56.6366 324.275 59.553C 325.653 62.4694 325.653 65.6821 325.653 67.2885C 325.653 68.8949 325.653 68.8949 325.653 70.502C 325.653 72.109 325.653 75.3231 324.275 78.24C 322.897 81.1569 320.141 83.7766 317.074 85.0864C 314.007 86.3963 310.629 86.3963 308.94 86.3963C 307.251 86.3963 307.251 86.3963 307.234 86.3963C 307.216 86.3963 307.181 86.3963 307.147 86.396C 307.112 86.3956 307.077 86.395 307.043 86.3945C 307.008 86.3941 306.974 86.3938 306.956 86.3936C 306.939 86.3934 306.939 86.3934 306.929 87.9927C 306.92 89.592 306.901 92.7906 305.517 95.6908C 304.133 98.5911 301.385 101.193 298.328 102.494C 295.27 103.795 291.904 103.795 290.221 103.795C 288.538 103.795 288.538 103.795 286.854 103.795C 285.17 103.795 281.801 103.795 278.743 102.494C 275.685 101.194 272.937 98.5923 271.553 95.6926C 270.169 92.7928 270.15 89.5945 270.14 87.9954C 270.13 86.3963 270.13 86.3963 268.442 86.3942C 266.753 86.3921 263.377 86.3879 259.625 84.4222C 255.873 82.4566 251.746 78.5295 251.746 68.895"/>
<path style="stroke:#000000; stroke-width:0.850394; stroke-linejoin:round; stroke-linecap:round; fill:none" d="M 251.746 213.782C 251.746 204.15 255.873 200.223 259.625 198.258C 263.377 196.292 266.754 196.288 268.442 196.286C 270.131 196.284 270.131 196.284 270.131 196.274C 270.131 196.265 270.131 196.245 270.13 196.226C 270.13 196.207 270.13 196.188 270.129 196.169C 270.129 196.15 270.129 196.132 270.129 196.122C 270.129 196.113 270.129 196.113 270.129 194.506C 270.129 192.9 270.129 189.687 271.507 186.77C 272.885 183.854 275.64 181.234 278.709 179.924C 281.777 178.615 285.157 178.615 286.848 178.615C 288.538 178.615 288.538 178.615 290.227 178.615C 291.916 178.615 295.294 178.615 298.361 179.924C 301.428 181.234 304.184 183.854 305.562 186.77C 306.94 189.687 306.94 192.9 306.94 194.506C 306.94 196.113 306.94 196.113 306.94 196.123C 306.94 196.132 306.94 196.152 306.94 196.171C 306.939 196.19 306.939 196.209 306.938 196.229C 306.938 196.248 306.938 196.268 306.938 196.278C 306.938 196.288 306.938 196.288 306.955 196.287C 306.973 196.287 307.007 196.286 307.042 196.286C 307.077 196.285 307.112 196.284 307.147 196.284C 307.181 196.284 307.216 196.284 307.234 196.284C 307.251 196.284 307.251 196.284 308.94 196.284C 310.629 196.284 314.007 196.284 317.074 197.594C 320.141 198.903 322.897 201.523 324.275 204.439C 325.653 207.356 325.653 210.569 325.653 212.175C 325.653 213.782 325.653 213.782 325.653 215.389C 325.653 216.996 325.653 220.21 324.275 223.126C 322.897 226.043 320.141 228.663 317.074 229.973C 314.007 231.283 310.629 231.283 308.94 231.283C 307.251 231.283 307.251 231.283 307.234 231.283C 307.216 231.283 307.181 231.283 307.147 231.283C 307.112 231.283 307.077 231.282 307.043 231.281C 307.008 231.281 306.974 231.28 306.956 231.28C 306.939 231.279 306.939 231.279 306.929 232.879C 306.92 234.478 306.901 237.677 305.517 240.578C 304.133 243.478 301.385 246.079 298.328 247.38C 295.27 248.681 291.904 248.681 290.221 248.681C 288.538 248.681 288.538 248.681 286.854 248.681C 285.17 248.681 281.801 248.681 278.743 247.38C 275.685 246.08 272.937 243.478 271.553 240.579C 270.169 237.679 270.15 234.481 270.14 232.882C 270.13 231.283 270.13 231.283 268.442 231.281C 266.753 231.279 263.377 231.274 259.625 229.309C 255.873 227.343 251.746 223.416 251.746 213.782"/>
<path style="stroke:#000000; stroke-width:0.850394; stroke-linejoin:round; stroke-linecap:round; fill:none" d="M 251.746 358.668C 251.746 349.038 255.873 345.11 259.625 343.144C 263.377 341.178 266.754 341.175 268.442 341.173C 270.131 341.171 270.131 341.171 270.131 341.161C 270.131 341.152 270.131 341.133 270.13 341.113C 270.13 341.094 270.13 341.075 270.129 341.056C 270.129 341.037 270.129 341.018 270.129 341.009C 270.129 340.999 270.129 340.999 270.129 339.393C 270.129 337.786 270.129 334.573 271.507 331.657C 272.885 328.741 275.64 326.121 278.709 324.811C 281.777 323.501 285.157 323.501 286.848 323.501C 288.538 323.501 288.538 323.501 290.227 323.501C 291.916 323.501 295.294 323.501 298.361 324.811C 301.428 326.121 304.184 328.741 305.562 331.657C 306.94 334.573 306.94 337.786 306.94 339.393C 306.94 340.999 306.94 340.999 306.94 341.009C 306.94 341.018 306.94 341.038 306.94 341.057C 306.939 341.077 306.939 341.096 306.938 341.115C 306.938 341.135 306.938 341.154 306.938 341.164C 306.938 341.174 306.938 341.174 306.955 341.173C 306.973 341.173 307.007 341.173 307.042 341.172C 307.077 341.172 307.112 341.171 307.147 341.17C 307.181 341.17 307.216 341.17 307.234 341.17C 307.251 341.17 307.251 341.17 308.94 341.17C 310.629 341.17 314.007 341.17 317.074 342.48C 320.141 343.79 322.897 346.41 324.275 349.326C 325.653 352.243 325.653 355.455 325.653 357.062C 325.653 358.668 325.653 358.668 325.653 360.275C 325.653 361.882 325.653 365.096 324.275 368.013C 322.897 370.93 320.141 373.55 317.074 374.86C 314.007 376.169 310.629 376.169 308.94 376.169C 307.251 376.169 307.251 376.169 307.234 376.169C 307.216 376.169 307.181 376.169 307.147 376.169C 307.112 376.169 307.077 376.168 307.043 376.168C 307.008 376.167 306.974 376.167 306.956 376.167C 306.939 376.167 306.939 376.167 306.929 377.766C 306.92 379.365 306.901 382.564 305.517 385.464C 304.133 388.364 301.385 390.966 298.328 392.267C 295.27 393.568 291.904 393.568 290.221 393.568C 288.538 393.568 288.538 393.568 286.854 393.568C 285.17 393.568 281.801 393.568 278.743 392.267C 275.685 390.967 272.937 388.366 271.553 385.466C 270.169 382.566 270.15 379.368 270.14 377.769C 270.13 376.169 270.13 376.169 268.442 376.167C 266.753 376.165 263.377 376.161 259.625 374.195C 255.873 372.23 251.746 368.303 251.746 358.668"/>
<path style="stroke:#000000; stroke-width:0.850394; stroke-linejoin:round; stroke-linecap:round; fill:none" d="M 97.2789 68.895C 97.2789 59.2643 101.406 55.3373 105.158 53.3715C 108.911 51.4056 112.288 51.4011 113.976 51.3988C 115.665 51.3965 115.665 51.3965 115.664 51.3872C 115.664 51.3778 115.664 51.3591 115.663 51.3402C 115.663 51.3213 115.662 51.3022 115.662 51.2831C 115.662 51.264 115.662 51.245 115.662 51.2355C 115.662 51.2259 115.662 51.2259 115.662 49.6195C 115.662 48.0131 115.662 44.8003 117.04 41.8839C 118.418 38.9675 121.174 36.3475 124.242 35.0375C 127.31 33.7275 130.691 33.7275 132.381 33.7275C 134.072 33.7275 134.072 33.7275 135.76 33.7275C 137.449 33.7275 140.827 33.7275 143.894 35.0375C 146.961 36.3475 149.718 38.9675 151.096 41.8839C 152.474 44.8003 152.474 48.0131 152.474 49.6195C 152.474 51.2259 152.474 51.2259 152.474 51.2356C 152.474 51.2452 152.474 51.2646 152.473 51.2841C 152.473 51.3035 152.472 51.3229 152.472 51.3423C 152.472 51.3617 152.472 51.3811 152.472 51.3908C 152.472 51.4005 152.472 51.4005 152.489 51.4001C 152.506 51.3998 152.541 51.3992 152.576 51.3985C 152.61 51.3978 152.645 51.3972 152.68 51.3969C 152.715 51.3965 152.749 51.3965 152.767 51.3965C 152.784 51.3965 152.784 51.3965 154.473 51.3965C 156.162 51.3965 159.541 51.3965 162.608 52.7065C 165.675 54.0166 168.43 56.6366 169.808 59.553C 171.186 62.4694 171.186 65.6821 171.186 67.2885C 171.186 68.8949 171.186 68.8949 171.186 70.502C 171.186 72.109 171.186 75.3231 169.808 78.24C 168.43 81.1569 165.675 83.7766 162.608 85.0864C 159.541 86.3963 156.162 86.3963 154.473 86.3963C 152.784 86.3963 152.784 86.3963 152.767 86.3963C 152.749 86.3963 152.715 86.3963 152.68 86.396C 152.646 86.3956 152.611 86.395 152.576 86.3945C 152.542 86.3941 152.507 86.3938 152.49 86.3936C 152.473 86.3934 152.473 86.3934 152.463 87.9927C 152.454 89.592 152.435 92.7906 151.051 95.6908C 149.667 98.5911 146.919 101.193 143.861 102.494C 140.804 103.795 137.438 103.795 135.755 103.795C 134.072 103.795 134.072 103.795 132.387 103.795C 130.703 103.795 127.335 103.795 124.277 102.494C 121.219 101.194 118.471 98.5923 117.087 95.6926C 115.703 92.7928 115.683 89.5945 115.673 87.9954C 115.664 86.3963 115.664 86.3963 113.975 86.3942C 112.287 86.3921 108.91 86.3879 105.158 84.4222C 101.406 82.4566 97.2789 78.5295 97.2789 68.895"/>
<path style="stroke:#000000; stroke-width:0.850394; stroke-linejoin:round; stroke-linecap:round; fill:none" d="M 97.2789 213.782C 97.2789 204.15 101.406 200.223 105.158 198.258C 108.911 196.292 112.288 196.288 113.976 196.286C 115.665 196.284 115.665 196.284 115.664 196.274C 115.664 196.265 115.664 196.245 115.663 196.226C 115.663 196.207 115.662 196.188 115.662 196.169C 115.662 196.15 115.662 196.132 115.662 196.122C 115.662 196.113 115.662 196.113 115.662 194.506C 115.662 192.9 115.662 189.687 117.04 186.77C 118.418 183.854 121.174 181.234 124.242 179.924C 127.31 178.615 130.691 178.615 132.381 178.615C 134.072 178.615 134.072 178.615 135.76 178.615C 137.449 178.615 140.827 178.615 143.894 179.924C 146.961 181.234 149.718 183.854 151.096 186.77C 152.474 189.687 152.474 192.9 152.474 194.506C 152.474 196.113 152.474 196.113 152.474 196.123C 152.474 196.132 152.474 196.152 152.473 196.171C 152.473 196.19 152.472 196.209 152.472 196.229C 152.472 196.248 152.472 196.268 152.472 196.278C 152.472 196.288 152.472 196.288 152.489 196.287C 152.506 196.287 152.541 196.286 152.576 196.286C 152.61 196.285 152.645 196.284 152.68 196.284C 152.715 196.284 152.749 196.284 152.767 196.284C 152.784 196.284 152.784 196.284 154.473 196.284C 156.162 196.284 159.541 196.284 162.608 197.594C 165.675 198.903 168.43 201.523 169.808 204.439C 171.186 207.356 171.186 210.569 171.186 212.175C 171.186 213.782 171.186 213.782 171.186 215.389C 171.186 216.996 171.186 220.21 169.808 223.126C 168.43 226.043 165.675 228.663 162.608 229.973C 159.541 231.283 156.162 231.283 154.473 231.283C 152.784 231.283 152.784 231.283 152.767 231.283C 152.749 231.283 152.715 231.283 152.68 231.283C 152.646 231.283 152.611 231.282 152.576 231.281C 152.542 231.281 152.507 231.28 152.49 231.28C 152.473 231.279 152.473 231.279 152.463 232.879C 152.454 234.478 152.435 237.677 151.051 240.578C 149.667 243.478 146.919 246.079 143.861 247.38C 140.804 248.681 137.438 248.681 135.755 248.681C 134.072 248.681 134.072 248.681 132.387 248.681C 130.703 248.681 127.335 248.681 124.277 247.38C 121.219 246.08 118.471 243.478 117.087 240.579C 115.703 237.679 115.683 234.481 115.673 232.882C 115.664 231.283 115.664 231.283 113.975 231.281C 112.287 231.279 108.91 231.274 105.158 229.309C 101.406 227.343 97.2789 223.416 97.2789 213.782"/>
<path style="stroke:#000000; stroke-width:0.850394; stroke-linejoin:round; stroke-linecap:round; fill:none" d="M 97.2789 358.668C 97.2789 349.038 101.406 345.11 105.158 343.144C 108.911 341.178 112.288 341.175 113.976 341.173C 115.665 341.171 115.665 341.171 115.664 341.161C 115.664 341.152 115.664 341.133 115.663 341.113C 115.663 341.094 115.662 341.075 115.662 341.056C 115.662 341.037 115.662 341.018 115.662 341.009C 115.662 340.999 115.662 340.999 115.662 339.393C 115.662 337.786 115.662 334.573 117.04 331.657C 118.418 328.741 121.174 326.121 124.242 324.811C 127.31 323.501 130.691 323.501 132.381 323.501C 134.072 323.501 134.072 323.501 135.76 323.501C 137.449 323.501 140.827 323.501 143.894 324.811C 146.961 326.121 149.718 328.741 151.096 331.657C 152.474 334.573 152.474 337.786 152.474 339.393C 152.474 340.999 152.474 340.999 152.474 341.009C 152.474 341.018 152.474 341.038 152.473 341.057C 152.473 341.077 152.472 341.096 152.472 341.115C 152.472 341.135 152.472 341.154 152.472 341.164C 152.472 341.174 152.472 341.174 152.489 341.173C 152.506 341.173 152.541 341.173 152.576 341.172C 152.61 341.172 152.645 341.171 152.68 341.17C 152.715 341.17 152.749 341.17 152.767 341.17C 152.784 341.17 152.784 341.17 154.473 341.17C 156.162 341.17 159.541 341.17 162.608 342.48C 165.675 343.79 168.43 346.41 169.808 349.326C 171.186 352.243 171.186 355.455 171.186 357.062C 171.186 358.668 171.186 358.668 171.186 360.275C 171.186 361.882 171.186 365.096 169.808 368.013C 168.43 370.93 165.675 373.55 162.608 374.86C 159.541 376.169 156.162 376.169 154.473 376.169C 152.784 376.169 152.784 376.169 152.767 376.169C 152.749 376.169 152.715 376.169 152.68 376.169C 152.646 376.169 152.611 376.168 152.576 376.168C 152.542 376.167 152.507 376.167 152.49 376.167C 152.473 376.167 152.473 376.167 152.463 377.766C 152.454 379.365 152.435 382.564 151.051 385.464C 149.667 388.364 146.919 390.966 143.861 392.267C 140.804 393.568 137.438 393.568 135.755 393.568C 134.072 393.568 134.072 393.568 132.387 393.568C 130.703 393.568 127.335 393.568 124.277 392.267C 121.219 390.967 118.471 388.366 117.087 385.466C 115.703 382.566 115.683 379.368 115.673 377.769C 115.664 376.169 115.664 376.169 113.975 376.167C 112.287 376.165 108.91 376.161 105.158 374.195C 101.406 372.23 97.2789 368.303 97.2789 358.668"/>
<path style="stroke:#000000; stroke-width:0.850394; stroke-linejoin:round; stroke-linecap:round; fill:none" d="M 270.294 141.202C 270.294 131.564 274.427 127.634 278.184 125.669C 281.942 123.704 285.322 123.704 287.012 123.704C 288.703 123.704 288.703 123.704 290.392 123.704C 292.081 123.704 295.459 123.704 298.526 125.014C 301.593 126.324 304.349 128.944 305.727 131.86C 307.105 134.777 307.105 137.99 307.105 139.596C 307.105 141.202 307.105 141.202 307.105 142.809C 307.105 144.416 307.105 147.63 305.727 150.548C 304.349 153.465 301.593 156.085 298.526 157.395C 295.459 158.705 292.081 158.705 290.392 158.705C 288.703 158.705 288.703 158.705 287.012 158.705C 285.322 158.705 281.942 158.705 278.184 156.74C 274.427 154.775 270.294 150.845 270.294 141.202"/>
<path style="stroke:#000000; stroke-width:0.850394; stroke-linejoin:round; stroke-linecap:round; fill:none" d="M 270.294 286.089C 270.294 276.45 274.427 272.521 278.184 270.556C 281.942 268.591 285.322 268.591 287.012 268.591C 288.703 268.591 288.703 268.591 290.392 268.591C 292.081 268.591 295.459 268.591 298.526 269.901C 301.593 271.211 304.349 273.83 305.727 276.747C 307.105 279.663 307.105 282.876 307.105 284.483C 307.105 286.089 307.105 286.089 307.105 287.696C 307.105 289.303 307.105 292.518 305.727 295.434C 304.349 298.351 301.593 300.971 298.526 302.281C 295.459 303.591 292.081 303.591 290.392 303.591C 288.703 303.591 288.703 303.591 287.012 303.591C 285.322 303.591 281.942 303.591 278.184 301.626C 274.427 299.661 270.294 295.732 270.294 286.089"/>
<path style="stroke:#000000; stroke-width:0.850394; stroke-linejoin:round; stroke-linecap:round; fill:none" d="M 193.061 213.646C 193.061 204.007 197.194 200.077 200.951 198.113C 204.708 196.148 208.089 196.148 209.779 196.148C 211.47 196.148 211.47 196.148 213.158 196.148C 214.847 196.148 218.225 196.148 221.292 197.458C 224.359 198.768 227.116 201.387 228.494 204.304C 229.872 207.22 229.872 210.433 229.872 212.04C 229.872 213.646 229.872 213.646 229.872 215.253C 229.872 216.86 229.872 220.074 228.494 222.991C 227.116 225.908 224.359 228.528 221.292 229.838C 218.225 231.148 214.847 231.148 213.158 231.148C 211.47 231.148 211.47 231.148 209.779 231.148C 208.089 231.148 204.708 231.148 200.951 229.183C 197.194 227.218 193.061 223.288 193.061 213.646"/>
<path style="stroke:#000000; stroke-width:0.850394; stroke-linejoin:round; stroke-linecap:round; fill:none" d="M 193.061 358.532C 193.061 348.894 197.194 344.964 200.951 342.999C 204.708 341.034 208.089 341.034 209.779 341.034C 211.47 341.034 211.47 341.034 213.158 341.034C 214.847 341.034 218.225 341.034 221.292 342.344C 224.359 343.654 227.116 346.274 228.494 349.19C 229.872 352.107 229.872 355.32 229.872 356.926C 229.872 358.532 229.872 358.532 229.872 360.139C 229.872 361.746 229.872 364.961 228.494 367.877C 227.116 370.794 224.359 373.414 221.292 374.724C 218.225 376.034 214.847 376.034 213.158 376.034C 211.47 376.034 211.47 376.034 209.779 376.034C 208.089 376.034 204.708 376.034 200.951 374.069C 197.194 372.104 193.061 368.175 193.061 358.532"/>
<path style="stroke:#000000; stroke-width:0.850394; stroke-linejoin:round; stroke-linecap:round; fill:none" d="M 115.826 141.202C 115.826 131.564 119.961 127.634 123.718 125.669C 127.475 123.704 130.856 123.704 132.546 123.704C 134.236 123.704 134.236 123.704 135.925 123.704C 137.614 123.704 140.992 123.704 144.059 125.014C 147.126 126.324 149.882 128.944 151.26 131.86C 152.639 134.777 152.639 137.99 152.639 139.596C 152.639 141.202 152.639 141.202 152.639 142.809C 152.639 144.416 152.639 147.63 151.26 150.548C 149.882 153.465 147.126 156.085 144.059 157.395C 140.992 158.705 137.614 158.705 135.925 158.705C 134.236 158.705 134.236 158.705 132.546 158.705C 130.856 158.705 127.475 158.705 123.718 156.74C 119.961 154.775 115.826 150.845 115.826 141.202"/>
<path style="stroke:#000000; stroke-width:0.850394; stroke-linejoin:round; stroke-linecap:round; fill:none" d="M 115.826 286.089C 115.826 276.45 119.961 272.521 123.718 270.556C 127.475 268.591 130.856 268.591 132.546 268.591C 134.236 268.591 134.236 268.591 135.925 268.591C 137.614 268.591 140.992 268.591 144.059 269.901C 147.126 271.211 149.882 273.83 151.26 276.747C 152.639 279.663 152.639 282.876 152.639 284.483C 152.639 286.089 152.639 286.089 152.639 287.696C 152.639 289.303 152.639 292.518 151.26 295.434C 149.882 298.351 147.126 300.971 144.059 302.281C 140.992 303.591 137.614 303.591 135.925 303.591C 134.236 303.591 134.236 303.591 132.546 303.591C 130.856 303.591 127.475 303.591 123.718 301.626C 119.961 299.661 115.826 295.732 115.826 286.089"/>
<path style="stroke:#000000; stroke-width:0.850394; stroke-linejoin:round; stroke-linecap:round; fill:none" d="M 20.0457 141.338C 20.0457 131.707 24.1731 127.78 27.9252 125.815C 31.6774 123.849 35.0544 123.845 36.7429 123.843C 38.4314 123.841 38.4314 123.841 38.4312 123.831C 38.4311 123.822 38.4307 123.802 38.4302 123.783C 38.4298 123.764 38.4291 123.745 38.4288 123.726C 38.4285 123.707 38.4285 123.688 38.4285 123.678C 38.4285 123.669 38.4285 123.669 38.4285 122.063C 38.4285 120.456 38.4285 117.243 39.8065 114.327C 41.1846 111.411 43.9406 108.791 47.009 107.481C 50.0773 106.172 53.4578 106.172 55.1481 106.172C 56.8384 106.172 56.8384 106.172 58.5273 106.172C 60.2163 106.172 63.5943 106.172 66.6613 107.481C 69.7283 108.791 72.4844 111.411 73.8625 114.327C 75.2405 117.243 75.2405 120.456 75.2405 122.063C 75.2405 123.669 75.2405 123.669 75.2405 123.679C 75.2405 123.689 75.2405 123.708 75.2402 123.728C 75.2399 123.747 75.2392 123.766 75.2389 123.786C 75.2386 123.805 75.2386 123.825 75.2386 123.835C 75.2386 123.844 75.2386 123.844 75.2559 123.844C 75.2732 123.844 75.3077 123.843 75.3423 123.842C 75.3769 123.842 75.4115 123.841 75.4462 123.84C 75.481 123.84 75.5159 123.84 75.5333 123.84C 75.5508 123.84 75.5508 123.84 77.2398 123.84C 78.9288 123.84 82.3067 123.84 85.3737 125.15C 88.4408 126.46 91.1969 129.08 92.5749 131.996C 93.9529 134.912 93.9529 138.125 93.9529 139.732C 93.9529 141.338 93.9529 141.338 93.9529 142.945C 93.9529 144.552 93.9529 147.766 92.5749 150.683C 91.1969 153.6 88.4408 156.22 85.3737 157.53C 82.3067 158.84 78.9288 158.84 77.2398 158.84C 75.5508 158.84 75.5508 158.84 75.5335 158.84C 75.5162 158.84 75.4816 158.84 75.447 158.84C 75.4125 158.839 75.3779 158.838 75.3433 158.838C 75.3087 158.837 75.2741 158.837 75.2568 158.837C 75.2395 158.836 75.2395 158.836 75.2298 160.436C 75.2201 162.035 75.2008 165.234 73.817 168.134C 72.4333 171.034 69.6853 173.636 66.6282 174.937C 63.571 176.238 60.2047 176.238 58.5215 176.238C 56.8384 176.238 56.8384 176.238 55.1542 176.238C 53.4701 176.238 50.1018 176.238 47.0437 174.937C 43.9856 173.637 41.2376 171.035 39.8537 168.136C 38.4698 165.236 38.4501 162.038 38.4403 160.438C 38.4304 158.839 38.4304 158.839 36.7419 158.837C 35.0534 158.835 31.6764 158.831 27.9245 156.865C 24.1726 154.9 20.0457 150.973 20.0457 141.338"/>
<path style="stroke:#000000; stroke-width:0.850394; stroke-linejoin:round; stroke-linecap:round; fill:none" d="M 328.979 575.998C 328.979 566.368 333.107 562.44 336.859 560.474C 340.611 558.508 343.987 558.504 345.676 558.502C 347.364 558.5 347.364 558.5 347.364 558.49C 347.364 558.481 347.364 558.462 347.364 558.443C 347.363 558.424 347.363 558.405 347.362 558.386C 347.362 558.367 347.362 558.348 347.362 558.339C 347.362 558.329 347.362 558.329 347.362 556.723C 347.362 555.116 347.362 551.904 348.74 548.987C 350.118 546.071 352.874 543.451 355.942 542.141C 359.01 540.831 362.391 540.831 364.082 540.831C 365.772 540.831 365.772 540.831 367.461 540.831C 369.15 540.831 372.528 540.831 375.595 542.141C 378.662 543.451 381.417 546.071 382.795 548.987C 384.173 551.904 384.173 555.116 384.173 556.723C 384.173 558.329 384.173 558.329 384.173 558.339C 384.173 558.349 384.173 558.368 384.173 558.387C 384.173 558.407 384.172 558.426 384.172 558.446C 384.172 558.465 384.172 558.484 384.171 558.494C 384.171 558.504 384.171 558.504 384.189 558.503C 384.206 558.503 384.241 558.502 384.276 558.502C 384.31 558.501 384.345 558.5 384.38 558.5C 384.415 558.5 384.449 558.5 384.467 558.5C 384.484 558.5 384.484 558.5 386.173 558.5C 387.862 558.5 391.24 558.5 394.307 559.81C 397.374 561.12 400.13 563.74 401.508 566.656C 402.887 569.573 402.887 572.785 402.887 574.392C 402.887 575.998 402.887 575.998 402.887 577.605C 402.887 579.212 402.887 582.426 401.508 585.343C 400.13 588.26 397.374 590.88 394.307 592.19C 391.24 593.5 387.862 593.5 386.173 593.5C 384.484 593.5 384.484 593.5 384.467 593.5C 384.449 593.5 384.415 593.5 384.38 593.499C 384.345 593.499 384.31 593.498 384.276 593.498C 384.241 593.497 384.207 593.496 384.189 593.496C 384.172 593.496 384.172 593.496 384.163 595.095C 384.153 596.695 384.134 599.894 382.75 602.794C 381.367 605.694 378.618 608.296 375.561 609.596C 372.504 610.897 369.138 610.897 367.455 610.897C 365.772 610.897 365.772 610.897 364.088 610.897C 362.403 610.897 359.035 610.897 355.977 609.597C 352.918 608.296 350.17 605.695 348.786 602.796C 347.402 599.896 347.383 596.698 347.373 595.099C 347.363 593.5 347.363 593.5 345.675 593.497C 343.986 593.495 340.61 593.491 336.858 591.525C 333.106 589.559 328.979 585.632 328.979 575.998"/>
<path style="stroke:#000000; stroke-width:0.850394; stroke-linejoin:round; stroke-linecap:round; fill:none" d="M 328.979 720.884C 328.979 711.254 333.107 707.327 336.859 705.361C 340.611 703.395 343.987 703.391 345.676 703.389C 347.364 703.387 347.364 703.387 347.364 703.377C 347.364 703.368 347.364 703.349 347.364 703.33C 347.363 703.311 347.363 703.292 347.362 703.273C 347.362 703.253 347.362 703.234 347.362 703.225C 347.362 703.215 347.362 703.215 347.362 701.609C 347.362 700.003 347.362 696.79 348.74 693.873C 350.118 690.957 352.874 688.337 355.942 687.027C 359.01 685.717 362.391 685.717 364.082 685.717C 365.772 685.717 365.772 685.717 367.461 685.717C 369.15 685.717 372.528 685.717 375.595 687.027C 378.662 688.337 381.417 690.957 382.795 693.873C 384.173 696.79 384.173 700.003 384.173 701.609C 384.173 703.215 384.173 703.215 384.173 703.225C 384.173 703.235 384.173 703.254 384.173 703.273C 384.173 703.293 384.172 703.312 384.172 703.332C 384.172 703.351 384.172 703.37 384.171 703.38C 384.171 703.39 384.171 703.39 384.189 703.39C 384.206 703.39 384.241 703.389 384.276 703.389C 384.31 703.388 384.345 703.387 384.38 703.386C 384.415 703.386 384.449 703.386 384.467 703.386C 384.484 703.386 384.484 703.386 386.173 703.386C 387.862 703.386 391.24 703.386 394.307 704.696C 397.374 706.006 400.13 708.626 401.508 711.542C 402.887 714.459 402.887 717.672 402.887 719.278C 402.887 720.884 402.887 720.884 402.887 722.491C 402.887 724.098 402.887 727.313 401.508 730.23C 400.13 733.147 397.374 735.767 394.307 737.077C 391.24 738.387 387.862 738.387 386.173 738.387C 384.484 738.387 384.484 738.387 384.467 738.387C 384.449 738.387 384.415 738.387 384.38 738.386C 384.345 738.386 384.31 738.385 384.276 738.384C 384.241 738.383 384.207 738.383 384.189 738.383C 384.172 738.383 384.172 738.383 384.163 739.982C 384.153 741.581 384.134 744.78 382.75 747.68C 381.367 750.58 378.618 753.182 375.561 754.483C 372.504 755.784 369.138 755.784 367.455 755.784C 365.772 755.784 365.772 755.784 364.088 755.784C 362.403 755.784 359.035 755.784 355.977 754.484C 352.918 753.183 350.17 750.582 348.786 747.682C 347.402 744.782 347.383 741.584 347.373 739.985C 347.363 738.386 347.363 738.386 345.675 738.384C 343.986 738.381 340.61 738.377 336.858 736.412C 333.106 734.446 328.979 730.519 328.979 720.884"/>
<path style="stroke:#000000; stroke-width:0.850394; stroke-linejoin:round; stroke-linecap:round; fill:none" d="M 174.512 575.998C 174.512 566.368 178.64 562.44 182.392 560.474C 186.144 558.508 189.521 558.504 191.209 558.502C 192.898 558.5 192.898 558.5 192.898 558.49C 192.898 558.481 192.898 558.462 192.897 558.443C 192.897 558.424 192.896 558.405 192.896 558.386C 192.896 558.367 192.896 558.348 192.896 558.339C 192.896 558.329 192.896 558.329 192.896 556.723C 192.896 555.116 192.896 551.904 194.274 548.987C 195.651 546.071 198.407 543.451 201.475 542.141C 204.544 540.831 207.924 540.831 209.614 540.831C 211.305 540.831 211.305 540.831 212.994 540.831C 214.683 540.831 218.061 540.831 221.128 542.141C 224.195 543.451 226.951 546.071 228.329 548.987C 229.707 551.904 229.707 555.116 229.707 556.723C 229.707 558.329 229.707 558.329 229.707 558.339C 229.707 558.349 229.707 558.368 229.706 558.387C 229.706 558.407 229.706 558.426 229.705 558.446C 229.705 558.465 229.705 558.484 229.705 558.494C 229.705 558.504 229.705 558.504 229.722 558.503C 229.739 558.503 229.774 558.502 229.809 558.502C 229.844 558.501 229.878 558.5 229.913 558.5C 229.948 558.5 229.983 558.5 230.001 558.5C 230.018 558.5 230.018 558.5 231.707 558.5C 233.396 558.5 236.774 558.5 239.841 559.81C 242.908 561.12 245.663 563.74 247.041 566.656C 248.419 569.573 248.419 572.785 248.419 574.392C 248.419 575.998 248.419 575.998 248.419 577.605C 248.419 579.212 248.419 582.426 247.041 585.343C 245.663 588.26 242.908 590.88 239.841 592.19C 236.774 593.5 233.396 593.5 231.707 593.5C 230.018 593.5 230.018 593.5 230.001 593.5C 229.983 593.5 229.948 593.5 229.914 593.499C 229.879 593.499 229.844 593.498 229.81 593.498C 229.775 593.497 229.74 593.496 229.723 593.496C 229.706 593.496 229.706 593.496 229.696 595.095C 229.687 596.695 229.668 599.894 228.284 602.794C 226.9 605.694 224.152 608.296 221.095 609.596C 218.037 610.897 214.671 610.897 212.988 610.897C 211.305 610.897 211.305 610.897 209.621 610.897C 207.936 610.897 204.568 610.897 201.51 609.597C 198.452 608.296 195.704 605.695 194.32 602.796C 192.936 599.896 192.916 596.698 192.907 595.099C 192.897 593.5 192.897 593.5 191.208 593.497C 189.52 593.495 186.143 593.491 182.391 591.525C 178.639 589.559 174.512 585.632 174.512 575.998"/>
<path style="stroke:#000000; stroke-width:0.850394; stroke-linejoin:round; stroke-linecap:round; fill:none" d="M 174.512 720.884C 174.512 711.254 178.64 707.327 182.392 705.361C 186.144 703.395 189.521 703.391 191.209 703.389C 192.898 703.387 192.898 703.387 192.898 703.377C 192.898 703.368 192.898 703.349 192.897 703.33C 192.897 703.311 192.896 703.292 192.896 703.273C 192.896 703.253 192.896 703.234 192.896 703.225C 192.896 703.215 192.896 703.215 192.896 701.609C 192.896 700.003 192.896 696.79 194.274 693.873C 195.651 690.957 198.407 688.337 201.475 687.027C 204.544 685.717 207.924 685.717 209.614 685.717C 211.305 685.717 211.305 685.717 212.994 685.717C 214.683 685.717 218.061 685.717 221.128 687.027C 224.195 688.337 226.951 690.957 228.329 693.873C 229.707 696.79 229.707 700.003 229.707 701.609C 229.707 703.215 229.707 703.215 229.707 703.225C 229.707 703.235 229.707 703.254 229.706 703.273C 229.706 703.293 229.706 703.312 229.705 703.332C 229.705 703.351 229.705 703.37 229.705 703.38C 229.705 703.39 229.705 703.39 229.722 703.39C 229.739 703.39 229.774 703.389 229.809 703.389C 229.844 703.388 229.878 703.387 229.913 703.386C 229.948 703.386 229.983 703.386 230.001 703.386C 230.018 703.386 230.018 703.386 231.707 703.386C 233.396 703.386 236.774 703.386 239.841 704.696C 242.908 706.006 245.663 708.626 247.041 711.542C 248.419 714.459 248.419 717.672 248.419 719.278C 248.419 720.884 248.419 720.884 248.419 722.491C 248.419 724.098 248.419 727.313 247.041 730.23C 245.663 733.147 242.908 735.767 239.841 737.077C 236.774 738.387 233.396 738.387 231.707 738.387C 230.018 738.387 230.018 738.387 230.001 738.387C 229.983 738.387 229.948 738.387 229.914 738.386C 229.879 738.386 229.844 738.385 229.81 738.384C 229.775 738.383 229.74 738.383 229.723 738.383C 229.706 738.383 229.706 738.383 229.696 739.982C 229.687 741.581 229.668 744.78 228.284 747.68C 226.9 750.58 224.152 753.182 221.095 754.483C 218.037 755.784 214.671 755.784 212.988 755.784C 211.305 755.784 211.305 755.784 209.621 755.784C 207.936 755.784 204.568 755.784 201.51 754.484C 198.452 753.183 195.704 750.582 194.32 747.682C 192.936 744.782 192.916 741.584 192.907 739.985C 192.897 738.386 192.897 738.386 191.208 738.384C 189.52 738.381 186.143 738.377 182.391 736.412C 178.639 734.446 174.512 730.519 174.512 720.884"/>
<path style="stroke:#000000; stroke-width:0.850394; stroke-linejoin:round; stroke-linecap:round; fill:none" d="M 20.0457 575.998C 20.0457 566.368 24.1731 562.44 27.9252 560.474C 31.6774 558.508 35.0544 558.504 36.7429 558.502C 38.4314 558.5 38.4314 558.5 38.4312 558.49C 38.4311 558.481 38.4307 558.462 38.4302 558.443C 38.4298 558.424 38.4291 558.405 38.4288 558.386C 38.4285 558.367 38.4285 558.348 38.4285 558.339C 38.4285 558.329 38.4285 558.329 38.4285 556.723C 38.4285 555.116 38.4285 551.904 39.8065 548.987C 41.1846 546.071 43.9406 543.451 47.009 542.141C 50.0773 540.831 53.4578 540.831 55.1481 540.831C 56.8384 540.831 56.8384 540.831 58.5273 540.831C 60.2163 540.831 63.5943 540.831 66.6613 542.141C 69.7283 543.451 72.4844 546.071 73.8625 548.987C 75.2405 551.904 75.2405 555.116 75.2405 556.723C 75.2405 558.329 75.2405 558.329 75.2405 558.339C 75.2405 558.349 75.2405 558.368 75.2402 558.387C 75.2399 558.407 75.2392 558.426 75.2389 558.446C 75.2386 558.465 75.2386 558.484 75.2386 558.494C 75.2386 558.504 75.2386 558.504 75.2559 558.503C 75.2732 558.503 75.3077 558.502 75.3423 558.502C 75.3769 558.501 75.4115 558.5 75.4462 558.5C 75.481 558.5 75.5159 558.5 75.5333 558.5C 75.5508 558.5 75.5508 558.5 77.2398 558.5C 78.9288 558.5 82.3067 558.5 85.3737 559.81C 88.4408 561.12 91.1969 563.74 92.5749 566.656C 93.9529 569.573 93.9529 572.785 93.9529 574.392C 93.9529 575.998 93.9529 575.998 93.9529 577.605C 93.9529 579.212 93.9529 582.426 92.5749 585.343C 91.1969 588.26 88.4408 590.88 85.3737 592.19C 82.3067 593.5 78.9288 593.5 77.2398 593.5C 75.5508 593.5 75.5508 593.5 75.5335 593.5C 75.5162 593.5 75.4816 593.5 75.447 593.499C 75.4125 593.499 75.3779 593.498 75.3433 593.498C 75.3087 593.497 75.2741 593.496 75.2568 593.496C 75.2395 593.496 75.2395 593.496 75.2298 595.095C 75.2201 596.695 75.2008 599.894 73.817 602.794C 72.4333 605.694 69.6853 608.296 66.6282 609.596C 63.571 610.897 60.2047 610.897 58.5215 610.897C 56.8384 610.897 56.8384 610.897 55.1542 610.897C 53.4701 610.897 50.1018 610.897 47.0437 609.597C 43.9856 608.296 41.2376 605.695 39.8537 602.796C 38.4698 599.896 38.4501 596.698 38.4403 595.099C 38.4304 593.5 38.4304 593.5 36.7419 593.497C 35.0534 593.495 31.6764 593.491 27.9245 591.525C 24.1726 589.559 20.0457 585.632 20.0457 575.998"/>
<path style="stroke:#000000; stroke-width:0.850394; stroke-linejoin:round; stroke-linecap:round; fill:none" d="M 347.527 503.419C 347.527 493.78 351.661 489.851 355.418 487.886C 359.176 485.921 362.556 485.921 364.247 485.921C 365.937 485.921 365.937 485.921 367.626 485.921C 369.315 485.921 372.693 485.921 375.76 487.231C 378.827 488.541 381.583 491.16 382.961 494.077C 384.339 496.993 384.339 500.206 384.339 501.813C 384.339 503.419 384.339 503.419 384.339 505.026C 384.339 506.633 384.339 509.847 382.961 512.764C 381.583 515.681 378.827 518.301 375.76 519.611C 372.693 520.921 369.315 520.921 367.626 520.921C 365.937 520.921 365.937 520.921 364.247 520.921C 362.556 520.921 359.176 520.921 355.418 518.956C 351.661 516.991 347.527 513.061 347.527 503.419"/>
<path style="stroke:#000000; stroke-width:0.850394; stroke-linejoin:round; stroke-linecap:round; fill:none" d="M 347.527 648.306C 347.527 638.667 351.661 634.737 355.418 632.772C 359.176 630.807 362.556 630.807 364.247 630.807C 365.937 630.807 365.937 630.807 367.626 630.807C 369.315 630.807 372.693 630.807 375.76 632.117C 378.827 633.427 381.583 636.047 382.961 638.964C 384.339 641.88 384.339 645.093 384.339 646.699C 384.339 648.306 384.339 648.306 384.339 649.913C 384.339 651.52 384.339 654.734 382.961 657.651C 381.583 660.568 378.827 663.188 375.76 664.498C 372.693 665.808 369.315 665.808 367.626 665.808C 365.937 665.808 365.937 665.808 364.247 665.808C 362.556 665.808 359.176 665.808 355.418 663.843C 351.661 661.878 347.527 657.948 347.527 648.306"/>
<path style="stroke:#000000; stroke-width:0.850394; stroke-linejoin:round; stroke-linecap:round; fill:none" d="M 347.527 793.193C 347.527 783.553 351.661 779.624 355.418 777.659C 359.176 775.694 362.556 775.694 364.247 775.694C 365.937 775.694 365.937 775.694 367.626 775.694C 369.315 775.694 372.693 775.694 375.76 777.004C 378.827 778.314 381.583 780.934 382.961 783.85C 384.339 786.766 384.339 789.979 384.339 791.586C 384.339 793.193 384.339 793.193 384.339 794.799C 384.339 796.406 384.339 799.62 382.961 802.537C 381.583 805.454 378.827 808.074 375.76 809.384C 372.693 810.694 369.315 810.694 367.626 810.694C 365.937 810.694 365.937 810.694 364.247 810.694C 362.556 810.694 359.176 810.694 355.418 808.729C 351.661 806.764 347.527 802.834 347.527 793.193"/>
<path style="stroke:#000000; stroke-width:0.850394; stroke-linejoin:round; stroke-linecap:round; fill:none" d="M 193.061 793.193C 193.061 783.553 197.194 779.624 200.951 777.659C 204.708 775.694 208.089 775.694 209.779 775.694C 211.47 775.694 211.47 775.694 213.158 775.694C 214.847 775.694 218.225 775.694 221.292 777.004C 224.359 778.314 227.116 780.934 228.494 783.85C 229.872 786.766 229.872 789.979 229.872 791.586C 229.872 793.193 229.872 793.193 229.872 794.799C 229.872 796.406 229.872 799.62 228.494 802.537C 227.116 805.454 224.359 808.074 221.292 809.384C 218.225 810.694 214.847 810.694 213.158 810.694C 211.47 810.694 211.47 810.694 209.779 810.694C 208.089 810.694 204.708 810.694 200.951 808.729C 197.194 806.764 193.061 802.834 193.061 793.193"/>
<path style="stroke:#000000; stroke-width:0.850394; stroke-linejoin:round; stroke-linecap:round; fill:none" d="M 38.5933 793.193C 38.5933 783.553 42.7274 779.624 46.4848 777.659C 50.2421 775.694 53.6227 775.694 55.3129 775.694C 57.0032 775.694 57.0032 775.694 58.6922 775.694C 60.3812 775.694 63.7591 775.694 66.8261 777.004C 69.8932 778.314 72.6493 780.934 74.0273 783.85C 75.4053 786.766 75.4053 789.979 75.4053 791.586C 75.4053 793.193 75.4053 793.193 75.4053 794.799C 75.4053 796.406 75.4053 799.62 74.0273 802.537C 72.6493 805.454 69.8932 808.074 66.8261 809.384C 63.7591 810.694 60.3812 810.694 58.6922 810.694C 57.0032 810.694 57.0032 810.694 55.3129 810.694C 53.6227 810.694 50.2421 810.694 46.4848 808.729C 42.7274 806.764 38.5933 802.834 38.5933 793.193"/>
<path style="stroke:#000000; stroke-width:0.850394; stroke-linejoin:round; stroke-linecap:round; fill:none" d="M 38.5933 503.419C 38.5933 493.78 42.7274 489.851 46.4848 487.886C 50.2421 485.921 53.6227 485.921 55.3129 485.921C 57.0032 485.921 57.0032 485.921 58.6922 485.921C 60.3812 485.921 63.7591 485.921 66.8261 487.231C 69.8932 488.541 72.6493 491.16 74.0273 494.077C 75.4053 496.993 75.4053 500.206 75.4053 501.813C 75.4053 503.419 75.4053 503.419 75.4053 505.026C 75.4053 506.633 75.4053 509.847 74.0273 512.764C 72.6493 515.681 69.8932 518.301 66.8261 519.611C 63.7591 520.921 60.3812 520.921 58.6922 520.921C 57.0032 520.921 57.0032 520.921 55.3129 520.921C 53.6227 520.921 50.2421 520.921 46.4848 518.956C 42.7274 516.991 38.5933 513.061 38.5933 503.419"/>
<path style="stroke:#000000; stroke-width:0.850394; stroke-linejoin:round; stroke-linecap:round; fill:none" d="M 38.5933 648.306C 38.5933 638.667 42.7274 634.737 46.4848 632.772C 50.2421 630.807 53.6227 630.807 55.3129 630.807C 57.0032 630.807 57.0032 630.807 58.6922 630.807C 60.3812 630.807 63.7591 630.807 66.8261 632.117C 69.8932 633.427 72.6493 636.047 74.0273 638.964C 75.4053 641.88 75.4053 645.093 75.4053 646.699C 75.4053 648.306 75.4053 648.306 75.4053 649.913C 75.4053 651.52 75.4053 654.734 74.0273 657.651C 72.6493 660.568 69.8932 663.188 66.8261 664.498C 63.7591 665.808 60.3812 665.808 58.6922 665.808C 57.0032 665.808 57.0032 665.808 55.3129 665.808C 53.6227 665.808 50.2421 665.808 46.4848 663.843C 42.7274 661.878 38.5933 657.948 38.5933 648.306"/>
<path style="stroke:#000000; stroke-width:0.850394; stroke-linejoin:round; stroke-linecap:round; fill:none" d="M 251.746 793.327C 251.746 783.697 255.873 779.77 259.625 777.804C 263.377 775.838 266.754 775.834 268.442 775.832C 270.131 775.83 270.131 775.83 270.131 775.82C 270.131 775.811 270.131 775.792 270.13 775.773C 270.13 775.754 270.13 775.735 270.129 775.716C 270.129 775.697 270.129 775.678 270.129 775.668C 270.129 775.658 270.129 775.658 270.129 774.052C 270.129 772.446 270.129 769.233 271.507 766.317C 272.885 763.4 275.64 760.781 278.709 759.471C 281.777 758.161 285.157 758.161 286.848 758.161C 288.538 758.161 288.538 758.161 290.227 758.161C 291.916 758.161 295.294 758.161 298.361 759.471C 301.428 760.781 304.184 763.4 305.562 766.317C 306.94 769.233 306.94 772.446 306.94 774.052C 306.94 775.658 306.94 775.658 306.94 775.668C 306.94 775.678 306.94 775.698 306.94 775.717C 306.939 775.737 306.939 775.756 306.938 775.776C 306.938 775.795 306.938 775.814 306.938 775.824C 306.938 775.834 306.938 775.834 306.955 775.833C 306.973 775.833 307.007 775.833 307.042 775.832C 307.077 775.831 307.112 775.831 307.147 775.83C 307.181 775.83 307.216 775.83 307.234 775.83C 307.251 775.83 307.251 775.83 308.94 775.83C 310.629 775.83 314.007 775.83 317.074 777.14C 320.141 778.45 322.897 781.069 324.275 783.986C 325.653 786.902 325.653 790.115 325.653 791.721C 325.653 793.327 325.653 793.327 325.653 794.934C 325.653 796.542 325.653 799.756 324.275 802.673C 322.897 805.59 320.141 808.21 317.074 809.52C 314.007 810.83 310.629 810.83 308.94 810.83C 307.251 810.83 307.251 810.83 307.234 810.83C 307.216 810.83 307.181 810.83 307.147 810.829C 307.112 810.829 307.077 810.828 307.043 810.828C 307.008 810.827 306.974 810.826 306.956 810.826C 306.939 810.826 306.939 810.826 306.929 812.425C 306.92 814.024 306.901 817.223 305.517 820.123C 304.133 823.023 301.385 825.625 298.328 826.926C 295.27 828.227 291.904 828.227 290.221 828.227C 288.538 828.227 288.538 828.227 286.854 828.227C 285.17 828.227 281.801 828.227 278.743 826.927C 275.685 825.626 272.937 823.025 271.553 820.125C 270.169 817.226 270.15 814.028 270.14 812.429C 270.13 810.83 270.13 810.83 268.442 810.827C 266.753 810.825 263.377 810.821 259.625 808.855C 255.873 806.889 251.746 802.962 251.746 793.327"/>
<path style="stroke:#000000; stroke-width:0.850394; stroke-linejoin:round; stroke-linecap:round; fill:none" d="M 251.746 503.555C 251.746 493.924 255.873 489.997 259.625 488.031C 263.377 486.065 266.754 486.061 268.442 486.059C 270.131 486.057 270.131 486.057 270.131 486.047C 270.131 486.038 270.131 486.019 270.13 486C 270.13 485.981 270.13 485.962 270.129 485.943C 270.129 485.924 270.129 485.905 270.129 485.896C 270.129 485.886 270.129 485.886 270.129 484.28C 270.129 482.673 270.129 479.46 271.507 476.544C 272.885 473.627 275.64 471.007 278.709 469.698C 281.777 468.388 285.157 468.388 286.848 468.388C 288.538 468.388 288.538 468.388 290.227 468.388C 291.916 468.388 295.294 468.388 298.361 469.698C 301.428 471.007 304.184 473.627 305.562 476.544C 306.94 479.46 306.94 482.673 306.94 484.28C 306.94 485.886 306.94 485.886 306.94 485.896C 306.94 485.906 306.94 485.925 306.94 485.944C 306.939 485.964 306.939 485.983 306.938 486.002C 306.938 486.022 306.938 486.041 306.938 486.05C 306.938 486.06 306.938 486.06 306.955 486.06C 306.973 486.059 307.007 486.059 307.042 486.059C 307.077 486.058 307.112 486.057 307.147 486.057C 307.181 486.057 307.216 486.057 307.234 486.057C 307.251 486.057 307.251 486.057 308.94 486.057C 310.629 486.057 314.007 486.057 317.074 487.367C 320.141 488.676 322.897 491.296 324.275 494.213C 325.653 497.129 325.653 500.342 325.653 501.949C 325.653 503.555 325.653 503.555 325.653 505.162C 325.653 506.769 325.653 509.983 324.275 512.9C 322.897 515.817 320.141 518.437 317.074 519.747C 314.007 521.057 310.629 521.057 308.94 521.057C 307.251 521.057 307.251 521.057 307.234 521.057C 307.216 521.057 307.181 521.057 307.147 521.056C 307.112 521.056 307.077 521.055 307.043 521.055C 307.008 521.054 306.974 521.053 306.956 521.053C 306.939 521.053 306.939 521.053 306.929 522.652C 306.92 524.251 306.901 527.45 305.517 530.35C 304.133 533.25 301.385 535.852 298.328 537.153C 295.27 538.454 291.904 538.454 290.221 538.454C 288.538 538.454 288.538 538.454 286.854 538.454C 285.17 538.454 281.801 538.454 278.743 537.154C 275.685 535.853 272.937 533.252 271.553 530.352C 270.169 527.452 270.15 524.255 270.14 522.656C 270.13 521.057 270.13 521.057 268.442 521.054C 266.753 521.052 263.377 521.047 259.625 519.082C 255.873 517.116 251.746 513.189 251.746 503.555"/>
<path style="stroke:#000000; stroke-width:0.850394; stroke-linejoin:round; stroke-linecap:round; fill:none" d="M 251.746 648.441C 251.746 638.81 255.873 634.883 259.625 632.917C 263.377 630.951 266.754 630.947 268.442 630.945C 270.131 630.943 270.131 630.943 270.131 630.934C 270.131 630.924 270.131 630.905 270.13 630.886C 270.13 630.868 270.13 630.849 270.129 630.829C 270.129 630.81 270.129 630.791 270.129 630.782C 270.129 630.772 270.129 630.772 270.129 629.166C 270.129 627.559 270.129 624.347 271.507 621.43C 272.885 618.514 275.64 615.894 278.709 614.584C 281.777 613.274 285.157 613.274 286.848 613.274C 288.538 613.274 288.538 613.274 290.227 613.274C 291.916 613.274 295.294 613.274 298.361 614.584C 301.428 615.894 304.184 618.514 305.562 621.43C 306.94 624.347 306.94 627.559 306.94 629.166C 306.94 630.772 306.94 630.772 306.94 630.782C 306.94 630.792 306.94 630.811 306.94 630.83C 306.939 630.85 306.939 630.869 306.938 630.889C 306.938 630.908 306.938 630.927 306.938 630.937C 306.938 630.947 306.938 630.947 306.955 630.946C 306.973 630.946 307.007 630.945 307.042 630.945C 307.077 630.944 307.112 630.944 307.147 630.943C 307.181 630.943 307.216 630.943 307.234 630.943C 307.251 630.943 307.251 630.943 308.94 630.943C 310.629 630.943 314.007 630.943 317.074 632.253C 320.141 633.563 322.897 636.183 324.275 639.099C 325.653 642.016 325.653 645.229 325.653 646.835C 325.653 648.441 325.653 648.441 325.653 650.048C 325.653 651.655 325.653 654.87 324.275 657.786C 322.897 660.703 320.141 663.323 317.074 664.633C 314.007 665.943 310.629 665.943 308.94 665.943C 307.251 665.943 307.251 665.943 307.234 665.943C 307.216 665.943 307.181 665.943 307.147 665.942C 307.112 665.942 307.077 665.941 307.043 665.941C 307.008 665.94 306.974 665.94 306.956 665.94C 306.939 665.94 306.939 665.94 306.929 667.539C 306.92 669.138 306.901 672.337 305.517 675.237C 304.133 678.137 301.385 680.739 298.328 682.039C 295.27 683.34 291.904 683.34 290.221 683.34C 288.538 683.34 288.538 683.34 286.854 683.34C 285.17 683.34 281.801 683.34 278.743 682.04C 275.685 680.739 272.937 678.138 271.553 675.239C 270.169 672.339 270.15 669.141 270.14 667.542C 270.13 665.943 270.13 665.943 268.442 665.941C 266.753 665.938 263.377 665.934 259.625 663.968C 255.873 662.002 251.746 658.075 251.746 648.441"/>
<path style="stroke:#000000; stroke-width:0.850394; stroke-linejoin:round; stroke-linecap:round; fill:none" d="M 97.2789 648.441C 97.2789 638.81 101.406 634.883 105.158 632.917C 108.911 630.951 112.288 630.947 113.976 630.945C 115.665 630.943 115.665 630.943 115.664 630.934C 115.664 630.924 115.664 630.905 115.663 630.886C 115.663 630.868 115.662 630.849 115.662 630.829C 115.662 630.81 115.662 630.791 115.662 630.782C 115.662 630.772 115.662 630.772 115.662 629.166C 115.662 627.559 115.662 624.347 117.04 621.43C 118.418 618.514 121.174 615.894 124.242 614.584C 127.31 613.274 130.691 613.274 132.381 613.274C 134.072 613.274 134.072 613.274 135.76 613.274C 137.449 613.274 140.827 613.274 143.894 614.584C 146.961 615.894 149.718 618.514 151.096 621.43C 152.474 624.347 152.474 627.559 152.474 629.166C 152.474 630.772 152.474 630.772 152.474 630.782C 152.474 630.792 152.474 630.811 152.473 630.83C 152.473 630.85 152.472 630.869 152.472 630.889C 152.472 630.908 152.472 630.927 152.472 630.937C 152.472 630.947 152.472 630.947 152.489 630.946C 152.506 630.946 152.541 630.945 152.576 630.945C 152.61 630.944 152.645 630.944 152.68 630.943C 152.715 630.943 152.749 630.943 152.767 630.943C 152.784 630.943 152.784 630.943 154.473 630.943C 156.162 630.943 159.541 630.943 162.608 632.253C 165.675 633.563 168.43 636.183 169.808 639.099C 171.186 642.016 171.186 645.229 171.186 646.835C 171.186 648.441 171.186 648.441 171.186 650.048C 171.186 651.655 171.186 654.87 169.808 657.786C 168.43 660.703 165.675 663.323 162.608 664.633C 159.541 665.943 156.162 665.943 154.473 665.943C 152.784 665.943 152.784 665.943 152.767 665.943C 152.749 665.943 152.715 665.943 152.68 665.942C 152.646 665.942 152.611 665.941 152.576 665.941C 152.542 665.94 152.507 665.94 152.49 665.94C 152.473 665.94 152.473 665.94 152.463 667.539C 152.454 669.138 152.435 672.337 151.051 675.237C 149.667 678.137 146.919 680.739 143.861 682.039C 140.804 683.34 137.438 683.34 135.755 683.34C 134.072 683.34 134.072 683.34 132.387 683.34C 130.703 683.34 127.335 683.34 124.277 682.04C 121.219 680.739 118.471 678.138 117.087 675.239C 115.703 672.339 115.683 669.141 115.673 667.542C 115.664 665.943 115.664 665.943 113.975 665.941C 112.287 665.938 108.91 665.934 105.158 663.968C 101.406 662.002 97.2789 658.075 97.2789 648.441"/>
<path style="stroke:#000000; stroke-width:0.850394; stroke-linejoin:round; stroke-linecap:round; fill:none" d="M 270.294 575.863C 270.294 566.224 274.427 562.294 278.184 560.329C 281.942 558.364 285.322 558.364 287.012 558.364C 288.703 558.364 288.703 558.364 290.392 558.364C 292.081 558.364 295.459 558.364 298.526 559.674C 301.593 560.984 304.349 563.604 305.727 566.521C 307.105 569.437 307.105 572.65 307.105 574.256C 307.105 575.863 307.105 575.863 307.105 577.47C 307.105 579.077 307.105 582.291 305.727 585.208C 304.349 588.125 301.593 590.744 298.526 592.054C 295.459 593.364 292.081 593.364 290.392 593.364C 288.703 593.364 288.703 593.364 287.012 593.364C 285.322 593.364 281.942 593.364 278.184 591.399C 274.427 589.434 270.294 585.505 270.294 575.863"/>
<path style="stroke:#000000; stroke-width:0.850394; stroke-linejoin:round; stroke-linecap:round; fill:none" d="M 270.294 720.75C 270.294 711.11 274.427 707.181 278.184 705.216C 281.942 703.251 285.322 703.251 287.012 703.251C 288.703 703.251 288.703 703.251 290.392 703.251C 292.081 703.251 295.459 703.251 298.526 704.561C 301.593 705.871 304.349 708.491 305.727 711.407C 307.105 714.323 307.105 717.536 307.105 719.143C 307.105 720.75 307.105 720.75 307.105 722.356C 307.105 723.963 307.105 727.177 305.727 730.094C 304.349 733.011 301.593 735.631 298.526 736.941C 295.459 738.251 292.081 738.251 290.392 738.251C 288.703 738.251 288.703 738.251 287.012 738.251C 285.322 738.251 281.942 738.251 278.184 736.286C 274.427 734.321 270.294 730.391 270.294 720.75"/>
<path style="stroke:#000000; stroke-width:0.850394; stroke-linejoin:round; stroke-linecap:round; fill:none" d="M 115.826 720.75C 115.826 711.11 119.961 707.181 123.718 705.216C 127.475 703.251 130.856 703.251 132.546 703.251C 134.236 703.251 134.236 703.251 135.925 703.251C 137.614 703.251 140.992 703.251 144.059 704.561C 147.126 705.871 149.882 708.491 151.26 711.407C 152.639 714.323 152.639 717.536 152.639 719.143C 152.639 720.75 152.639 720.75 152.639 722.356C 152.639 723.963 152.639 727.177 151.26 730.094C 149.882 733.011 147.126 735.631 144.059 736.941C 140.992 738.251 137.614 738.251 135.925 738.251C 134.236 738.251 134.236 738.251 132.546 738.251C 130.856 738.251 127.475 738.251 123.718 736.286C 119.961 734.321 115.826 730.391 115.826 720.75"/>
<path style="stroke:#000000; stroke-width:0.850394; stroke-linejoin:round; stroke-linecap:round; fill:none" d="M 193.061 503.419C 193.061 493.78 197.194 489.851 200.951 487.886C 204.708 485.921 208.089 485.921 209.779 485.921C 211.47 485.921 211.47 485.921 213.158 485.921C 214.847 485.921 218.225 485.921 221.292 487.231C 224.359 488.541 227.116 491.16 228.494 494.077C 229.872 496.993 229.872 500.206 229.872 501.813C 229.872 503.419 229.872 503.419 229.872 505.026C 229.872 506.633 229.872 509.847 228.494 512.764C 227.116 515.681 224.359 518.301 221.292 519.611C 218.225 520.921 214.847 520.921 213.158 520.921C 211.47 520.921 211.47 520.921 209.779 520.921C 208.089 520.921 204.708 520.921 200.951 518.956C 197.194 516.991 193.061 513.061 193.061 503.419"/>
<path style="stroke:#000000; stroke-width:0.850394; stroke-linejoin:round; stroke-linecap:round; fill:none" d="M 193.061 648.306C 193.061 638.667 197.194 634.737 200.951 632.772C 204.708 630.807 208.089 630.807 209.779 630.807C 211.47 630.807 211.47 630.807 213.158 630.807C 214.847 630.807 218.225 630.807 221.292 632.117C 224.359 633.427 227.116 636.047 228.494 638.964C 229.872 641.88 229.872 645.093 229.872 646.699C 229.872 648.306 229.872 648.306 229.872 649.913C 229.872 651.52 229.872 654.734 228.494 657.651C 227.116 660.568 224.359 663.188 221.292 664.498C 218.225 665.808 214.847 665.808 213.158 665.808C 211.47 665.808 211.47 665.808 209.779 665.808C 208.089 665.808 204.708 665.808 200.951 663.843C 197.194 661.878 193.061 657.948 193.061 648.306"/>
<path style="stroke:#000000; stroke-width:0.850394; stroke-linejoin:round; stroke-linecap:round; fill:none" d="M 97.2789 793.327C 97.2789 783.697 101.406 779.77 105.158 777.804C 108.911 775.838 112.288 775.834 113.976 775.832C 115.665 775.83 115.665 775.83 115.664 775.82C 115.664 775.811 115.664 775.792 115.663 775.773C 115.663 775.754 115.662 775.735 115.662 775.716C 115.662 775.697 115.662 775.678 115.662 775.668C 115.662 775.658 115.662 775.658 115.662 774.052C 115.662 772.446 115.662 769.233 117.04 766.317C 118.418 763.4 121.174 760.781 124.242 759.471C 127.31 758.161 130.691 758.161 132.381 758.161C 134.072 758.161 134.072 758.161 135.76 758.161C 137.449 758.161 140.827 758.161 143.894 759.471C 146.961 760.781 149.718 763.4 151.096 766.317C 152.474 769.233 152.474 772.446 152.474 774.052C 152.474 775.658 152.474 775.658 152.474 775.668C 152.474 775.678 152.474 775.698 152.473 775.717C 152.473 775.737 152.472 775.756 152.472 775.776C 152.472 775.795 152.472 775.814 152.472 775.824C 152.472 775.834 152.472 775.834 152.489 775.833C 152.506 775.833 152.541 775.833 152.576 775.832C 152.61 775.831 152.645 775.831 152.68 775.83C 152.715 775.83 152.749 775.83 152.767 775.83C 152.784 775.83 152.784 775.83 154.473 775.83C 156.162 775.83 159.541 775.83 162.608 777.14C 165.675 778.45 168.43 781.069 169.808 783.986C 171.186 786.902 171.186 790.115 171.186 791.721C 171.186 793.327 171.186 793.327 171.186 794.934C 171.186 796.542 171.186 799.756 169.808 802.673C 168.43 805.59 165.675 808.21 162.608 809.52C 159.541 810.83 156.162 810.83 154.473 810.83C 152.784 810.83 152.784 810.83 152.767 810.83C 152.749 810.83 152.715 810.83 152.68 810.829C 152.646 810.829 152.611 810.828 152.576 810.828C 152.542 810.827 152.507 810.826 152.49 810.826C 152.473 810.826 152.473 810.826 152.463 812.425C 152.454 814.024 152.435 817.223 151.051 820.123C 149.667 823.023 146.919 825.625 143.861 826.926C 140.804 828.227 137.438 828.227 135.755 828.227C 134.072 828.227 134.072 828.227 132.387 828.227C 130.703 828.227 127.335 828.227 124.277 826.927C 121.219 825.626 118.471 823.025 117.087 820.125C 115.703 817.226 115.683 814.028 115.673 812.429C 115.664 810.83 115.664 810.83 113.975 810.827C 112.287 810.825 108.91 810.821 105.158 808.855C 101.406 806.889 97.2789 802.962 97.2789 793.327"/>
<path style="stroke:#000000; stroke-width:0.850394; stroke-linejoin:round; stroke-linecap:round; fill:none" d="M 97.2789 503.555C 97.2789 493.924 101.406 489.997 105.158 488.031C 108.911 486.065 112.288 486.061 113.976 486.059C 115.665 486.057 115.665 486.057 115.664 486.047C 115.664 486.038 115.664 486.019 115.663 486C 115.663 485.981 115.662 485.962 115.662 485.943C 115.662 485.924 115.662 485.905 115.662 485.896C 115.662 485.886 115.662 485.886 115.662 484.28C 115.662 482.673 115.662 479.46 117.04 476.544C 118.418 473.627 121.174 471.007 124.242 469.698C 127.31 468.388 130.691 468.388 132.381 468.388C 134.072 468.388 134.072 468.388 135.76 468.388C 137.449 468.388 140.827 468.388 143.894 469.698C 146.961 471.007 149.718 473.627 151.096 476.544C 152.474 479.46 152.474 482.673 152.474 484.28C 152.474 485.886 152.474 485.886 152.474 485.896C 152.474 485.906 152.474 485.925 152.473 485.944C 152.473 485.964 152.472 485.983 152.472 486.002C 152.472 486.022 152.472 486.041 152.472 486.05C 152.472 486.06 152.472 486.06 152.489 486.06C 152.506 486.059 152.541 486.059 152.576 486.059C 152.61 486.058 152.645 486.057 152.68 486.057C 152.715 486.057 152.749 486.057 152.767 486.057C 152.784 486.057 152.784 486.057 154.473 486.057C 156.162 486.057 159.541 486.057 162.608 487.367C 165.675 488.676 168.43 491.296 169.808 494.213C 171.186 497.129 171.186 500.342 171.186 501.949C 171.186 503.555 171.186 503.555 171.186 505.162C 171.186 506.769 171.186 509.983 169.808 512.9C 168.43 515.817 165.675 518.437 162.608 519.747C 159.541 521.057 156.162 521.057 154.473 521.057C 152.784 521.057 152.784 521.057 152.767 521.057C 152.749 521.057 152.715 521.057 152.68 521.056C 152.646 521.056 152.611 521.055 152.576 521.055C 152.542 521.054 152.507 521.053 152.49 521.053C 152.473 521.053 152.473 521.053 152.463 522.652C 152.454 524.251 152.435 527.45 151.051 530.35C 149.667 533.25 146.919 535.852 143.861 537.153C 140.804 538.454 137.438 538.454 135.755 538.454C 134.072 538.454 134.072 538.454 132.387 538.454C 130.703 538.454 127.335 538.454 124.277 537.154C 121.219 535.853 118.471 533.252 117.087 530.352C 115.703 527.452 115.683 524.255 115.673 522.656C 115.664 521.057 115.664 521.057 113.975 521.054C 112.287 521.052 108.91 521.047 105.158 519.082C 101.406 517.116 97.2789 513.189 97.2789 503.555"/>
<path style="stroke:#000000; stroke-width:0.850394; stroke-linejoin:round; stroke-linecap:round; fill:none" d="M 115.826 575.863C 115.826 566.224 119.961 562.294 123.718 560.329C 127.475 558.364 130.856 558.364 132.546 558.364C 134.236 558.364 134.236 558.364 135.925 558.364C 137.614 558.364 140.992 558.364 144.059 559.674C 147.126 560.984 149.882 563.604 151.26 566.521C 152.639 569.437 152.639 572.65 152.639 574.256C 152.639 575.863 152.639 575.863 152.639 577.47C 152.639 579.077 152.639 582.291 151.26 585.208C 149.882 588.125 147.126 590.744 144.059 592.054C 140.992 593.364 137.614 593.364 135.925 593.364C 134.236 593.364 134.236 593.364 132.546 593.364C 130.856 593.364 127.475 593.364 123.718 591.399C 119.961 589.434 115.826 585.505 115.826 575.863"/>
<path style="stroke:#000000; stroke-width:0.850394; stroke-linejoin:round; stroke-linecap:round; fill:none" d="M 20.0457 720.884C 20.0457 711.254 24.1731 707.327 27.9252 705.361C 31.6774 703.395 35.0544 703.391 36.7429 703.389C 38.4314 703.387 38.4314 703.387 38.4312 703.377C 38.4311 703.368 38.4307 703.349 38.4302 703.33C 38.4298 703.311 38.4291 703.292 38.4288 703.273C 38.4285 703.253 38.4285 703.234 38.4285 703.225C 38.4285 703.215 38.4285 703.215 38.4285 701.609C 38.4285 700.003 38.4285 696.79 39.8065 693.873C 41.1846 690.957 43.9406 688.337 47.009 687.027C 50.0773 685.717 53.4578 685.717 55.1481 685.717C 56.8384 685.717 56.8384 685.717 58.5273 685.717C 60.2163 685.717 63.5943 685.717 66.6613 687.027C 69.7283 688.337 72.4844 690.957 73.8625 693.873C 75.2405 696.79 75.2405 700.003 75.2405 701.609C 75.2405 703.215 75.2405 703.215 75.2405 703.225C 75.2405 703.235 75.2405 703.254 75.2402 703.273C 75.2399 703.293 75.2392 703.312 75.2389 703.332C 75.2386 703.351 75.2386 703.37 75.2386 703.38C 75.2386 703.39 75.2386 703.39 75.2559 703.39C 75.2732 703.39 75.3077 703.389 75.3423 703.389C 75.3769 703.388 75.4115 703.387 75.4462 703.386C 75.481 703.386 75.5159 703.386 75.5333 703.386C 75.5508 703.386 75.5508 703.386 77.2398 703.386C 78.9288 703.386 82.3067 703.386 85.3737 704.696C 88.4408 706.006 91.1969 708.626 92.5749 711.542C 93.9529 714.459 93.9529 717.672 93.9529 719.278C 93.9529 720.884 93.9529 720.884 93.9529 722.491C 93.9529 724.098 93.9529 727.313 92.5749 730.23C 91.1969 733.147 88.4408 735.767 85.3737 737.077C 82.3067 738.387 78.9288 738.387 77.2398 738.387C 75.5508 738.387 75.5508 738.387 75.5335 738.387C 75.5162 738.387 75.4816 738.387 75.447 738.386C 75.4125 738.386 75.3779 738.385 75.3433 738.384C 75.3087 738.383 75.2741 738.383 75.2568 738.383C 75.2395 738.383 75.2395 738.383 75.2298 739.982C 75.2201 741.581 75.2008 744.78 73.817 747.68C 72.4333 750.58 69.6853 753.182 66.6282 754.483C 63.571 755.784 60.2047 755.784 58.5215 755.784C 56.8384 755.784 56.8384 755.784 55.1542 755.784C 53.4701 755.784 50.1018 755.784 47.0437 754.484C 43.9856 753.183 41.2376 750.582 39.8537 747.682C 38.4698 744.782 38.4501 741.584 38.4403 739.985C 38.4304 738.386 38.4304 738.386 36.7419 738.384C 35.0534 738.381 31.6764 738.377 27.9245 736.412C 24.1726 734.446 20.0457 730.519 20.0457 720.884"/>
<path style="stroke:#000000; stroke-width:0.850394; stroke-linejoin:round; stroke-linecap:round; fill:none" d="M 20.0477 430.977C 20.0477 430.969 20.0477 430.964 20.0477 430.961C 20.0477 430.957 20.0477 430.954 20.0477 430.953C 20.0477 430.951 20.0477 430.951 20.0477 430.951C 20.0477 430.951 20.0477 430.951 20.0477 430.951C 20.0477 430.951 20.0477 430.951 20.0477 430.95C 20.0477 430.95 20.0477 430.95 20.0477 430.95C 20.0477 430.95 20.0477 430.95 20.0477 430.95C 20.0477 430.95 20.0477 430.949 20.0477 430.948C 20.0477 430.948 20.0477 430.947 20.0477 430.946C 20.0477 430.946 20.0477 430.945 20.0477 430.945C 20.0477 430.944 20.0477 430.944 20.0635 429.352C 20.0793 427.76 20.111 424.575 21.4963 421.689C 22.8816 418.802 25.6206 416.214 28.6687 414.918C 31.7168 413.622 35.0741 413.618 36.7527 413.616C 38.4314 413.614 38.4314 413.614 38.4312 413.604C 38.4311 413.595 38.4307 413.576 38.4302 413.557C 38.4298 413.537 38.4291 413.518 38.4288 413.499C 38.4285 413.48 38.4285 413.461 38.4285 413.452C 38.4285 413.442 38.4285 413.442 38.4285 411.836C 38.4285 410.229 38.4285 407.017 39.8065 404.1C 41.1846 401.184 43.9406 398.564 47.009 397.255C 50.0773 395.945 53.4578 395.945 55.1481 395.945C 56.8384 395.945 56.8384 395.945 58.5273 395.945C 60.2163 395.945 63.5943 395.945 66.6613 397.255C 69.7283 398.564 72.4844 401.184 73.8625 404.1C 75.2405 407.017 75.2405 410.229 75.2405 411.836C 75.2405 413.442 75.2405 413.442 75.2405 413.452C 75.2405 413.462 75.2405 413.482 75.2402 413.501C 75.2399 413.52 75.2392 413.539 75.2389 413.559C 75.2386 413.578 75.2386 413.598 75.2386 413.608C 75.2386 413.618 75.2386 413.618 75.2559 413.617C 75.2732 413.617 75.3077 413.616 75.3423 413.616C 75.3769 413.615 75.4115 413.614 75.4462 413.614C 75.481 413.614 75.5159 413.614 75.5333 413.614C 75.5508 413.614 75.5508 413.614 77.2304 413.614C 78.91 413.614 82.2692 413.614 85.3206 414.909C 88.3719 416.204 91.1154 418.795 92.5025 421.684C 93.8896 424.574 93.9203 427.762 93.9357 429.356C 93.951 430.95 93.951 430.95 93.951 430.95C 93.951 430.951 93.951 430.951 93.951 430.951C 93.951 430.952 93.951 430.952 93.951 430.952C 93.951 430.953 93.951 430.953 93.951 430.953C 93.951 430.953 93.951 430.953 93.951 430.953C 93.951 430.953 93.951 430.954 93.951 430.954C 93.951 430.954 93.951 430.955 93.951 430.955C 93.951 430.955 93.951 430.956 93.951 430.956C 93.951 430.956 93.951 430.956 93.951 430.957C 93.951 430.958 93.951 430.961 93.951 430.963C 93.951 430.965 93.951 430.968 93.951 430.97C 93.951 430.973 93.951 430.975 93.951 430.976C 93.951 430.977 93.951 430.977 93.9512 430.985C 93.9513 430.992 93.9516 431.007 93.952 431.022C 93.9523 431.037 93.9526 431.052 93.9528 431.067C 93.9529 431.081 93.9529 431.096 93.9529 431.104C 93.9529 431.111 93.9529 431.111 93.9529 432.718C 93.9529 434.325 93.9529 437.539 92.5749 440.456C 91.1969 443.373 88.4408 445.993 85.3737 447.304C 82.3067 448.614 78.9288 448.614 77.2398 448.614C 75.5508 448.614 75.5508 448.614 75.5335 448.614C 75.5162 448.614 75.4816 448.614 75.447 448.613C 75.4125 448.613 75.3779 448.612 75.3433 448.611C 75.3087 448.61 75.2741 448.61 75.2568 448.61C 75.2395 448.61 75.2395 448.61 75.2298 450.209C 75.2201 451.808 75.2008 455.007 73.817 457.907C 72.4333 460.807 69.6853 463.409 66.6282 464.71C 63.571 466.011 60.2047 466.011 58.5215 466.011C 56.8384 466.011 56.8384 466.011 55.1542 466.011C 53.4701 466.011 50.1018 466.011 47.0437 464.71C 43.9856 463.41 41.2376 460.809 39.8537 457.909C 38.4698 455.009 38.4501 451.811 38.4403 450.212C 38.4304 448.613 38.4304 448.613 36.7419 448.61C 35.0534 448.608 31.6764 448.604 28.6123 447.293C 25.5482 445.982 22.797 443.364 21.4213 440.449C 20.0457 437.534 20.0457 434.323 20.0457 432.717C 20.0457 431.111 20.0457 431.111 20.0457 431.104C 20.0457 431.096 20.0457 431.081 20.046 431.063C 20.0462 431.044 20.0467 431.022 20.0477 430.977"/>
<path style="stroke:#000000; stroke-width:0.850394; stroke-linejoin:round; stroke-linecap:round; fill:none" d="M 115.826 430.977C 115.826 430.976 115.826 430.976 115.826 430.976C 115.826 430.976 115.826 430.976 115.826 430.976C 115.826 430.975 115.826 430.975 115.826 430.974C 115.826 430.974 115.826 430.972 115.827 430.969C 115.827 430.967 115.827 430.965 115.827 430.963C 115.827 430.961 115.827 430.959 115.827 430.958C 115.827 430.957 115.827 430.957 115.827 430.957C 115.827 430.957 115.827 430.956 115.827 430.956C 115.827 430.956 115.827 430.956 115.827 430.956C 115.827 430.956 115.827 430.955 115.827 430.955C 115.827 430.955 115.827 430.955 115.827 430.955C 115.827 430.954 115.827 430.954 115.827 430.953C 115.827 430.953 115.827 430.953 115.827 430.952C 115.827 430.952 115.827 430.952 115.827 430.951C 115.827 430.951 115.827 430.951 115.83 429.347C 115.832 427.742 115.836 424.533 117.216 421.621C 118.595 418.708 121.349 416.093 124.415 414.786C 127.481 413.478 130.859 413.478 132.548 413.478C 134.236 413.478 134.236 413.478 135.924 413.478C 137.612 413.478 140.987 413.478 144.052 414.786C 147.117 416.094 149.871 418.71 151.251 421.622C 152.63 424.535 152.634 427.745 152.636 429.349C 152.639 430.954 152.639 430.954 152.639 430.954C 152.639 430.954 152.639 430.955 152.639 430.955C 152.639 430.955 152.639 430.956 152.639 430.956C 152.639 430.956 152.639 430.956 152.639 430.956C 152.639 430.956 152.639 430.956 152.639 430.956C 152.639 430.957 152.639 430.957 152.639 430.958C 152.639 430.958 152.639 430.959 152.639 430.959C 152.639 430.959 152.639 430.959 152.639 430.959C 152.639 430.959 152.639 430.959 152.639 430.96C 152.639 430.961 152.639 430.963 152.639 430.965C 152.639 430.967 152.639 430.969 152.639 430.97C 152.639 430.972 152.639 430.974 152.639 430.975C 152.639 430.975 152.639 430.975 152.639 430.976C 152.639 430.976 152.639 430.976 152.639 430.976C 152.639 430.976 152.639 430.976 152.639 430.977C 152.639 430.977 152.639 430.977 152.639 430.977C 152.639 430.977 152.639 430.977 152.638 432.584C 152.638 434.191 152.638 437.405 151.26 440.322C 149.882 443.238 147.126 445.858 144.059 447.168C 140.992 448.478 137.614 448.478 135.925 448.478C 134.236 448.478 134.236 448.478 132.546 448.478C 130.856 448.478 127.476 448.478 123.719 446.513C 119.962 444.548 115.828 440.619 115.826 430.977"/>
<path style="stroke:#000000; stroke-width:0.850394; stroke-linejoin:round; stroke-linecap:round; fill:none" d="M 174.514 430.977C 174.514 430.972 174.514 430.969 174.515 430.967C 174.515 430.965 174.515 430.963 174.515 430.962C 174.515 430.961 174.515 430.961 174.515 430.961C 174.515 430.961 174.515 430.96 174.515 430.96C 174.515 430.96 174.515 430.959 174.515 430.959C 174.515 430.959 174.515 430.958 174.515 430.958C 174.515 430.958 174.515 430.958 174.515 430.958C 174.515 430.958 174.515 430.957 174.515 430.957C 174.515 430.957 174.515 430.956 174.515 430.956C 174.515 430.956 174.515 430.955 174.515 430.955C 174.515 430.955 174.515 430.955 174.53 429.362C 174.544 427.769 174.574 424.583 175.958 421.694C 177.343 418.806 180.082 416.216 183.131 414.919C 186.181 413.622 189.539 413.618 191.218 413.616C 192.898 413.614 192.898 413.614 192.898 413.604C 192.898 413.595 192.898 413.576 192.897 413.557C 192.897 413.537 192.896 413.518 192.896 413.499C 192.896 413.48 192.896 413.461 192.896 413.452C 192.896 413.442 192.896 413.442 192.896 411.836C 192.896 410.229 192.896 407.017 194.274 404.1C 195.651 401.184 198.407 398.564 201.475 397.255C 204.544 395.945 207.924 395.945 209.614 395.945C 211.305 395.945 211.305 395.945 212.994 395.945C 214.683 395.945 218.061 395.945 221.128 397.255C 224.195 398.564 226.951 401.184 228.329 404.1C 229.707 407.017 229.707 410.229 229.707 411.836C 229.707 413.442 229.707 413.442 229.707 413.452C 229.707 413.462 229.707 413.482 229.706 413.501C 229.706 413.52 229.706 413.539 229.705 413.559C 229.705 413.578 229.705 413.598 229.705 413.608C 229.705 413.618 229.705 413.618 229.722 413.617C 229.739 413.617 229.774 413.616 229.809 413.616C 229.844 413.615 229.878 413.614 229.913 413.614C 229.948 413.614 229.983 413.614 230.001 413.614C 230.018 413.614 230.018 413.614 231.698 413.614C 233.378 413.614 236.738 413.614 239.791 414.91C 242.843 416.206 245.588 418.799 246.974 421.69C 248.36 424.581 248.389 427.771 248.403 429.366C 248.417 430.961 248.417 430.961 248.417 430.961C 248.417 430.961 248.417 430.961 248.417 430.961C 248.417 430.961 248.417 430.961 248.417 430.961C 248.417 430.961 248.417 430.961 248.417 430.961C 248.417 430.961 248.417 430.961 248.417 430.961C 248.417 430.962 248.417 430.962 248.417 430.963C 248.418 430.963 248.418 430.964 248.418 430.964C 248.418 430.964 248.418 430.964 248.418 430.965C 248.418 430.965 248.418 430.965 248.418 430.966C 248.418 430.966 248.418 430.968 248.418 430.969C 248.418 430.971 248.418 430.972 248.418 430.974C 248.418 430.975 248.418 430.976 248.418 430.977C 248.418 430.977 248.418 430.977 248.418 430.985C 248.418 430.992 248.418 431.007 248.418 431.022C 248.419 431.037 248.419 431.052 248.419 431.067C 248.419 431.081 248.419 431.096 248.419 431.104C 248.419 431.111 248.419 431.111 248.419 432.718C 248.419 434.325 248.419 437.539 247.041 440.456C 245.663 443.373 242.908 445.993 239.841 447.304C 236.774 448.614 233.396 448.614 231.707 448.614C 230.018 448.614 230.018 448.614 230.001 448.614C 229.983 448.614 229.948 448.614 229.914 448.613C 229.879 448.613 229.844 448.612 229.81 448.611C 229.775 448.61 229.74 448.61 229.723 448.61C 229.706 448.61 229.706 448.61 229.696 450.209C 229.687 451.808 229.668 455.007 228.284 457.907C 226.9 460.807 224.152 463.409 221.095 464.71C 218.037 466.011 214.671 466.011 212.988 466.011C 211.305 466.011 211.305 466.011 209.621 466.011C 207.936 466.011 204.568 466.011 201.51 464.71C 198.452 463.41 195.704 460.809 194.32 457.909C 192.936 455.009 192.916 451.811 192.907 450.212C 192.897 448.613 192.897 448.613 191.208 448.61C 189.52 448.608 186.143 448.604 183.079 447.293C 180.015 445.982 177.264 443.364 175.888 440.449C 174.512 437.534 174.512 434.323 174.512 432.717C 174.512 431.111 174.512 431.111 174.512 431.104C 174.512 431.096 174.512 431.081 174.513 431.063C 174.513 431.044 174.514 431.022 174.514 430.977"/>
<path style="stroke:#000000; stroke-width:0.850394; stroke-linejoin:round; stroke-linecap:round; fill:none" d="M 270.294 430.977C 270.294 430.976 270.294 430.976 270.294 430.976C 270.294 430.976 270.294 430.976 270.294 430.976C 270.294 430.975 270.294 430.975 270.294 430.975C 270.294 430.974 270.294 430.974 270.294 430.973C 270.294 430.972 270.294 430.971 270.294 430.97C 270.294 430.969 270.294 430.968 270.294 430.967C 270.294 430.967 270.294 430.967 270.294 430.966C 270.294 430.966 270.294 430.965 270.294 430.965C 270.294 430.964 270.294 430.964 270.294 430.964C 270.294 430.963 270.294 430.963 270.294 430.962C 270.294 430.962 270.294 430.962 270.294 430.962C 270.294 430.962 270.294 430.962 270.294 430.962C 270.294 430.962 270.294 430.962 270.294 430.962C 270.294 430.962 270.294 430.962 270.294 430.962C 270.294 430.962 270.294 430.962 270.295 429.356C 270.296 427.751 270.299 424.54 271.678 421.626C 273.056 418.712 275.811 416.095 278.878 414.787C 281.945 413.478 285.324 413.478 287.013 413.478C 288.703 413.478 288.703 413.478 290.391 413.478C 292.079 413.478 295.456 413.478 298.522 414.787C 301.588 416.096 304.343 418.714 305.722 421.628C 307.1 424.542 307.103 427.753 307.104 429.358C 307.105 430.964 307.105 430.964 307.105 430.964C 307.105 430.964 307.105 430.964 307.105 430.965C 307.105 430.965 307.105 430.965 307.105 430.965C 307.105 430.965 307.105 430.965 307.105 430.965C 307.105 430.965 307.105 430.965 307.105 430.965C 307.105 430.965 307.105 430.965 307.105 430.966C 307.105 430.966 307.105 430.966 307.105 430.967C 307.105 430.967 307.105 430.968 307.105 430.968C 307.105 430.969 307.105 430.969 307.105 430.969C 307.105 430.969 307.105 430.97 307.105 430.971C 307.105 430.972 307.105 430.973 307.105 430.973C 307.105 430.974 307.105 430.975 307.105 430.975C 307.105 430.975 307.105 430.975 307.105 430.976C 307.105 430.976 307.105 430.976 307.105 430.976C 307.105 430.976 307.105 430.976 307.105 430.977C 307.105 430.977 307.105 430.977 307.105 430.977C 307.105 430.977 307.105 430.977 307.105 432.584C 307.104 434.191 307.104 437.405 305.726 440.322C 304.348 443.238 301.592 445.858 298.525 447.168C 295.459 448.478 292.081 448.478 290.392 448.478C 288.703 448.478 288.703 448.478 287.013 448.478C 285.322 448.478 281.942 448.478 278.185 446.513C 274.428 444.548 270.295 440.619 270.294 430.977"/>
<path style="stroke:#000000; stroke-width:0.850394; stroke-linejoin:round; stroke-linecap:round; fill:none" d="M 328.981 430.977C 328.981 430.975 328.981 430.974 328.981 430.973C 328.981 430.972 328.981 430.971 328.981 430.97C 328.981 430.97 328.981 430.97 328.981 430.969C 328.981 430.969 328.981 430.969 328.981 430.969C 328.981 430.968 328.981 430.968 328.981 430.968C 328.981 430.967 328.981 430.967 328.981 430.967C 328.981 430.967 328.981 430.967 328.981 430.967C 328.981 430.966 328.981 430.966 328.981 430.966C 328.981 430.966 328.981 430.966 328.981 430.966C 328.981 430.965 328.981 430.965 328.981 430.965C 328.981 430.965 328.981 430.965 328.995 429.371C 329.009 427.777 329.036 424.589 330.42 421.699C 331.804 418.81 334.545 416.218 337.595 414.92C 340.645 413.622 344.004 413.618 345.684 413.616C 347.364 413.614 347.364 413.614 347.364 413.604C 347.364 413.595 347.364 413.576 347.364 413.557C 347.363 413.537 347.363 413.518 347.362 413.499C 347.362 413.48 347.362 413.461 347.362 413.452C 347.362 413.442 347.362 413.442 347.362 411.836C 347.362 410.229 347.362 407.017 348.74 404.1C 350.118 401.184 352.874 398.564 355.942 397.255C 359.01 395.945 362.391 395.945 364.082 395.945C 365.772 395.945 365.772 395.945 367.461 395.945C 369.15 395.945 372.528 395.945 375.595 397.255C 378.662 398.564 381.417 401.184 382.795 404.1C 384.173 407.017 384.173 410.229 384.173 411.836C 384.173 413.442 384.173 413.442 384.173 413.452C 384.173 413.462 384.173 413.482 384.173 413.501C 384.173 413.52 384.172 413.539 384.172 413.559C 384.172 413.578 384.172 413.598 384.171 413.608C 384.171 413.618 384.171 413.618 384.189 413.617C 384.206 413.617 384.241 413.616 384.276 413.616C 384.31 413.615 384.345 413.614 384.38 413.614C 384.415 413.614 384.449 413.614 384.467 413.614C 384.484 413.614 384.484 413.614 386.165 413.614C 387.846 413.614 391.207 413.614 394.26 414.911C 397.313 416.208 400.058 418.801 401.444 421.694C 402.83 424.586 402.857 427.778 402.87 429.373C 402.884 430.969 402.884 430.969 402.884 430.969C 402.884 430.969 402.884 430.969 402.884 430.97C 402.885 430.97 402.885 430.97 402.885 430.971C 402.885 430.971 402.885 430.971 402.885 430.971C 402.885 430.972 402.885 430.972 402.885 430.972C 402.885 430.972 402.885 430.972 402.885 430.973C 402.885 430.973 402.885 430.973 402.885 430.974C 402.885 430.974 402.885 430.974 402.885 430.974C 402.885 430.974 402.885 430.974 402.885 430.975C 402.885 430.975 402.885 430.975 402.885 430.975C 402.885 430.976 402.885 430.976 402.885 430.976C 402.885 430.977 402.885 430.977 402.885 430.977C 402.885 430.977 402.885 430.977 402.885 430.985C 402.885 430.992 402.885 431.007 402.885 431.022C 402.885 431.037 402.886 431.052 402.886 431.067C 402.887 431.081 402.887 431.096 402.887 431.104C 402.887 431.111 402.887 431.111 402.887 432.718C 402.887 434.325 402.887 437.539 401.508 440.456C 400.13 443.373 397.374 445.993 394.307 447.304C 391.24 448.614 387.862 448.614 386.173 448.614C 384.484 448.614 384.484 448.614 384.467 448.614C 384.449 448.614 384.415 448.614 384.38 448.613C 384.345 448.613 384.31 448.612 384.276 448.611C 384.241 448.61 384.207 448.61 384.189 448.61C 384.172 448.61 384.172 448.61 384.163 450.209C 384.153 451.808 384.134 455.007 382.75 457.907C 381.367 460.807 378.618 463.409 375.561 464.71C 372.504 466.011 369.138 466.011 367.455 466.011C 365.772 466.011 365.772 466.011 364.088 466.011C 362.403 466.011 359.035 466.011 355.977 464.71C 352.918 463.41 350.17 460.809 348.786 457.909C 347.402 455.009 347.383 451.811 347.373 450.212C 347.363 448.613 347.363 448.613 345.675 448.61C 343.986 448.608 340.61 448.604 337.546 447.293C 334.482 445.982 331.731 443.364 330.355 440.449C 328.979 437.534 328.979 434.323 328.979 432.717C 328.979 431.111 328.979 431.111 328.979 431.104C 328.979 431.096 328.979 431.081 328.98 431.063C 328.98 431.044 328.98 431.022 328.981 430.977"/>
</g>
</svg>